<?xml version="1.0" encoding="UTF-8"?>
<svg id="Calque_1" data-name="Calque 1" xmlns="http://www.w3.org/2000/svg" viewBox="0 0 90 90">
  <defs>
    <style>
      .cls-1 {
        fill: #5fb7f5;
      }

      .cls-1, .cls-2, .cls-3 {
        stroke-width: 0px;
      }

      .cls-2 {
        fill: #011d50;
      }

      .cls-3 {
        fill: #fff;
      }
    </style>
  </defs>
  <rect class="cls-2" width="90" height="90" rx="16" ry="16"/>
  <path class="cls-1" d="M45.67,55.37l-.49,1.45c-.08.25-.43.25-.51,0l-.49-1.45c-.89-2.65-2.97-4.73-5.62-5.62l-1.45-.49c-.25-.08-.25-.43,0-.51l1.45-.49c2.65-.89,4.73-2.97,5.62-5.62l.49-1.45c.08-.24.43-.24.51,0l.49,1.45c.89,2.65,2.97,4.73,5.62,5.62l1.45.49c.25.08.25.43,0,.51l-1.45.49c-2.65.89-4.73,2.97-5.62,5.62Z"/>
  <path class="cls-3" d="M64.92,69.5c-1.04,0-2.01-.66-2.37-1.7l-15.1-44.38c-.39-1.15-1.47-1.92-2.68-1.92s-2.3.78-2.69,1.94l-14.78,44.35c-.44,1.31-1.85,2.02-3.16,1.58-1.31-.44-2.02-1.85-1.58-3.16l14.78-44.35c1.07-3.2,4.05-5.36,7.43-5.36s6.34,2.14,7.42,5.31l15.1,44.38c.44,1.31-.25,2.73-1.56,3.17-.27.09-.54.13-.81.13Z"/>
</svg>