<?xml version="1.0" encoding="UTF-8"?>
<svg id="Vénus" xmlns="http://www.w3.org/2000/svg" viewBox="0 0 400 400">
  <defs>
    <style>
      .cls-1 {
        fill: #f0e8dd;
      }

      .cls-1, .cls-2, .cls-3, .cls-4 {
        stroke-width: 0px;
      }

      .cls-2 {
        fill: #fcfaf6;
      }

      .cls-3 {
        fill: #1e1e1c;
        isolation: isolate;
        opacity: .2;
      }

      .cls-4 {
        fill: #ddd3c6;
      }
    </style>
  </defs>
  <path class="cls-2" d="M200,400c110.46,0,200-89.54,200-200S310.46,0,200,0,0,89.54,0,200s89.54,200,200,200Z"/>
  <path class="cls-4" d="M363.83,85.29c15.14,21.63,25.41,45.2,31,69.43-62.11,7.98-123.27,30.72-178.13,69.13-54.86,38.41-97.14,88.11-125.89,143.75-20.85-13.54-39.5-31.25-54.64-52.88-15.72-22.44-26.18-47-31.66-72.21,28.73-55.21,70.83-104.53,125.33-142.69,54.51-38.17,115.25-60.85,176.96-68.97,21.82,13.78,41.31,32.01,57.03,54.45h0Z"/>
  <path class="cls-1" d="M394.84,154.72c5.2,22.38,6.45,45.33,3.9,67.79-48.65,11.22-96.01,31.79-139.43,62.19-43.42,30.4-78.95,67.87-106.13,109.75-21.98-5.29-43.12-14.31-62.37-26.86,28.74-55.63,71.03-105.33,125.89-143.75,54.86-38.41,116.02-61.15,178.13-69.13h.01Z"/>
  <path class="cls-3" d="M134.47,245.89c-51.36-73.36-46.62-169.2,5.23-236.62-18.93,5.99-37.28,14.91-54.41,26.9C-5.19,99.53-27.18,224.24,36.17,314.72c63.36,90.48,188.06,112.47,278.55,49.12,17.13-11.99,31.79-26.19,43.89-41.93-81.08,25.66-172.77-2.66-224.14-76.02Z"/>
</svg>