<?xml version="1.0" encoding="UTF-8"?>
<svg id="Fichier_de_données" data-name="Fichier de données" xmlns="http://www.w3.org/2000/svg" viewBox="0 0 400 400">
  <defs>
    <style>
      .cls-1 {
        opacity: .8;
      }

      .cls-1, .cls-2, .cls-3, .cls-4 {
        stroke-width: 0px;
      }

      .cls-1, .cls-3 {
        isolation: isolate;
      }

      .cls-1, .cls-4 {
        fill: #fff;
      }

      .cls-2 {
        fill: #b0710b;
      }

      .cls-3 {
        fill: #000;
        opacity: .5;
      }
    </style>
  </defs>
  <path class="cls-2" d="M315,0h-170L45,100v260c0,22.09,17.91,40,40,40h230c22.09,0,40-17.91,40-40V40c0-22.09-17.91-40-40-40Z"/>
  <path class="cls-3" d="M45,100L145,0v60c0,22.09-17.91,40-40,40h-60Z"/>
  <path class="cls-1" d="M178.76,112.83l-14.68,3.36c-2.49.58-2.85,3.97-.51,5.02l13.72,6.24c25.11,11.42,43.43,33.93,49.54,60.8l3.36,14.68c.58,2.49,3.97,2.85,5.02.51l6.24-13.72c11.42-25.11,33.93-43.43,60.8-49.54l14.68-3.36c2.49-.58,2.85-3.97.51-5.02l-13.72-6.24c-25.11-11.42-43.43-33.93-49.54-60.8l-3.36-14.68c-.58-2.49-3.97-2.85-5.02-.51l-6.24,13.72c-11.42,25.11-33.93,43.43-60.8,49.54Z"/>
  <path class="cls-1" d="M137.12,190.14l-5.56,3.21c-.93.55-.64,1.96.42,2.12l6.36.83c11.66,1.51,21.91,8.39,27.79,18.57l3.21,5.56c.55.93,1.96.64,2.12-.42l.84-6.36c1.51-11.66,8.39-21.91,18.57-27.79l5.56-3.21c.93-.55.64-1.96-.42-2.12l-6.36-.84c-11.66-1.51-21.91-8.39-27.79-18.57l-3.21-5.56c-.55-.93-1.96-.68-2.12.42l-.84,6.36c-1.51,11.66-8.39,21.91-18.57,27.79Z"/>
  <path class="cls-4" d="M119.63,348.44v-41.21h-11.17v-14.64h11.17v-1.56c0-6.85,2.09-12.2,6.26-16.08,4.17-3.88,9.5-5.82,15.96-5.82h10.29v15.2h-7.26c-2.97,0-5.11.56-6.44,1.67-1.32,1.12-1.97,3.06-1.97,5.82v.79h15.64v14.64h-15.64v41.21h-16.87l.03-.03Z"/>
  <path class="cls-4" d="M206.35,348.44v-41.21h-12.29v-14.64h12.29v-11.96l16.87-9.82v21.78h16.76v14.64h-16.76v41.21h-16.87Z"/>
  <path class="cls-4" d="M268.51,349.68c-8.49,0-15.73-1.65-21.66-4.91v-16.31c7.08,4.53,13.96,6.82,20.66,6.82,5.88,0,8.82-1.18,8.82-3.59,0-1.85-2.12-3.06-6.38-3.59l-5.59-.79c-12.14-1.65-18.19-7.73-18.19-18.31,0-5.14,2.12-9.38,6.32-12.67,4.2-3.32,9.79-4.97,16.7-4.97s13.35,1.35,18.99,4.03v15.76c-5.64-3.88-11.7-5.82-18.11-5.82-5.2,0-7.82,1.12-7.82,3.35,0,1.85,2.06,3.06,6.14,3.59l4.91.68c6.94.97,11.9,2.91,14.96,5.82,3.06,2.91,4.58,7.08,4.58,12.52s-2.14,10.05-6.44,13.4c-4.29,3.35-10.26,5.03-17.93,5.03l.03-.03Z"/>
  <path class="cls-4" d="M164.61,348.44v-55.85h16.87v55.85h-16.87Z"/>
  <path class="cls-4" d="M172.98,286.89c-2.82,0-5.29-1.03-7.38-3.06-2.09-2.06-3.12-4.53-3.12-7.44s1.03-5.38,3.12-7.44c2.09-2.06,4.53-3.06,7.38-3.06s5.5,1.03,7.53,3.06c2.06,2.06,3.06,4.53,3.06,7.44s-1.03,5.38-3.06,7.44c-2.03,2.06-4.56,3.06-7.53,3.06Z"/>
</svg>