<?xml version="1.0" encoding="UTF-8"?>
<svg id="Explore_favoris" data-name="Explore + favoris" xmlns="http://www.w3.org/2000/svg" xmlns:xlink="http://www.w3.org/1999/xlink" viewBox="0 0 400 400">
  <defs>
    <style>
      .cls-1 {
        clip-path: url(#clippath);
      }

      .cls-2 {
        fill: none;
      }

      .cls-2, .cls-3, .cls-4, .cls-5, .cls-6, .cls-7, .cls-8 {
        stroke-width: 0px;
      }

      .cls-3 {
        opacity: .6;
      }

      .cls-3, .cls-5, .cls-8 {
        isolation: isolate;
      }

      .cls-3, .cls-7, .cls-8 {
        fill: #fff;
      }

      .cls-4 {
        fill: #f9b405;
      }

      .cls-5 {
        fill: #200000;
        opacity: .8;
      }

      .cls-6 {
        fill: #bf2025;
      }

      .cls-8 {
        opacity: .4;
      }
    </style>
    <clipPath id="clippath">
      <rect class="cls-2" x="38" y="39" width="84.27" height="82.44"/>
    </clipPath>
  </defs>
  <rect class="cls-6" width="400" height="400" rx="40" ry="40"/>
  <g>
    <path class="cls-3" d="M83.76,309.39l-8.53,6.77c-.9.71-1.31,1.87-1.06,3,.52,2.43,2.14,6.55,7.08,8.95.99.48,2.18.33,3.05-.34l9.1-6.89-9.64-11.48Z"/>
    <g>
      <path class="cls-3" d="M325.38,193.41l39.65-32.42c2.8-2.29,3.94-6.04,2.92-9.51-4.54-15.42-21.08-57.46-71.31-82.27-3.21-1.59-7.08-1.05-9.78,1.3l-37.54,32.57s58.67,35.57,76.07,90.33Z"/>
      <path class="cls-3" d="M93.62,238.13s4.82,50.01,69.56,87.92l12.54-10.25s-62.64-33.74-69.53-88.58l-12.57,10.91Z"/>
      <path class="cls-3" d="M114.09,199.19l15.2-13.97s-5.66-13.96-17.91-19.3l-13.99,11.87s14.7,11.89,16.7,21.4Z"/>
      <path class="cls-3" d="M68.27,241.31l-16.65,15.31c-18.01-5.55-19.93-23.08-19.93-23.08l14.21-12.06s4.79,15.06,22.37,19.84Z"/>
      <path class="cls-5" d="M249.31,103.08l-143.11,124.14h0c6.88,54.84,69.53,88.58,69.53,88.58l-12.54,10.25c-64.74-37.91-69.56-87.92-69.56-87.92l-22.16,19.22c-2.11,1.83-3.25,4.54-3.08,7.33.89,14.72,8.27,61,65.32,80.12,2.91.97,6.12.36,8.49-1.58l183.18-149.81c-17.39-54.75-76.07-90.33-76.07-90.33Z"/>
      <polygon class="cls-8" points="106.2 227.22 93.62 238.13 83.15 227.63 98.37 213.64 106.2 227.22"/>
      <path class="cls-5" d="M114.09,199.19c-2-9.51-16.7-21.4-16.7-21.4l-51.49,43.68h0s4.79,15.06,22.37,19.84h0l45.82-42.12Z"/>
    </g>
  </g>
  <rect class="cls-7" x="20" y="20" width="120" height="120" rx="20" ry="20"/>
  <g class="cls-1">
    <path class="cls-4" d="M78.08,110.59l-19.19,10.32c-3.24,1.75-7.04-1.08-6.42-4.77l3.66-21.86c.25-1.47-.23-2.96-1.27-4.01l-15.52-15.48c-2.63-2.62-1.18-7.18,2.45-7.72l21.45-3.19c1.44-.21,2.69-1.14,3.33-2.48l9.59-19.89c1.62-3.37,6.31-3.37,7.93,0l9.59,19.89c.65,1.34,1.89,2.26,3.33,2.48l21.45,3.19c3.63.54,5.08,5.1,2.45,7.72l-15.52,15.48c-1.04,1.04-1.52,2.54-1.27,4.01l3.66,21.86c.62,3.7-3.17,6.52-6.42,4.77l-19.19-10.32c-1.29-.69-2.83-.69-4.12,0h0Z"/>
  </g>
</svg>