<?xml version="1.0" encoding="UTF-8"?>
<svg id="Saturne" xmlns="http://www.w3.org/2000/svg" viewBox="0 0 400 400">
  <defs>
    <style>
      .cls-1 {
        fill: #b69b5c;
      }

      .cls-1, .cls-2, .cls-3, .cls-4, .cls-5, .cls-6 {
        stroke-width: 0px;
      }

      .cls-2 {
        fill: #1e1e1c;
        isolation: isolate;
        opacity: .2;
      }

      .cls-3 {
        fill: #d3b373;
      }

      .cls-4 {
        fill: #f7d491;
      }

      .cls-5 {
        fill: #e3c17d;
      }

      .cls-6 {
        fill: #937e4e;
      }
    </style>
  </defs>
  <path class="cls-4" d="M92.7,294.42c.21.24.41.48.62.71h-.01c1.17,1.29,2.35,2.57,3.57,3.84,3.12,3.24,6.37,6.28,9.71,9.16,26.19-4.34,79.94-33.31,126.6-79.76,47.83-47.63,73.51-99.02,75.41-123.02-1.32-1.48-2.66-2.95-4.04-4.4-1.71-1.78-3.46-3.51-5.23-5.17-1.44-1.35-2.91-2.66-4.39-3.94l-25.32-16.33c-15.6,43.66-41.39,84.44-77.29,118.68-34.92,33.3-75.67,56.83-118.84,70.65,5.76,8.71,16.99,26.11,19.22,29.58Z"/>
  <path class="cls-1" d="M343.64,184.1c-.92-8.27-2.57-16.47-4.94-24.51-20.75,30.06-46.66,61.76-77.64,92.61-33.49,33.35-68.97,61.79-102.65,84.56,6.66,2.03,13.44,3.59,20.29,4.64,42.72,6.54,87.9-6.06,121.52-38.11,33.61-32.05,48.18-76.45,43.44-119.19h-.01Z"/>
  <path class="cls-3" d="M165.53,70.26c9.69,10.06-3.39,38.19-29.21,62.81-25.83,24.62-54.62,36.42-64.31,26.36-4.82-5.01-4-14.47,1.21-25.77,4.9-10.61,13.7-22.84,25.36-34.46.86-.86,1.76-1.73,2.65-2.58.89-.86,1.81-1.7,2.71-2.52,12.16-11.1,24.82-19.32,35.68-23.74,11.57-4.69,21.1-5.1,25.93-.1h-.02Z"/>
  <path class="cls-5" d="M60.26,230.82c2.6,11.79,6.72,23.31,12.36,34.28,43.48-13.78,84.52-37.39,119.68-70.92,36.18-34.5,62.1-75.66,77.65-119.69-10.29-5.63-21.14-9.91-32.27-12.85-32.39-8.53-67.24-5.67-98.08,8.73,11.57-4.69,21.1-5.1,25.93-.1,9.69,10.06-3.39,38.19-29.21,62.81-25.82,24.63-54.62,36.42-64.31,26.36-4.82-5.01-4-14.47,1.21-25.77-15.78,30.05-20.14,64.58-12.95,97.15Z"/>
  <path class="cls-2" d="M153.5,232.73c-36.98-52.55-33.56-121.22,3.76-169.52-13.63,4.29-26.84,10.68-39.17,19.28-65.13,45.39-80.96,134.73-35.36,199.55,45.61,64.82,135.39,80.58,200.53,35.19,12.33-8.59,22.89-18.76,31.59-30.04-58.37,18.39-124.38-1.91-161.36-54.46h.01Z"/>
  <path class="cls-6" d="M70.07,259.86c-4.63,5.74-9.23,11.56-13.8,17.47,0,0-67.78,104.76-54.56,118.16,21.18,21.5,150.74-35.15,259.35-143.29C369.66,144.05,416.2,25.37,395.01,3.87c-12.62-12.8-55.04,6.93-110.22,47.83,0,0-8.78,6.42-23.63,18.36l33.83,21.82c5.08-1.12,8.85-.69,11.01,1.5,11.52,11.69-13.78,76.2-72.81,134.99-59.05,58.78-129.46,89.58-140.98,77.89-1.62-1.64-1-5.78.9-11.21,0,0-22.84-35.46-23.05-35.19h0Z"/>
</svg>