<?xml version="1.0" encoding="UTF-8"?>
<svg id="Dataset" xmlns="http://www.w3.org/2000/svg" viewBox="0 0 400 400">
  <defs>
    <style>
      .cls-1 {
        fill: none;
      }

      .cls-1, .cls-2, .cls-3, .cls-4, .cls-5, .cls-6 {
        stroke-width: 0px;
      }

      .cls-2 {
        fill: #592e00;
      }

      .cls-2, .cls-4, .cls-7 {
        isolation: isolate;
      }

      .cls-3 {
        fill: #c97108;
      }

      .cls-4 {
        opacity: .8;
      }

      .cls-4, .cls-8, .cls-6, .cls-9 {
        fill: #fff;
      }

      .cls-5 {
        fill: rgba(255, 255, 255, .2);
      }

      .cls-7 {
        fill: #fccb4f;
        stroke: #fff;
        stroke-width: 3px;
      }

      .cls-7, .cls-8, .cls-9 {
        stroke-miterlimit: 10;
      }

      .cls-8 {
        fill-rule: evenodd;
        stroke: #693901;
      }

      .cls-9 {
        stroke: #36a9e1;
        stroke-width: 2px;
      }
    </style>
  </defs>
  <path class="cls-3" d="M360,0H40C17.91,0,0,17.91,0,40v320c0,22.09,17.91,40,40,40h320c22.09,0,40-17.91,40-40V40c0-22.09-17.91-40-40-40Z"/>
  <g>
    <rect class="cls-1" x="-37.82" y="-28.45" width="478.8" height="478.8"/>
    <path class="cls-7" d="M29.21,152.45l182.66,64.59,162.07-64.59-182.29-70.78L29.21,152.45Z"/>
    <path class="cls-5" d="M239.92,205.88l56.62,15.52-37.93-22.97-3.21,1.28,22.85,12.99-34.13-8.5-4.2,1.69h0Z"/>
    <path class="cls-5" d="M195.42,221.04l-31.18-16.24,27.94,5.28-17.72-6.25-28.93-5.48,47.87,24.72,13.51,16.84-11.44-1.14,9.14,10.22-10.9,5.19-45.26-10.08,31.49,22.8-3.1,1.77,3.38,1.34,4.97-2.82-23.88-17.3,32.74,7.28,15.21-7.25-6.79-7.59,10.9,1.09-17.98-22.37h.02Z"/>
    <path class="cls-6" d="M223.39,212.47l-5.31,2.08,16.95,2.48-6.42-6.68-2.84,1.14,1.45,1.51-3.83-.54h0Z"/>
    <path class="cls-6" d="M296.32,195.64l23.82-10.68-3.46-1.57-20.44,9.16-11.75-4.43-3.91,1.54,15.76,5.96h-.01Z"/>
    <path class="cls-8" d="M181.63,206.35l-82.63-29.21-69.8,32.39,147.66,59.13,3.09-1.76-31.49-22.8,45.26,10.08,10.9-5.19-9.14-10.22,11.44,1.14-13.51-16.84-47.87-24.72,28.93,5.48,7.16,2.53ZM192.14,210.07l-27.89-5.27,31.18,16.24,17.98,22.37-10.9-1.09,6.79,7.59-15.21,7.25-32.74-7.28,23.88,17.3-4.97,2.82-1.38-.55,33,13.21,162.07-73.15-53.82-24.57-23.82,10.68-15.76-5.96,3.91-1.54,11.75,4.43,20.44-9.16,2.24,1.02-11.72-5.35-78.56,31.31,6.42,6.68-16.94-2.48-6.22,2.48-19.73-6.97v-.02ZM218.88,214.25l9.14-3.64-2.24.9,1.45,1.51-3.83-.54-4.51,1.77h-.01ZM239.92,205.88l56.62,15.52-37.93-22.97-3.21,1.28,22.85,12.99-34.13-8.5-4.2,1.69h0Z"/>
    <path class="cls-9" d="M168.91,163.04s11.47,4.45,11.16,11.62c-.31,7.16-3.41,9.5-6.27,11.38,0,0-1.74,1.83.71,1.63,2.44-.2,15.39-3.83,31.89-3.36,16.49.45,26.01,2.74,26.51,2.91.51.17,2.44.66,2.81-.26.37-.91-1.45-1.86-2.27-2.29s-7.04-4.17-7.16-9.82c-.11-5.65,6.04-10.5,7.16-10.99,0,0,.89-1.42-1.14-1.26-2.01.17-14.82,3.65-29.47,3.65,0,0-11.81.2-30.24-3.28,0,0-4.94-.95-3.69.06Z"/>
    <path class="cls-9" d="M197.07,144.09c-19.39.29-30.5,4.48-31.52,4.66-1.02.17-6.31.48-2.53-2.85,3.77-3.34,6.73-5.42,7.27-12.87.54-7.45-10.16-13.61-13.51-16.21-3.35-2.6,1.76-1.28,2.24-1.11.48.17,5.11,1.11,17.66,3.42,12.56,2.31,34.66,1.03,34.66,1.03,0,0,15.64-.8,24.13-4.08,0,0,6.16-1.59,2.75,1.83,0,0-7.92,3.91-8.3,12.02,0,0-1.59,7.34,11.47,16.12,0,0,3.89,2.25,0,2.57,0,0-7.58-2.74-21.5-3.32,0,0-17.03-1.28-22.86-1.2l.04-.02Z"/>
    <path class="cls-4" d="M300.15,242.83l63.55,26.74-151.91,69.78-174.78-70,68.24-29.39-4.7-1.88-72.88,31.4,183.51,73.48.72.29,160.73-73.83-68-28.61-4.46,2.01Z"/>
    <path class="cls-2" d="M37,269.36l174.78,70,151.91-69.78-63.55-26.74-87.79,39.63-.45.22-.48-.19-106.18-42.52-68.24,29.39Z"/>
  </g>
</svg>