<?xml version="1.0" encoding="UTF-8"?>
<svg id="Nights_logs" data-name="Nights logs" xmlns="http://www.w3.org/2000/svg" viewBox="0 0 400 400">
  <defs>
    <style>
      .cls-1 {
        opacity: .6;
        stroke: #1d1d1b;
        stroke-miterlimit: 10;
      }

      .cls-1, .cls-2, .cls-3, .cls-4 {
        isolation: isolate;
      }

      .cls-1, .cls-5 {
        fill: #fff;
      }

      .cls-6, .cls-2, .cls-3 {
        fill: #1d1d1b;
      }

      .cls-6, .cls-2, .cls-3, .cls-5, .cls-7 {
        stroke-width: 0px;
      }

      .cls-2 {
        opacity: .4;
      }

      .cls-3 {
        opacity: .8;
      }

      .cls-7 {
        fill: #1c724e;
      }
    </style>
  </defs>
  <rect class="cls-7" width="400" height="400" rx="40" ry="40"/>
  <path class="cls-3" d="M293.28,40.37H92.2c-7.01,0-12.7,5.69-12.7,12.7l.03,263.07,16.45,38.5V65.69c0-7.01,5.69-12.7,12.7-12.7h208.83l-24.23-12.62Z"/>
  <rect class="cls-2" x="95.97" y="193" width="224.53" height="128.7"/>
  <g class="cls-4">
    <rect class="cls-5" x="286.51" y="53.49" width="13.85" height="305.64"/>
    <path class="cls-6" d="M299.87,53.99v304.64h-12.85V53.99h12.85M300.87,52.99h-14.85v306.64h14.85V52.99h0Z"/>
  </g>
  <g>
    <path class="cls-1" d="M300.87,359.63h13.42c3.43,0,6.22-2.78,6.22-6.22v-31.71h-19.64v37.93Z"/>
    <path class="cls-1" d="M300.87,52.99v140.01h19.64V58.19c0-2.87-2.33-5.21-5.21-5.21h-14.43Z"/>
  </g>
  <g>
    <path class="cls-1" d="M286.01,193V52.99H108.43c-6.88,0-12.46,5.58-12.46,12.46v127.55h190.04Z"/>
    <path class="cls-1" d="M95.97,321.7v30.98c0,3.84,3.11,6.95,6.95,6.95h183.09v-37.93H95.97Z"/>
  </g>
  <g>
    <path class="cls-5" d="M126.77,210.61v76.17h-12.55v-76.17h12.55Z"/>
    <path class="cls-5" d="M170.8,287.93c-6.04,0-11.32-1.23-15.82-3.68-4.51-2.45-8-5.89-10.49-10.3-2.49-4.41-3.74-9.57-3.74-15.47s1.24-11.11,3.74-15.55c2.49-4.44,5.99-7.88,10.49-10.34,4.5-2.45,9.78-3.68,15.82-3.68s11.32,1.23,15.82,3.68c4.51,2.45,8,5.9,10.49,10.34,2.49,4.44,3.74,9.62,3.74,15.55s-1.25,11.06-3.74,15.47c-2.49,4.41-5.99,7.85-10.49,10.3-4.5,2.45-9.78,3.68-15.82,3.68ZM170.84,278.6c3.92,0,7.16-.92,9.74-2.75,2.57-1.83,4.48-4.28,5.73-7.33,1.24-3.05,1.87-6.41,1.87-10.08s-.62-7-1.87-10.06c-1.25-3.06-3.15-5.52-5.73-7.38-2.57-1.86-5.82-2.79-9.74-2.79s-7.21.93-9.8,2.79c-2.59,1.86-4.51,4.32-5.75,7.38-1.25,3.06-1.87,6.42-1.87,10.06s.62,7.03,1.87,10.08c1.24,3.05,3.16,5.49,5.75,7.33,2.59,1.84,5.86,2.75,9.8,2.75Z"/>
    <path class="cls-5" d="M241.85,309.39c-5.12,0-9.52-.6-13.2-1.79-3.68-1.19-6.68-2.76-9-4.72-2.32-1.96-4.06-4.1-5.2-6.43l10.79-3.94c.76,1.09,1.77,2.25,3.04,3.48,1.27,1.23,3.01,2.27,5.2,3.14,2.2.87,5.03,1.3,8.5,1.3,4.76,0,8.69-1.02,11.79-3.07,3.1-2.05,4.66-5.3,4.66-9.76v-11.23h-.8c-.76,1.22-1.84,2.57-3.25,4.05-1.41,1.49-3.35,2.78-5.81,3.87-2.46,1.09-5.67,1.64-9.61,1.64-5.09,0-9.67-1.06-13.75-3.18-4.07-2.12-7.29-5.26-9.65-9.41-2.36-4.15-3.55-9.27-3.55-15.34s1.17-11.28,3.5-15.62,5.55-7.67,9.63-9.99c4.08-2.32,8.71-3.48,13.89-3.48,4,0,7.23.59,9.7,1.77,2.46,1.18,4.39,2.55,5.77,4.11,1.39,1.56,2.45,2.94,3.21,4.13h.92v-9.26h12.3v58.39c0,4.91-1.29,8.94-3.86,12.09-2.57,3.15-6.05,5.48-10.43,6.99-4.38,1.51-9.31,2.27-14.79,2.27ZM241.73,276.7c3.61,0,6.67-.75,9.17-2.25,2.5-1.5,4.41-3.66,5.71-6.47s1.95-6.19,1.95-10.13-.64-7.23-1.93-10.15-3.18-5.21-5.67-6.86c-2.49-1.65-5.57-2.47-9.23-2.47s-6.93.86-9.44,2.59c-2.52,1.72-4.41,4.06-5.69,7.01-1.27,2.95-1.91,6.25-1.91,9.89s.64,7.03,1.93,9.86c1.29,2.83,3.2,5.03,5.73,6.62,2.53,1.59,5.66,2.38,9.38,2.38Z"/>
  </g>
</svg>