<?xml version="1.0" encoding="UTF-8"?>
<svg id="xisf" xmlns="http://www.w3.org/2000/svg" viewBox="0 0 400 400">
  <defs>
    <style>
      .cls-1 {
        opacity: .8;
      }

      .cls-1, .cls-2 {
        isolation: isolate;
      }

      .cls-1, .cls-2, .cls-3, .cls-4 {
        stroke-width: 0px;
      }

      .cls-1, .cls-4 {
        fill: #fff;
      }

      .cls-2 {
        fill: #000;
        opacity: .5;
      }

      .cls-3 {
        fill: #7c520f;
      }
    </style>
  </defs>
  <path class="cls-3" d="M315,0h-170L45,100v260c0,22.09,17.91,40,40,40h230c22.09,0,40-17.91,40-40V40c0-22.09-17.91-40-40-40Z"/>
  <path class="cls-2" d="M45,100L145,0v60c0,22.09-17.91,40-40,40h-60Z"/>
  <path class="cls-1" d="M178.76,112.83l-14.68,3.36c-2.49.58-2.85,3.97-.51,5.02l13.72,6.24c25.11,11.42,43.43,33.93,49.54,60.8l3.36,14.68c.58,2.49,3.97,2.85,5.02.51l6.24-13.72c11.42-25.11,33.93-43.43,60.8-49.54l14.68-3.36c2.49-.58,2.85-3.97.51-5.02l-13.72-6.24c-25.11-11.42-43.43-33.93-49.54-60.8l-3.36-14.68c-.58-2.49-3.97-2.85-5.02-.51l-6.24,13.72c-11.42,25.11-33.93,43.43-60.8,49.54Z"/>
  <path class="cls-1" d="M137.12,190.14l-5.56,3.21c-.93.55-.64,1.96.42,2.12l6.36.83c11.66,1.51,21.91,8.39,27.79,18.57l3.21,5.56c.55.93,1.96.64,2.12-.42l.84-6.36c1.51-11.66,8.39-21.91,18.57-27.79l5.56-3.21c.93-.55.64-1.96-.42-2.12l-6.36-.84c-11.66-1.51-21.91-8.39-27.79-18.57l-3.21-5.56c-.55-.93-1.96-.68-2.12.42l-.84,6.36c-1.51,11.66-8.39,21.91-18.57,27.79h0Z"/>
  <path class="cls-4" d="M144.25,349l-12.35-15.84-12.35,15.84h-21.09l22.37-28.19-22.14-30.06h20.74l12.35,17.01,12.35-17.01h20.97l-22.14,30.06,22.25,28.19h-20.97Z"/>
  <path class="cls-4" d="M181.42,284.81c-2.95,0-5.52-1.07-7.69-3.2-2.18-2.14-3.26-4.72-3.26-7.75s1.09-5.61,3.26-7.75c2.17-2.13,4.74-3.2,7.69-3.2,3.11,0,5.73,1.07,7.86,3.2,2.14,2.14,3.2,4.72,3.2,7.75s-1.07,5.61-3.2,7.75c-2.14,2.14-4.76,3.2-7.86,3.2ZM172.68,349v-58.25h17.59v58.25h-17.59Z"/>
  <path class="cls-4" d="M225.45,350.28c-8.86,0-16.39-1.71-22.6-5.13v-17.01c7.38,4.74,14.56,7.11,21.55,7.11,6.13,0,9.2-1.24,9.2-3.73,0-1.94-2.21-3.18-6.64-3.73l-5.82-.82c-12.66-1.71-18.99-8.08-18.99-19.11,0-5.36,2.19-9.77,6.58-13.22,4.39-3.46,10.19-5.18,17.42-5.18s13.9,1.4,19.81,4.19v16.43c-5.9-4.04-12.2-6.06-18.87-6.06-5.44,0-8.16,1.17-8.16,3.5,0,1.94,2.13,3.19,6.41,3.73l5.12.7c7.22,1.01,12.43,3.03,15.61,6.06,3.19,3.03,4.78,7.38,4.78,13.05s-2.23,10.49-6.7,13.98c-4.47,3.5-10.7,5.24-18.7,5.24Z"/>
  <path class="cls-4" d="M267.28,349v-42.99h-11.65v-15.26h11.65v-1.63c0-7.15,2.17-12.74,6.52-16.78,4.35-4.04,9.9-6.06,16.66-6.06h10.72v15.84h-7.57c-3.11,0-5.34.58-6.7,1.75-1.36,1.17-2.04,3.19-2.04,6.06v.82h16.31v15.26h-16.31v42.99h-17.59Z"/>
</svg>