<?xml version="1.0" encoding="UTF-8"?>
<svg id="Rule_set" data-name="Rule set" xmlns="http://www.w3.org/2000/svg" viewBox="0 0 400 400">
  <defs>
    <style>
      .cls-1 {
        fill: #000;
        isolation: isolate;
        opacity: .5;
      }

      .cls-1, .cls-2 {
        stroke-width: 0px;
      }

      .cls-2 {
        fill: #25538a;
      }
    </style>
  </defs>
  <path class="cls-2" d="M326.04,0h-190.49L23.5,100v260c0,22.09,20.07,40,44.82,40h257.72c24.75,0,44.82-17.91,44.82-40V40c0-22.09-20.07-40-44.82-40ZM184,277.17h-72c-6.08,0-11-4.92-11-11s4.92-11,11-11h72c6.08,0,11,4.92,11,11s-4.92,11-11,11ZM184,184.17h-72c-6.08,0-11-4.92-11-11s4.92-11,11-11h72c6.08,0,11,4.92,11,11s-4.92,11-11,11ZM283.84,285.1c4.27,4.27,4.27,11.19,0,15.46-4.27,4.27-11.19,4.27-15.46,0l-18.92-18.92-18.92,18.92c-4.27,4.27-11.19,4.27-15.46,0-4.27-4.27-4.27-11.19,0-15.46l18.92-18.92-18.92-18.92c-4.27-4.27-4.27-11.19,0-15.46,4.27-4.27,11.19-4.27,15.46,0l18.92,18.92,18.92-18.92c4.27-4.27,11.19-4.27,15.46,0,4.27,4.27,4.27,11.19,0,15.46l-18.92,18.92,18.92,18.92ZM295.8,153.66l-42.96,42.96c-1.71,1.71-3.85,2.74-6.07,3.08-3.4.61-7.04-.4-9.67-3.03l-22.01-22.01c-4.27-4.27-4.27-11.19,0-15.46,4.27-4.27,11.19-4.27,15.46,0l14.4,14.4,35.39-35.39c4.27-4.27,11.19-4.27,15.46,0,4.27,4.27,4.27,11.19,0,15.46Z"/>
  <path class="cls-1" d="M23.5,100L135.55,0v60c0,22.09-20.07,40-44.82,40H23.5Z"/>
</svg>