<?xml version="1.0" encoding="UTF-8"?>
<svg id="Comète" xmlns="http://www.w3.org/2000/svg" viewBox="0 0 400 400">
  <defs>
    <style>
      .cls-1 {
        fill: #8cb3d5;
        fill-rule: evenodd;
      }

      .cls-1, .cls-2, .cls-3, .cls-4 {
        stroke-width: 0px;
      }

      .cls-2 {
        fill: #99c4e9;
      }

      .cls-3 {
        isolation: isolate;
        opacity: .5;
      }

      .cls-3, .cls-4 {
        fill: #fff;
      }
    </style>
  </defs>
  <path class="cls-1" d="M35.93,239.09c.7-1.3,1.59-2.52,2.66-3.64L259.64,5.14c6.39-6.66,16.98-6.88,23.64-.48,6.66,6.39,7.14,17.25.75,23.91l-33.25,34.64h0l-44.33,46.19c-4.65,4.85-4.5,12.55.35,17.21,4.85,4.65,12.55,4.5,17.21-.35l43.84-45.67h0c6.19-3.77,14.81-2.62,20.28,2.63,6.52,6.26,6.73,16.62.47,23.13l-39.01,40.64-.02.12-60,62.51c-4.71,4.9-4.55,12.69.36,17.4,4.9,4.71,12.69,4.55,17.4-.36l36.21-37.72v.06s125.71-130.98,125.71-130.98c5.19-5.41,13.78-5.58,19.19-.39,5.41,5.19,5.58,13.78.39,19.19l-122.16,127.27c-2.09,3.3-1.64,7.72,1.29,10.53,3.27,3.14,8.42,3.1,11.64-.02l9.97-10.39c5.48-5.71,14.56-5.9,20.27-.42,5.71,5.48,5.9,14.56.42,20.27l-129.86,135.3c-17.18,24.19-45.69,40.02-77.96,40.02-52.48,0-95.03-41.86-95.03-93.5,0-26.17,10.92-49.82,28.53-66.79Z"/>
  <path class="cls-2" d="M102.43,399.38c52.48,0,95.03-41.86,95.03-93.5,0-51.64-42.55-93.5-95.03-93.5S7.4,254.24,7.4,305.88c0,51.64,42.55,93.5,95.03,93.5Z"/>
  <path class="cls-3" d="M102.43,372.38c37.33,0,67.59-29.77,67.59-66.5,0-36.73-30.26-66.5-67.59-66.5s-67.59,29.77-67.59,66.5c0,36.73,30.26,66.5,67.59,66.5Z"/>
  <path class="cls-4" d="M102.43,344.38c21.61,0,39.13-17.24,39.13-38.5,0-21.26-17.52-38.5-39.13-38.5s-39.13,17.24-39.13,38.5c0,21.26,17.52,38.5,39.13,38.5Z"/>
</svg>