<?xml version="1.0" encoding="UTF-8"?>
<svg id="Lune" xmlns="http://www.w3.org/2000/svg" viewBox="0 0 400 400">
  <defs>
    <style>
      .cls-1 {
        fill: #c6c3c3;
      }

      .cls-1, .cls-2, .cls-3, .cls-4, .cls-5 {
        stroke-width: 0px;
      }

      .cls-2 {
        fill: none;
      }

      .cls-3 {
        fill: #e0dede;
      }

      .cls-4 {
        fill: #1e1e1c;
        isolation: isolate;
        opacity: .4;
      }

      .cls-5 {
        fill: #aeacad;
      }
    </style>
  </defs>
  <rect class="cls-2" width="400" height="400"/>
  <path class="cls-3" d="M216.5,399.23c110.07-9.11,191.92-105.7,182.82-215.73C390.21,73.45,293.6-8.37,183.53.74,73.46,9.84-8.39,106.43.71,216.47c9.11,110.04,105.72,191.86,215.79,182.76Z"/>
  <path class="cls-5" d="M240.76,211.53c8.18-.68,14.27-7.86,13.59-16.04-.68-8.18-7.86-14.27-16.04-13.59-8.19.68-14.27,7.86-13.59,16.04.68,8.18,7.86,14.27,16.04,13.59Z"/>
  <path class="cls-1" d="M127.09,271.68c8.18-.68,14.27-7.86,13.59-16.04-.68-8.18-7.86-14.27-16.04-13.59-8.19.68-14.27,7.86-13.59,16.04.68,8.18,7.86,14.27,16.04,13.59Z"/>
  <path class="cls-1" d="M85.97,99.67c5.78-.48,10.09-5.56,9.61-11.34-.48-5.78-5.56-10.09-11.34-9.61-5.78.48-10.09,5.56-9.61,11.34.48,5.78,5.56,10.09,11.34,9.61Z"/>
  <path class="cls-1" d="M66.67,271.77c5.78-.48,10.09-5.56,9.61-11.34-.48-5.78-5.56-10.09-11.34-9.61-5.78.48-10.09,5.56-9.61,11.34.48,5.78,5.56,10.09,11.34,9.61Z"/>
  <path class="cls-5" d="M306.48,268.04c13.04-1.08,22.74-12.52,21.66-25.56-1.08-13.04-12.52-22.73-25.56-21.65-13.04,1.08-22.73,12.52-21.66,25.56,1.08,13.04,12.52,22.73,25.56,21.65Z"/>
  <path class="cls-1" d="M63.64,212.29c13.04-1.08,22.74-12.52,21.66-25.56-1.08-13.04-12.52-22.73-25.56-21.65-13.04,1.08-22.73,12.52-21.66,25.56,1.08,13.04,12.52,22.73,25.56,21.65Z"/>
  <path class="cls-5" d="M185.23,359.3c22.29-1.84,38.86-21.4,37.01-43.68-1.84-22.28-21.4-38.84-43.69-37-22.29,1.84-38.86,21.4-37.01,43.68,1.84,22.28,21.4,38.85,43.69,37Z"/>
  <path class="cls-5" d="M229.16,168.72c41.06-3.4,71.74-37.53,68.54-76.25-3.2-38.71-39.08-67.34-80.14-63.94s-71.74,37.53-68.54,76.25c3.2,38.71,39.08,67.34,80.14,63.94Z"/>
  <path class="cls-5" d="M347.28,199.2c15.24-2.54,24.69-22.04,21.1-43.56-3.58-21.52-18.84-36.92-34.08-34.38-15.24,2.54-24.69,22.04-21.1,43.56,3.58,21.52,18.84,36.91,34.08,34.38Z"/>
  <path class="cls-4" d="M134.48,245.88c-51.36-73.36-46.62-169.19,5.23-236.6-18.93,5.99-37.28,14.91-54.41,26.9C-5.18,99.52-27.17,224.22,36.19,314.7c63.36,90.47,188.07,112.46,278.56,49.12,17.13-11.99,31.79-26.19,43.89-41.93-81.08,25.66-172.77-2.66-224.15-76.01h-.01Z"/>
</svg>