<?xml version="1.0" encoding="UTF-8"?>
<svg id="Pluton" xmlns="http://www.w3.org/2000/svg" viewBox="0 0 400 400">
  <defs>
    <style>
      .cls-1 {
        fill: #cfaa88;
      }

      .cls-1, .cls-2, .cls-3 {
        stroke-width: 0px;
      }

      .cls-2 {
        fill: #e1c0a2;
        fill-rule: evenodd;
      }

      .cls-3 {
        fill: #1e1e1c;
        isolation: isolate;
        opacity: .2;
      }
    </style>
  </defs>
  <path class="cls-1" d="M200,343.92c79.52,0,143.98-64.45,143.98-143.96S279.51,56,200,56,56.02,120.45,56.02,199.96s64.46,143.96,143.98,143.96Z"/>
  <path class="cls-2" d="M283.99,158.98c9.5,0,22-6.5,32.5-6.5,12,0,27,26,26.5,32.5,4.5,42-10,69.5-14,79-9.5,19.5-18.5,27.5-25,35.5-10.5,12-28.5,23.5-39,29-11.02,6.29-24.72-9.19-33.37-19.46-9.48-11.24.91-37.91-5.43-53.25-5.79-13.97-26.1-9.56-27.45-26.17-1.29-15.82,20.55-31.37,27.45-44.63,5.85-11.23-4.69-34.67,10.88-42.04,20.43-9.68,32.43,16.04,46.93,16.04Z"/>
  <path class="cls-3" d="M152.83,233.01c-36.98-52.81-33.57-121.81,3.77-170.35-13.63,4.31-26.84,10.73-39.18,19.37-65.15,45.61-80.98,135.39-35.37,200.54,45.62,65.14,135.4,80.97,200.56,35.36,12.33-8.63,22.89-18.86,31.6-30.19-58.38,18.47-124.39-1.91-161.38-54.73Z"/>
</svg>