<?xml version="1.0" encoding="UTF-8"?>
<svg id="Exoplanète" xmlns="http://www.w3.org/2000/svg" viewBox="0 0 400 400">
  <defs>
    <style>
      .cls-1 {
        fill: none;
      }

      .cls-1, .cls-2, .cls-3, .cls-4, .cls-5, .cls-6 {
        stroke-width: 0px;
      }

      .cls-2 {
        fill: #1e1e1c;
        isolation: isolate;
        opacity: .2;
      }

      .cls-3 {
        fill: #a98055;
      }

      .cls-4 {
        fill: #e2c9b0;
      }

      .cls-5 {
        fill: #def5ff;
      }

      .cls-6 {
        fill: #c29d78;
      }
    </style>
  </defs>
  <rect class="cls-1" x=".45" y=".01" width="399.55" height="399.96"/>
  <path class="cls-6" d="M379.74,286.86c-31.03,64.35-95.64,109.9-171.95,112.97-76.31,3.07-144.36-37.13-180.45-98.78,54.73,22.12,114.93,33.22,177.72,30.7,62.79-2.52,121.9-18.44,174.69-44.89h0Z"/>
  <path class="cls-3" d="M293.87,39.85c.96,24.12-43.19,45.51-98.62,47.74-55.43,2.23-101.19-15.54-102.16-39.66-.46-11.34,9-22.03,24.91-30.46C134.96,8.5,159.24,2.15,186.59.45c1.71-.1,3.42-.19,5.16-.26,1.75-.07,3.45-.11,5.17-.15,27.41-.51,52.11,3.88,69.73,11.46h.03c16.48,7.11,26.76,17.05,27.22,28.36h-.02Z"/>
  <path class="cls-4" d="M399.38,191.97h0c-.14-3.42-.36-6.84-.67-10.24,0,0-.01,0-.02,0,0,0,0,0,0-.01h0c-2.05-22.54-7.79-43.95-16.6-63.6-55.68,30.12-118.93,48.3-186.43,51.02-65.62,2.65-128.34-9.58-185.01-33.75C3.64,155.96-.11,177.95,0,200.76c0,0,0,.01,0,.02,0,2.43.04,4.85.15,7.27.79,19.69,4.41,38.62,10.43,56.36,58.04,25.65,122.68,38.78,190.36,36.05,70.32-2.83,136.02-22.46,193.38-54.85v-.03c4.01-17.17,5.8-35.14,5.05-53.61Z"/>
  <path class="cls-5" d="M382.11,118.13c-55.68,30.12-118.93,48.3-186.43,51.02-65.62,2.65-128.34-9.59-185.01-33.75,4.04-11.86,9.15-23.22,15.26-33.95,52.35,25.49,110.52,38.63,171.34,36.19,60.83-2.45,117.75-20.24,167.89-49.88,6.5,9.54,12.16,19.69,16.96,30.37h0Z"/>
  <path class="cls-6" d="M365.14,87.76c-50.13,29.64-107.06,47.43-167.89,49.88-60.83,2.45-118.99-10.71-171.34-36.19,20.86-36.81,53.08-66.44,92.08-83.97-15.91,8.41-25.36,19.12-24.91,30.46.97,24.12,46.72,41.89,102.16,39.66,55.44-2.23,99.59-23.63,98.62-47.74-.46-11.31-10.73-21.24-27.22-28.35,40.25,14.33,74.74,41.28,98.49,76.26h.01Z"/>
  <path class="cls-5" d="M311.9,281.29c.47-3.14.31-5.87.29-8.16-.06-6.28-6.09-16.78-15.86-22.06-9.77-5.28-19.32-7.7-35.24-5.99-16.71,1.8-29.56,11.97-29.56,11.97-15.85,12.17-12.79,28.12-12.79,28.12.77,6.91,4.67,12.16,5.9,13.68-7.83.74-15.73,1.29-23.69,1.61-67.66,2.73-132.31-10.4-190.36-36.05,2.5,7.36,5.41,14.54,8.72,21.49,2.44,5.16,5.12,10.23,8.03,15.15,54.73,22.12,114.93,33.22,177.72,30.7,62.79-2.53,121.91-18.44,174.69-44.89,2.51-5.13,4.78-10.39,6.79-15.74,3.16-8.28,5.76-16.79,7.81-25.51-25.9,14.62-53.49,26.63-82.44,35.68Z"/>
  <path class="cls-3" d="M267.82,297.58c16.46-2.12,28.74-12.08,27.43-22.26-1.31-10.18-15.71-16.71-32.17-14.59-16.46,2.12-28.74,12.08-27.43,22.26,1.31,10.18,15.71,16.71,32.17,14.59Z"/>
  <path class="cls-2" d="M134.77,245.88c-51.3-73.35-46.57-169.18,5.22-236.6-18.91,5.99-37.24,14.91-54.35,26.9C-4.73,99.54-26.7,224.23,36.58,314.71c63.29,90.47,187.85,112.46,278.24,49.12,17.11-11.99,31.75-26.19,43.84-41.93-80.99,25.66-172.57-2.66-223.89-76.01Z"/>
</svg>