<?xml version="1.0" encoding="UTF-8"?>
<svg id="Mercure" xmlns="http://www.w3.org/2000/svg" viewBox="0 0 400 400">
  <defs>
    <style>
      .cls-1 {
        fill: #7b7b7b;
      }

      .cls-1, .cls-2, .cls-3, .cls-4 {
        stroke-width: 0px;
      }

      .cls-2 {
        fill: #a4a2a2;
      }

      .cls-3 {
        fill: #1e1e1c;
        isolation: isolate;
        opacity: .2;
      }

      .cls-4 {
        fill: #8a8a8a;
      }
    </style>
  </defs>
  <path class="cls-4" d="M200,400c110.46,0,200-89.54,200-200S310.46,0,200,0,0,89.54,0,200s89.54,200,200,200Z"/>
  <path class="cls-1" d="M118.76,382.81c1.27-2.76.57-6.02,1.27-8.9,2.14-8.73,8.14-14.81,14.28-20.7,5.22-5.02,9.6-10.48,12.71-17.04,5.33-11.25,4.45-20.04-4.65-28.63-10.4-9.82-11.52-19.09-2.24-31.23,3.65-4.79,7.84-9.13,13.07-11.95,10.1-5.46,17.11-13.79,23.7-22.79,5.59-7.64,11.79-14.8,20.24-19.55,14.21-7.98,28.77-5.44,42.11,4.05,8.77,6.23,15.65,14.41,23.73,21.35,5.25,4.51,5.53,10.47,1.19,17.48-2.13,3.44-4.38,6.85-6.88,10.03-6.36,8.11-5.46,16.83-2.41,25.69.91,2.64,2.46,5.08,3.9,7.5,2.08,3.48,5.54,4.59,9.39,3.36,9.93-3.2,19.04-8.27,28.57-12.39,4.57-1.98,6.75-6.12,6.72-11.14-.06-9.43,2.67-17.66,9.78-24.31,3.59-3.36,7.71-4.45,11.93-2.42,20.57,9.92,36.85,23.84,42.89,46.93-3.78,7.84-9.55,14.33-15.1,20.87-19.11,22.52-42.19,39.9-69.04,52.46-18.91,8.84-38.81,14.37-59.33,16.92-35.78,4.44-70.49-.38-103.72-14.52-.73-.31-1.43-.64-2.1-1.07h0Z"/>
  <path class="cls-1" d="M77.97,41.8c1.67.11,3.19.47,4.37.66,11.42,1.79,16.76,13.39,10.89,23.47-4.81,8.25-12.55,13.06-20.78,16.68-15.59,6.87-25.5,18.96-32.34,33.95-4.7,10.28-1.29,16.92,9.6,19.9,6.4,1.75,12.11,1.27,17.57-3.59,11.17-9.95,25.57-9.03,37.62,1.72,3.44,3.07,6.59,6.35,8.47,10.72,2.08,4.86,1.24,8.78-2.72,12.35-6.84,6.16-15.21,9.69-23.46,13.17-9.05,3.8-12.38,10.5-12.13,19.79.2,7.48-4.45,13.26-13.85,16.96-5.23,2.06-10.61,3.74-15.9,5.71-4.48,1.66-8.84,4.05-11.65,7.76-7.89,10.41-18.84,13.52-31.18,10.54C-.12,215.39-.58,199.2.75,182.91c2.11-25.77,9.44-50.29,20.92-73.33,8.84-17.75,20.21-33.63,34.01-47.85,7.03-7.25,13.9-14.24,22.29-19.93h0Z"/>
  <path class="cls-1" d="M399.83,208.43c-13.35-3.28-26.83-8.06-39.08-14.41-9.77-5.07-15.4-13.53-19.22-23.45-2.3-5.99-4.71-11.95-6.92-17.98-3.63-9.94-10.38-16.48-20.35-20.3-7.39-2.83-14.44-6.58-21.59-10.01-3.32-1.59-5.98-4.13-8.49-6.74-4.78-4.93-4-10.56-1.3-16.04,6.16-12.51,18.01-18.23,31.81-15.73,4.38.8,8.76,1.52,13.17,2.07,8.89,1.11,17.88-7.2,17.63-16.21-.05-2.01.33-4.58.25-6.58,6.17,6.34,12.41,14.34,17.89,21.93,10.13,14.64,18.57,30.56,24.67,47.48,5.46,15.18,8.78,30.89,10.46,46.95.99,9.41,1.53,19.26,1.08,29.04h0Z"/>
  <path class="cls-2" d="M269.36,12.35c-1.46,11.97-11.07,16.61-20.67,19.23-14.8,4.03-28.06,10.53-40.32,19.77-7.97,6-17.36,8.13-27.59,6.56-7.4-1.14-12.47-5.09-16-11.19-5.38-9.31-11.74-9.34-20.8-6.42-4.59,1.48-8.96,3.53-13.97,3.72-12.83.49-19-10.79-18.11-20.56.09-.94.36-2.42.44-3.36,8.32-4.11,13.91-6.03,21.18-8.78,10.52-3.96,20.71-6.15,31.71-8.32,25-3.91,47.49-4.08,70.87.24,11.16,2.07,20.31,4.55,33.25,9.1h0Z"/>
  <path class="cls-2" d="M13.64,273.02c11.71-1.63,23.28-1.49,34.97-.48,4.61.4,9.07,1.41,13.36,3.18,4.78,1.97,8.76,5.06,11.21,9.48,3.56,6.41,6.7,13.08,9.75,19.76,1.16,2.54.2,5.26-.8,7.8-2.11,5.38-4.89,10.45-7.54,15.58-3.68,7.16-5.82,15.06-5.14,23.18-6.06-5.1-10.92-10.06-16.05-15.47-16.36-17.27-28.37-36.67-37.75-58.4-.63-1.45-1.6-3.09-2.01-4.64Z"/>
  <path class="cls-1" d="M253.78,109.59c.87,2.45,1.17,5.7.55,8.58-1.62,7.55,2.39,12.53,7.03,17.31,4.27,4.41,9.11,8.26,12.76,13.27,3.73,5.13,2.91,8.85-2.59,12.24-4.73,2.91-9.83,4.03-15.32,3.85-4.8-.16-9.6-.34-14.4-.26-6.42.12-11.87,2.46-16.54,7.04-9.91,9.7-19.75,8.54-27.8-2.82-4.48-6.33-9.46-12.29-13.86-18.67-8.55-12.42-6.56-24.17,5.31-33.33,5.78-4.47,12.27-7.53,19.2-9.71,6.06-1.92,11.43-5.12,16.59-8.74,1.2-.85,2.45-1.63,3.72-2.36,11.22-6.48,22.31-1.36,24.94,11.52.1.53.21,1.05.42,2.11h-.01Z"/>
  <path class="cls-2" d="M325.03,199c1.94,6.92-.64,12.67-6.89,17.35-5.2,3.89-10.82,6.86-17.01,8.59-4.95,1.39-9.74.8-14.1-2.3-5.4-3.84-9.13-8.94-11.1-15.13-2.82-8.91,1.71-18.73,10.77-24.21,10.27-6.22,27.59-2.91,34.79,6.65,2,2.66,2.56,4.03,3.54,9.04h0Z"/>
  <path class="cls-2" d="M78.15,243.83c-.69-4.33.61-11.12,5.94-16.64,2.75-2.85,6.19-3.99,10.04-3.25,5.02.97,10.1,1.8,14.05,5.85,1.7,1.74,2.92,3.7,2.93,6.1.02,8.21-1.92,15.85-7.99,21.28-8.26,7.4-22.06,1.5-24.95-13.34h-.01Z"/>
  <path class="cls-2" d="M157.75,94.79c1.44,7.4-6.1,16.12-15.58,18-8.37,1.65-17.45-4.19-18.95-12.21-1.45-7.82,5.22-17.63,13.05-19.21,8.91-1.79,19.84,5.03,21.47,13.42Z"/>
  <path class="cls-2" d="M377.62,243.68c1.42,4.35.77,8.51-1.17,12.53-2.83,5.87-9.26,9.13-15.37,7.82-6.4-1.37-10.09-6.11-10.1-13.2-.01-4.48,1.05-8.8,2.81-12.9,1.89-4.42,6.69-7.18,11.42-6.84,5.6.4,10.08,3.84,11.7,9.04.36,1.15.49,2.37.72,3.54Z"/>
  <path class="cls-2" d="M295.77,55.75c.95,4.71-1.96,9.69-6.25,10.68-4.88,1.13-13.93-4.92-15.02-10.01-.92-4.3,2.3-8.86,6.9-9.76,6.58-1.3,13.11,2.84,14.37,9.1Z"/>
  <path class="cls-2" d="M101.04,356.09c-6.25,1.23-12.49-2.96-13.75-9.23-.99-4.93,2.06-9.91,6.58-10.73,4.86-.87,12.77,5.28,13.81,10.78.86,4.53-1.82,8.24-6.64,9.19h0Z"/>
  <path class="cls-3" d="M134.46,245.92c-51.35-73.28-46.14-169.53,5.7-236.88-18.93,5.98-38.45,15.15-54.87,27.39C-5.18,99.71-27.16,224.29,36.18,314.68c63.35,90.38,188.03,112.35,278.5,49.07,17.13-11.98,31.78-26.16,43.88-41.88-81.07,25.63-172.74-2.66-224.1-75.94Z"/>
</svg>