<?xml version="1.0" encoding="UTF-8"?>
<svg id="Calque_1" data-name="Calque 1" xmlns="http://www.w3.org/2000/svg" viewBox="0 0 425.02 90">
  <defs>
    <style>
      .cls-1 {
        fill: #5fb7f5;
      }

      .cls-1, .cls-2, .cls-3 {
        stroke-width: 0px;
      }

      .cls-2 {
        fill: #011d50;
      }

      .cls-3 {
        fill: #fff;
      }
    </style>
  </defs>
  <path class="cls-3" d="M135.47,54.18h-14.21l-2.39,4.82h-7.68l13.34-25.49h7.68l13.34,25.49h-7.68l-2.39-4.82ZM123.73,49.2h9.31l-4.64-9.39-4.68,9.39ZM173.18,39.28c-.19-.06-.46-.14-.82-.24-.35-.11-.75-.22-1.22-.32-.47-.11-.99-.2-1.56-.28-.56-.07-1.13-.11-1.73-.11-1.24,0-2.39.15-3.47.46-1.06.3-2.06.7-2.99,1.21-.93.5-1.79,1.06-2.6,1.71-.79.63-1.52,1.28-2.19,1.95v15.35h-6.88v-25.49h6.88v4.14c.83-.62,1.68-1.21,2.54-1.78.88-.58,1.79-1.09,2.73-1.54.95-.44,1.95-.8,3.01-1.06,1.05-.27,2.17-.41,3.34-.41.45,0,.9.02,1.35.07.47.04.92.09,1.36.15.45.06.86.13,1.24.2.38.07.72.15,1,.22v5.77ZM205.65,57.26c-.89.37-1.79.71-2.69,1-.9.3-1.84.55-2.8.76-.96.22-1.98.39-3.06.5-1.06.11-2.21.17-3.43.17-2.6,0-4.99-.28-7.18-.83-2.18-.56-4.06-1.39-5.64-2.51-1.57-1.13-2.8-2.52-3.67-4.19-.88-1.68-1.32-3.64-1.32-5.88s.44-4.19,1.32-5.86c.88-1.68,2.1-3.08,3.67-4.19,1.58-1.13,3.46-1.97,5.64-2.52,2.19-.56,4.58-.83,7.18-.83,1.22,0,2.37.06,3.43.17,1.08.11,2.1.28,3.06.5.96.21,1.9.46,2.8.76.9.3,1.8.63,2.69,1v6.2c-.71-.38-1.45-.76-2.23-1.13-.78-.38-1.64-.72-2.58-1.02-.94-.31-1.97-.56-3.1-.74-1.12-.2-2.39-.3-3.8-.3-2.16,0-3.96.22-5.4.67-1.42.44-2.56,1.04-3.41,1.78-.85.74-1.45,1.6-1.8,2.56-.35.95-.52,1.94-.52,2.97,0,.68.07,1.36.22,2.02.15.66.4,1.28.74,1.87.35.58.8,1.12,1.36,1.61s1.25.92,2.08,1.28c.83.36,1.79.64,2.89.85,1.11.2,2.39.3,3.84.3s2.68-.09,3.8-.26c1.13-.18,2.16-.43,3.1-.72.94-.3,1.8-.63,2.58-1,.78-.38,1.52-.77,2.23-1.17v6.2ZM235.56,40.69c-.48-.24-1.12-.5-1.91-.8-.79-.3-1.69-.58-2.69-.83-1-.27-2.09-.5-3.27-.67-1.17-.19-2.38-.28-3.62-.28-.99,0-1.84.03-2.54.09-.69.06-1.28.14-1.76.24-.47.1-.85.22-1.13.35-.27.12-.48.25-.63.39-.15.14-.25.27-.3.41-.04.14-.06.26-.06.37,0,.37.19.7.56.98.37.27.88.52,1.52.74.64.21,1.39.41,2.25.61.85.18,1.76.38,2.71.59.96.2,1.95.42,2.97.67,1.03.24,2.02.51,2.97.84.96.32,1.87.7,2.73,1.13.85.42,1.6.92,2.24,1.49.64.57,1.15,1.22,1.52,1.97.37.74.56,1.59.56,2.54,0,1.22-.22,2.28-.65,3.15-.43.88-1.01,1.62-1.74,2.23-.72.61-1.55,1.1-2.51,1.47-.95.36-1.95.64-3,.83-1.04.2-2.1.33-3.17.39-1.06.06-2.08.09-3.04.09-2.52,0-4.86-.21-7.01-.63-2.14-.41-4.03-.92-5.68-1.54v-6.09c1.7.94,3.62,1.68,5.79,2.21,2.18.53,4.5.8,6.98.8,1.46,0,2.65-.08,3.56-.22.93-.16,1.65-.36,2.17-.59.52-.25.87-.51,1.06-.8.19-.28.28-.56.28-.82,0-.41-.19-.76-.56-1.06-.37-.31-.88-.58-1.52-.8-.64-.24-1.39-.45-2.25-.63-.85-.2-1.76-.39-2.73-.58-.95-.2-1.94-.41-2.95-.63-1.01-.22-2-.48-2.97-.78-.95-.31-1.86-.66-2.71-1.06-.85-.41-1.6-.88-2.25-1.43-.64-.56-1.15-1.19-1.52-1.91-.37-.73-.56-1.57-.56-2.52,0-1.12.2-2.1.59-2.91.4-.82.93-1.51,1.6-2.08.68-.58,1.46-1.05,2.34-1.41.89-.36,1.82-.64,2.8-.83.98-.2,1.97-.33,2.97-.41,1-.07,1.95-.11,2.86-.11.99,0,2,.05,3.04.15,1.05.1,2.08.24,3.1.43,1.02.17,1.99.38,2.93.61.95.24,1.83.48,2.64.74v5.9ZM272.63,57.74c-2.09.69-4.18,1.19-6.27,1.49-2.08.31-4.2.46-6.38.46-2.78,0-5.26-.3-7.44-.89-2.17-.61-3.99-1.48-5.47-2.62-1.49-1.14-2.62-2.53-3.4-4.17-.78-1.65-1.17-3.51-1.17-5.59,0-1.93.39-3.72,1.17-5.36.79-1.66,1.91-3.09,3.34-4.31,1.45-1.22,3.19-2.18,5.23-2.86,2.04-.69,4.32-1.04,6.83-1.04,2.31,0,4.43.32,6.35.95,1.93.62,3.58,1.54,4.95,2.76,1.39,1.22,2.46,2.73,3.21,4.53.77,1.79,1.15,3.86,1.15,6.2v1.71h-25.12c.22.8.59,1.54,1.09,2.21.52.67,1.22,1.24,2.1,1.71.88.47,1.95.83,3.23,1.1,1.29.26,2.82.39,4.6.39,1.26,0,2.5-.07,3.71-.22,1.21-.16,2.34-.36,3.39-.61,1.05-.26,2-.54,2.84-.85.85-.31,1.54-.62,2.06-.93v5.96ZM267.88,43.95c-.06-.63-.25-1.28-.58-1.95-.31-.68-.8-1.29-1.48-1.84-.68-.54-1.57-.99-2.67-1.34-1.1-.36-2.47-.54-4.12-.54-1.55,0-2.88.19-4.01.57-1.12.38-2.07.86-2.84,1.43-.76.57-1.34,1.18-1.76,1.84-.42.65-.69,1.26-.82,1.82h18.28ZM309.07,57.26c-.89.37-1.79.71-2.69,1-.9.3-1.84.55-2.8.76-.96.22-1.99.39-3.06.5-1.06.11-2.21.17-3.43.17-2.6,0-4.99-.28-7.18-.83-2.18-.56-4.06-1.39-5.64-2.51-1.57-1.13-2.8-2.52-3.67-4.19-.88-1.68-1.32-3.64-1.32-5.88s.44-4.19,1.32-5.86c.88-1.68,2.1-3.08,3.67-4.19,1.58-1.13,3.46-1.97,5.64-2.52,2.19-.56,4.58-.83,7.18-.83,1.23,0,2.37.06,3.43.17,1.08.11,2.1.28,3.06.5.96.21,1.9.46,2.8.76.9.3,1.8.63,2.69,1v6.2c-.71-.38-1.45-.76-2.23-1.13-.78-.38-1.64-.72-2.58-1.02-.94-.31-1.97-.56-3.1-.74-1.13-.2-2.39-.3-3.8-.3-2.16,0-3.96.22-5.4.67-1.42.44-2.56,1.04-3.41,1.78-.85.74-1.45,1.6-1.8,2.56-.35.95-.52,1.94-.52,2.97,0,.68.07,1.36.22,2.02.15.66.4,1.28.74,1.87.35.58.8,1.12,1.35,1.61.56.49,1.25.92,2.08,1.28.83.36,1.79.64,2.89.85,1.11.2,2.39.3,3.84.3s2.68-.09,3.8-.26c1.13-.18,2.16-.43,3.1-.72.94-.3,1.8-.63,2.58-1,.78-.38,1.52-.77,2.23-1.17v6.2ZM348.48,46.27c0,2.19-.4,4.13-1.21,5.81-.8,1.67-1.95,3.07-3.45,4.19-1.5,1.13-3.32,1.98-5.46,2.56-2.13.57-4.52.85-7.18.85s-5.07-.29-7.22-.85c-2.14-.58-3.96-1.43-5.47-2.56-1.51-1.12-2.67-2.52-3.49-4.19-.82-1.68-1.23-3.62-1.23-5.81s.41-4.12,1.23-5.79c.82-1.68,1.98-3.09,3.49-4.21,1.51-1.13,3.33-1.97,5.47-2.54,2.15-.58,4.56-.87,7.22-.87s5.05.29,7.18.87c2.14.57,3.96,1.42,5.46,2.54,1.5,1.12,2.65,2.53,3.45,4.21.8,1.67,1.21,3.6,1.21,5.79ZM341.52,46.27c0-.95-.15-1.9-.46-2.84-.3-.95-.83-1.81-1.61-2.56-.77-.75-1.82-1.37-3.15-1.84-1.34-.47-3.04-.71-5.1-.71-1.38,0-2.6.11-3.65.33-1.05.21-1.96.51-2.73.89-.77.38-1.41.83-1.93,1.35-.52.51-.93,1.06-1.24,1.65-.31.58-.53,1.19-.67,1.84-.12.63-.19,1.26-.19,1.87s.06,1.27.19,1.91c.14.64.36,1.26.67,1.85.31.58.72,1.13,1.24,1.63.52.51,1.16.95,1.93,1.34.77.37,1.68.67,2.73.89,1.05.21,2.27.32,3.65.32,2.07,0,3.77-.24,5.1-.71,1.34-.47,2.39-1.08,3.15-1.84.78-.76,1.32-1.6,1.61-2.54.31-.95.46-1.9.46-2.86ZM379.04,59v-14.29c0-.95-.08-1.81-.24-2.58-.16-.78-.46-1.44-.91-1.99-.43-.56-1.05-.98-1.84-1.28-.78-.31-1.79-.46-3.02-.46-.94,0-1.93.13-2.97.39-1.03.25-2.05.58-3.06,1-1.01.42-1.98.91-2.91,1.47-.92.56-1.73,1.14-2.45,1.74v15.99h-6.88v-25.49h6.88v3.49c.87-.5,1.79-.98,2.76-1.47.98-.49,2.02-.94,3.12-1.34,1.1-.4,2.27-.72,3.51-.96,1.24-.25,2.54-.37,3.92-.37,1.72,0,3.25.21,4.6.63,1.36.41,2.51,1,3.45,1.76.94.75,1.66,1.68,2.15,2.76.51,1.08.76,2.28.76,3.62v17.37h-6.87ZM425.02,46.23c0,1.63-.18,3.09-.54,4.36-.36,1.26-.86,2.36-1.52,3.3-.64.94-1.42,1.74-2.34,2.39-.9.66-1.91,1.18-3.02,1.58-1.11.4-2.31.69-3.6.87-1.29.17-2.63.26-4.03.26h-16.18v-25.49h16.14c1.4,0,2.74.09,4.03.28,1.29.17,2.49.46,3.6.85,1.12.4,2.15.92,3.06,1.58.91.64,1.7,1.44,2.34,2.39.66.94,1.16,2.04,1.52,3.3.36,1.26.54,2.7.54,4.32ZM418.08,46.23c0-1.22-.16-2.29-.48-3.19-.31-.9-.82-1.64-1.52-2.23-.69-.59-1.6-1.03-2.73-1.32-1.13-.3-2.5-.44-4.12-.44h-8.55v14.4h8.55c1.62,0,2.99-.14,4.12-.43,1.12-.3,2.03-.74,2.73-1.34.71-.61,1.21-1.36,1.52-2.26.32-.9.48-1.97.48-3.19Z"/>
  <rect class="cls-2" width="90" height="90" rx="16" ry="16"/>
  <path class="cls-1" d="M45.74,55.37l-.49,1.45c-.08.25-.43.25-.51,0l-.49-1.45c-.89-2.65-2.97-4.73-5.62-5.62l-1.45-.49c-.25-.08-.25-.43,0-.51l1.45-.49c2.65-.89,4.73-2.97,5.62-5.62l.49-1.45c.08-.24.43-.24.51,0l.49,1.45c.89,2.65,2.97,4.73,5.62,5.62l1.45.49c.25.08.25.43,0,.51l-1.45.49c-2.65.89-4.73,2.97-5.62,5.62Z"/>
  <path class="cls-3" d="M65,69.5c-1.04,0-2.01-.66-2.37-1.7l-15.1-44.38c-.39-1.15-1.47-1.92-2.68-1.92s-2.3.78-2.69,1.94l-14.78,44.35c-.44,1.31-1.85,2.02-3.16,1.58-1.31-.44-2.02-1.85-1.58-3.16l14.78-44.35c1.07-3.2,4.05-5.36,7.43-5.36s6.34,2.14,7.42,5.31l15.1,44.38c.44,1.31-.25,2.73-1.56,3.17-.27.09-.54.13-.81.13Z"/>
</svg>