<?xml version="1.0" encoding="UTF-8"?>
<svg id="Data_package" data-name="Data package" xmlns="http://www.w3.org/2000/svg" viewBox="0 0 400 400">
  <defs>
    <style>
      .cls-1 {
        opacity: .6;
      }

      .cls-1, .cls-2, .cls-3, .cls-4, .cls-5, .cls-6, .cls-7, .cls-8 {
        stroke-width: 0px;
      }

      .cls-1, .cls-2, .cls-3, .cls-4, .cls-5, .cls-7, .cls-8 {
        fill: #fff;
      }

      .cls-1, .cls-2, .cls-3, .cls-4, .cls-8 {
        isolation: isolate;
      }

      .cls-2, .cls-3, .cls-5, .cls-8 {
        fill-rule: evenodd;
      }

      .cls-2, .cls-4 {
        opacity: .4;
      }

      .cls-3 {
        opacity: .1;
      }

      .cls-6 {
        fill: #37007d;
      }

      .cls-8 {
        opacity: .2;
      }
    </style>
  </defs>
  <rect class="cls-6" x="0" y="0" width="400" height="400" rx="40" ry="40"/>
  <path class="cls-7" d="m91.92,151.72l107.12,39.48-40.17,54.17-105.87-43.35,38.92-50.3Z"/>
  <path class="cls-1" d="m267,166.16l-67.96,25.04-14.14-5.21-.9-61.26,83-26.73v68.16Z"/>
  <path class="cls-7" d="m238.36,119.92s.75-5.98,3-.82c2.25,5.15,4.79,10.02,13.96,9.06,0,0,5.03-.58,1.3,2.77-3.73,3.35-7.61,6.31-10.23,11.13s-5.17,9.38-5.59,12.97c-.43,3.59-2.07,1.44-2.44,0-.35-1.54-6.05-10.42-14.7-9.38,0,0-5.67.26-.5-2.63,5.17-2.89,12.62-10.93,15.2-23.08v-.02Z"/>
  <path class="cls-7" d="m211.83,151.43s1.25-5.46,2.49,0c1.24,5.47,5.96,7.88,9.55,6.77,3.59-1.11,4.12.97,1.46,2.35-3.59,2.02-11.25,14.17-11.25,17.99s-2.02,2.46-2.25,0c-.95-3.47-4.68-6.82-11.98-5.9,0,0-3.61.18-.75-2.51,2.87-2.69,9.93-5.02,12.73-18.69v-.02Z"/>
  <path class="cls-3" d="m199.04,106.75l.85-.39-.85-.36v.75Zm67.96,59.41l39.21-14.44-39.21-16.73v31.17Z"/>
  <path class="cls-2" d="m125.56,164.12l-.32-26.62-33.32,14.22,33.64,12.4Z"/>
  <path class="cls-8" d="m224,111.85l-40,12.88.9,61.26-59.35-21.87-.56-52.41,99-31.71v31.85Z"/>
  <path class="cls-5" d="m207.25,99.27l-.73-5.9-1.24,5.82-4.29,20.07,2.2-.71,2.81-13.13,1.45,11.76,1.94-.62-2.12-17.28Zm-59.34,73.08l2.59-1.09.35-.15.16-.35,3.23-6.92,1.28,1.6.97,1.22.7-1.39,8.32-16.51.07-.14.02-.16,2.53-16.91,2.3,11.82.05.26.18.2,4.92,5.63.89,1.02.72-1.14,5.75-9.2,1.27-.41-.03-2.09-2.2.72-.35.11-.19.31-5.23,8.37-3.85-4.41-3.36-17.26-1.11-5.71-.86,5.75-3.37,22.5-7.55,14.98-1.31-1.65-1.01-1.26-.68,1.46-3.75,8.03-4.21,1.77,2.75,1.01Zm-12.36-4.56l1.25-4.4,2.31,5.71,2.54.93-4.08-10.09-1.09-2.7-.8,2.8-2,7.05,1.88.69Z"/>
  <path class="cls-7" d="m306.21,151.72l-107.16,39.48,40.21,54.17,105.87-43.35-38.92-50.3Z"/>
  <path class="cls-7" d="m306.21,151.72l-107.16,39.48,40.21,54.17,105.87-43.35-38.92-50.3Z"/>
  <polygon class="cls-1" points="239.25 245.37 199.04 191.2 199.04 319 309.81 275.73 308.11 217.18 239.25 245.37"/>
  <polygon class="cls-4" points="158.87 245.37 90.02 217.18 88.32 275.73 199.04 319 199.04 191.2 158.87 245.37"/>
</svg>