<?xml version="1.0" encoding="UTF-8"?>
<svg xmlns="http://www.w3.org/2000/svg" viewBox="0 0 400 400">
  <defs>
    <style>
      .cls-1 {
        stroke-width: .5px;
      }

      .cls-1, .cls-2 {
        fill: #063;
        stroke: #1d1d1b;
      }

      .cls-1, .cls-2, .cls-3, .cls-4, .cls-5 {
        isolation: isolate;
      }

      .cls-1, .cls-2, .cls-6 {
        stroke-miterlimit: 10;
      }

      .cls-2 {
        stroke-width: .25px;
      }

      .cls-3 {
        opacity: .9;
      }

      .cls-3, .cls-4, .cls-7 {
        fill: #1d1d1b;
      }

      .cls-3, .cls-4, .cls-7, .cls-8 {
        stroke-width: 0px;
      }

      .cls-6 {
        fill: #d0e9d5;
        stroke: #063;
        stroke-width: 3px;
      }

      .cls-8 {
        fill: #fff;
      }
    </style>
  </defs>
  <g id="Dataset">
    <rect class="cls-6" x="9.8" y="4.48" width="381.21" height="384.53" rx="107.91" ry="107.91"/>
  </g>
  <g id="Nights_logs-mini" data-name="Nights logs-mini">
    <g>
      <path class="cls-4" d="M294.72,41.01H89.89c-6.77,0-12.25,5.44-12.25,12.15l.03,265.52,16.7,38.76V66.2c0-6.89,5.63-12.48,12.58-12.48h212.37l-24.6-12.71Z"/>
      <rect class="cls-3" x="94.36" y="194.7" width="228" height="129.59"/>
      <g class="cls-5">
        <rect class="cls-8" x="287.84" y="54.22" width="14.08" height="307.76"/>
        <path class="cls-7" d="M301.42,54.72v306.76h-13.08V54.72h13.08M302.42,53.72h-15.08v308.76h15.08V53.72h0Z"/>
      </g>
      <g>
        <path class="cls-8" d="M125.64,212.43v76.7h-12.74v-76.7h12.74Z"/>
        <path class="cls-8" d="M170.35,290.29c-6.14,0-11.49-1.24-16.07-3.71-4.58-2.47-8.13-5.93-10.65-10.37-2.53-4.44-3.79-9.64-3.79-15.58s1.26-11.18,3.79-15.65c2.53-4.47,6.08-7.94,10.65-10.41,4.57-2.47,9.93-3.71,16.07-3.71s11.49,1.24,16.07,3.71c4.58,2.47,8.13,5.94,10.65,10.41,2.53,4.47,3.79,9.69,3.79,15.65s-1.26,11.14-3.79,15.58c-2.53,4.44-6.08,7.9-10.65,10.37-4.57,2.47-9.93,3.71-16.07,3.71ZM170.39,280.89c3.98,0,7.27-.92,9.89-2.77,2.61-1.85,4.55-4.31,5.82-7.38,1.26-3.07,1.9-6.45,1.9-10.15s-.63-7.05-1.9-10.13c-1.26-3.08-3.2-5.56-5.82-7.43-2.61-1.87-5.91-2.81-9.89-2.81s-7.32.94-9.95,2.81c-2.63,1.87-4.58,4.35-5.84,7.43-1.26,3.08-1.9,6.46-1.9,10.13s.63,7.08,1.9,10.15c1.26,3.07,3.21,5.53,5.84,7.38,2.63,1.85,5.95,2.77,9.95,2.77Z"/>
        <path class="cls-8" d="M242.5,311.89c-5.2,0-9.67-.6-13.4-1.8-3.74-1.2-6.78-2.78-9.14-4.76-2.36-1.97-4.12-4.13-5.28-6.48l10.95-3.97c.77,1.1,1.8,2.27,3.09,3.5,1.29,1.24,3.05,2.29,5.28,3.16,2.23.87,5.11,1.31,8.63,1.31,4.83,0,8.82-1.03,11.98-3.09,3.15-2.06,4.73-5.34,4.73-9.83v-11.31h-.81c-.77,1.22-1.87,2.58-3.3,4.08-1.43,1.5-3.4,2.8-5.9,3.89-2.5,1.1-5.75,1.65-9.76,1.65-5.17,0-9.82-1.07-13.96-3.2-4.13-2.13-7.4-5.29-9.8-9.47-2.4-4.18-3.6-9.33-3.6-15.45s1.19-11.36,3.56-15.73c2.37-4.37,5.63-7.72,9.78-10.06,4.15-2.33,8.85-3.5,14.11-3.5,4.06,0,7.34.59,9.84,1.78,2.5,1.19,4.45,2.57,5.86,4.14,1.41,1.57,2.49,2.96,3.26,4.16h.94v-9.33h12.49v58.8c0,4.94-1.31,9-3.92,12.17-2.61,3.17-6.14,5.52-10.59,7.04-4.45,1.52-9.45,2.28-15.02,2.28ZM242.37,278.98c3.66,0,6.77-.75,9.31-2.27,2.54-1.51,4.47-3.68,5.8-6.52s1.98-6.24,1.98-10.2-.65-7.28-1.96-10.22-3.22-5.25-5.75-6.91c-2.53-1.66-5.65-2.49-9.38-2.49s-7.03.87-9.59,2.6c-2.56,1.73-4.48,4.09-5.77,7.06-1.29,2.97-1.94,6.29-1.94,9.96s.65,7.08,1.96,9.92c1.31,2.85,3.25,5.07,5.82,6.67,2.57,1.6,5.75,2.4,9.52,2.4Z"/>
      </g>
      <g class="cls-5">
        <path class="cls-1" d="M302.42,362.48h13.62c3.49,0,6.32-2.8,6.32-6.26v-31.93h-19.94v38.19Z"/>
        <path class="cls-1" d="M302.42,53.72v140.98h19.94V58.96c0-2.89-2.37-5.24-5.29-5.24h-14.65Z"/>
      </g>
      <g>
        <path class="cls-2" d="M106.75,53.72c-6.84,0-12.38,5.5-12.38,12.28v128.7h192.98V53.72H106.75Z"/>
        <path class="cls-2" d="M94.36,355.48c0,3.87,3.16,7,7.06,7h185.92v-38.19H94.36v31.19Z"/>
      </g>
    </g>
  </g>
</svg>