<?xml version="1.0" encoding="UTF-8"?>
<svg id="Mars" xmlns="http://www.w3.org/2000/svg" viewBox="0 0 399.99 400.01">
  <defs>
    <style>
      .cls-1 {
        fill: #874530;
      }

      .cls-1, .cls-2, .cls-3, .cls-4, .cls-5, .cls-6, .cls-7 {
        stroke-width: 0px;
      }

      .cls-2 {
        fill: none;
      }

      .cls-3 {
        fill: #1e1e1c;
        isolation: isolate;
        opacity: .2;
      }

      .cls-4 {
        fill-rule: evenodd;
      }

      .cls-4, .cls-6 {
        fill: #9b4e3d;
      }

      .cls-5 {
        fill: #bd614c;
      }

      .cls-7 {
        fill: #fdebeb;
      }
    </style>
  </defs>
  <rect class="cls-2" x="0" y="0" width="400" height="400"/>
  <g>
    <path class="cls-5" d="M272.46,386.35c102.92-40.02,153.91-155.89,113.89-258.82C346.34,24.62,230.46-26.37,127.54,13.65,24.62,53.66-26.37,169.54,13.65,272.46c40.02,102.92,155.89,153.91,258.81,113.89Z"/>
    <path class="cls-7" d="M124.32,53.35c16.41-8.48,26.92-20.74,23.49-27.38-3.43-6.64-19.52-5.15-35.92,3.33-16.41,8.48-26.92,20.74-23.49,27.38,3.43,6.64,19.52,5.15,35.92-3.33Z"/>
    <path class="cls-6" d="M41.48,321.71c2.03-3.58,1.14-7.83,3-11.61,4.29-8.72,15.52-11.99,23.67-6.5,4.44,2.98,7.84,7.06,11.61,10.73,9.8,9.53,21.12,15.77,34.89,16.97,4.76.41,9.37-.63,13.96-1.64,6.51-1.44,8.45-6.92,9.73-12.29,2.37-9.98,4-20.13,6.2-30.15,1.12-5.12,2.29-10.29,5.66-14.59,3.44-4.37,7.34-5.6,12.47-3.55,10.05,4.02,20.19,7.54,31.02,8.84,8.17.98,16.64,1.32,23.8-2.28,17.32-8.72,35.01-6.91,53.04-4.02,8.88,1.42,17.21,4.22,25.1,8.56,4.54,2.5,8.89,1.92,13.26-1.11,7.41-5.13,12.73-12.39,19.3-18.37,8.27-7.52,16.46-15.06,27.16-19.23,13.33-5.18,25.05-2.61,35.64,6.66.81.71,1.71,1.49,2.52,2.22-2.86,10.91-5.67,19.24-9.78,28.39-2.54.29-3.97,2.27-6.22,3.2-11.15,4.6-22.35,8.23-34.78,7.45-9.9-.62-18.93,3.55-27.9,7.26-12.44,5.15-20.69,13.91-24.38,27.19-2.5,9-6.81,17.19-15.33,22.07-6.75,3.86-14.58,4.48-21.9,6.62-7.51,2.2-14.91,4.41-20.27,10.85-5.09,6.11-8.06,13.33-11.65,20.26-3.21,6.19-6.14,12.79-13.71,15.06-.68.2-.43.43-.55,1.16-17.99,1-43.49-3-63.48-8-39.49-12.99-72.97-33.65-99.29-66.16-1.01-1.25-1.87-2.65-2.8-3.97v-.02Z"/>
    <path class="cls-1" d="M35.11,87c1.62,4.71,2.47,8.6,4.13,13.36,5.72,16.52,23.44,24.91,40.05,22.06,6.98-1.19,12.68-4.36,17.47-9.25,6.68-6.82,14.16-8.81,22.99-4.55,7.26,3.5,13.86,2.7,20.27-2.4,3.85-3.06,7.79-6.08,12.45-8.09,3.84-1.65,6.3-.04,7.68,2.84,2.87,5.95,5.55,12.07,5.17,18.98-.16,2.96-1,5.34-3.32,7.46-8.15,7.48-17.59,13.23-26.17,20.12-10.6,8.52-21.18,16.99-28.24,29.06-5.16,8.84-7.42,18.42-8.56,28.42-.74,6.57-1.18,13.15-3.84,19.37-3.71,8.67-11.11,12.38-19.27,15.15-2.26.76-4.72.97-7.1,1.29-9.01,1.22-14.67-1.84-18.64-10.08-1.24-2.56-2.63-5.02-4.55-7.11-8.07-8.73-16.34-7.2-25.56-1.83-7.1,4.14-12.05,10.59-15.84,17.89C1.62,227.93.32,216.6.06,204.87c-.98-42.48,10.78-81,34.05-116.37.51-.78.41-.77,1-1.5Z"/>
    <path class="cls-6" d="M333.64,51.22c-2.05,5.9-6.91,10.41-10.74,15.02-11.73,14.14-26.27,25.49-38.89,38.71-9.45,9.92-19.82,18.52-31.47,25.59-9.86,5.99-19.66,12.18-30.7,15.79-7.73,2.53-15.72,3.25-22.97-1.29-7.57-4.75-8.49-14.4-2.77-21.37,4.43-5.4,10.14-9.32,15.75-13.13,6.7-4.56,10.41-10.44,12.17-18.2,1.57-6.93,3.58-13.77,8.27-19.5,6.8-8.3,16.14-11.01,26.09-12.8,12.58-2.26,22.65-8.9,30.69-18.66,2.82-3.42,5.31-7.12,7.82-10.77.79-1.14,2.51-2.73,1.82-4.47,5.53,2.84,10.38,6.22,15.44,9.71,6.74,4.64,12.97,9.53,19.47,15.39l.02-.02Z"/>
    <path class="cls-1" d="M399.72,204.82c-8.79,4.45-21.42.46-27.4-9.97-4.97-8.68-7.24-18.04-7.16-27.76.07-8.04-3.03-14.26-7.84-20.1-7.04-8.55-15.18-16.07-22.67-24.2-3.81-4.13-7.52-8.25-8.98-14.05-2.13-8.42.66-14.2,8.89-17.83,8.73-3.85,17.89-6.13,27.17-8.14,6.77,8.27,12.03,17.5,16.79,26.98,13.44,26.7,20.53,55.08,21.26,85.01.08,3.36-.03,6.71-.06,10.08v-.02Z"/>
    <path class="cls-3" d="M134.57,245.83c-51.35-73.32-46.61-169.12,5.23-236.5-18.92,5.99-37.27,14.9-54.39,26.89C-5.05,99.53-27.04,224.18,36.3,314.63c63.34,90.44,188.01,112.41,278.47,49.1,17.13-11.98,31.78-26.18,43.88-41.91-81.06,25.65-172.72-2.66-224.08-75.98h0Z"/>
    <path class="cls-4" d="M307.88,240.67c12.84-5.5,22.14-19.71,22.19-33.62.05-13.03-14.07-20.07-21.97-30.38-7.59-9.9-10.43-25.6-22.74-27.93-12.4-2.35-21.89,10.02-32.08,17.55-10.14,7.49-22.49,13.33-26.05,25.39-3.91,13.28-3.27,30.02,7.02,39.18,9.8,8.73,24.98-.79,38.04.95,12.61,1.68,23.86,13.88,35.59,8.85h0Z"/>
  </g>
</svg>