<?xml version="1.0" encoding="UTF-8"?>
<svg id="Carte_de_champ" data-name="Carte de champ" xmlns="http://www.w3.org/2000/svg" viewBox="0 0 400 400">
  <defs>
    <style>
      .cls-1 {
        fill: none;
      }

      .cls-1, .cls-2, .cls-3 {
        stroke-width: 0px;
      }

      .cls-2 {
        fill: #292929;
      }

      .cls-3 {
        fill: #e63324;
      }

      .cls-4 {
        fill: #f4f4f4;
        stroke: #706f6f;
        stroke-miterlimit: 10;
        stroke-width: 8px;
      }
    </style>
  </defs>
  <rect class="cls-1" x="15.01" y="15" width="370" height="370"/>
  <path class="cls-4" d="M348.01,15H52.01c-20.43,0-37,16.57-37,37v296c0,20.43,16.57,37,37,37h296c20.43,0,37-16.57,37-37V52c0-20.43-16.57-37-37-37Z"/>
  <path class="cls-2" d="M62.39,137.87l-18.81,18.81,18.81,18.81,18.81-18.81-18.81-18.81Z"/>
  <path class="cls-2" d="M319.42,242.43l-18.81,18.81,18.81,18.81,18.81-18.81-18.81-18.81Z"/>
  <path class="cls-2" d="M107.41,288.22l-18.81,18.81,18.81,18.81,18.81-18.81-18.81-18.81Z"/>
  <path class="cls-2" d="M264.08,326.98l-18.81,18.81,18.81,18.81,18.81-18.81-18.81-18.81Z"/>
  <path class="cls-3" d="M213.89,39.97h-27.75v86.95h27.75V39.97Z"/>
  <path class="cls-2" d="M204.92,241.98l-3.22,9.53c-.55,1.62-2.84,1.62-3.38,0l-3.22-9.53c-5.89-17.46-19.6-31.16-37.06-37.07l-9.53-3.22c-1.62-.55-1.62-2.84,0-3.38l9.53-3.22c17.46-5.9,31.16-19.61,37.06-37.07l3.22-9.53c.55-1.62,2.84-1.62,3.38,0l3.22,9.53c5.89,17.46,19.6,31.16,37.06,37.07l9.53,3.22c1.63.55,1.63,2.84,0,3.38l-9.53,3.22c-17.46,5.9-31.16,19.61-37.06,37.07Z"/>
  <path class="cls-3" d="M186.14,359.92h27.75v-86.95h-27.75v86.95Z"/>
  <path class="cls-3" d="M39.99,186.13v27.75h86.95v-27.75H39.99Z"/>
  <path class="cls-3" d="M359.93,213.87v-27.75h-86.95v27.75h86.95Z"/>
  <polygon class="cls-2" points="186.14 66.16 176.9 56.93 158.09 75.74 176.9 94.55 186.14 85.31 186.14 66.16"/>
</svg>