<?xml version="1.0" encoding="UTF-8"?>
<svg xmlns="http://www.w3.org/2000/svg" viewBox="0 0 400 400">
  <defs>
    <style>
      .cls-1 {
        fill: #fff2e1;
        stroke: #936037;
      }

      .cls-1, .cls-2 {
        stroke-miterlimit: 10;
        stroke-width: 3px;
      }

      .cls-3 {
        fill: #592e00;
      }

      .cls-3, .cls-4, .cls-5, .cls-6 {
        stroke-width: 0px;
      }

      .cls-3, .cls-2 {
        isolation: isolate;
      }

      .cls-4 {
        fill: #693901;
      }

      .cls-2 {
        fill: #f39200;
        stroke: #683c11;
      }

      .cls-5 {
        fill-rule: evenodd;
      }

      .cls-5, .cls-6 {
        fill: #fff;
      }
    </style>
  </defs>
  <g id="Dataset">
    <rect class="cls-1" x="10.81" y="8.81" width="381.21" height="384.53" rx="107.91" ry="107.91"/>
  </g>
  <g id="Dataset-mini">
    <path class="cls-5" d="M217.21,211.31l9.05-3.6-2.21.89,1.43,1.49-3.79-.53-4.46,1.75h-.01Z"/>
    <polygon class="cls-6" points="101.02 175.45 210.27 214.06 302.26 177.41 366.31 206.63 210.1 280.44 34.07 206.52 101.02 175.45"/>
    <path class="cls-3" d="M37.29,265.82l173.32,74.71,149.86-74.5-62.86-26.45-86.84,39.21-.45.21-.47-.19-105.04-42.06-67.51,29.07Z"/>
    <polygon class="cls-4" points="210.8 280.72 210.1 280.44 25.09 206.77 96.25 173.74 101.02 175.45 34.07 206.52 210.71 276.86 366.31 206.63 302.26 177.41 306.83 175.59 374.91 206.65 210.8 280.72"/>
    <path class="cls-2" d="M29.58,150.17l180.69,63.89,160.33-63.89-180.89-74.39L29.58,150.17Z"/>
  </g>
</svg>