<?xml version="1.0" encoding="UTF-8"?>
<svg id="Terre" xmlns="http://www.w3.org/2000/svg" viewBox="0 0 400 400">
  <defs>
    <style>
      .cls-1 {
        fill: #1e4263;
      }

      .cls-1, .cls-2, .cls-3, .cls-4, .cls-5, .cls-6, .cls-7 {
        stroke-width: 0px;
      }

      .cls-2 {
        fill: #1e1e1c;
        isolation: isolate;
        opacity: .2;
      }

      .cls-3 {
        fill: #56685b;
      }

      .cls-4 {
        fill: #2b5c8c;
      }

      .cls-5 {
        fill-rule: evenodd;
      }

      .cls-5, .cls-7 {
        fill: #fff;
      }

      .cls-6 {
        fill: #c2a17a;
      }
    </style>
  </defs>
  <path class="cls-4" d="M200,400c110.46,0,200-89.54,200-200S310.46,0,200,0,0,89.54,0,200s89.54,200,200,200Z"/>
  <path class="cls-1" d="M200,380c99.41,0,180-80.59,180-180S299.41,20,200,20,20,100.59,20,200s80.59,180,180,180Z"/>
  <path class="cls-6" d="M75.74,43.7s-9.08,84.63-35.35,109.67c-26.27,25.04,11.04,33.17,16.03,85.12,4.99,51.94,5.01,44.94,37.26,83.64,32.25,38.7,67.27,66.81,75.17,59.14,7.9-7.67-27.37-67.72-11.4-84.59,15.97-16.87-3.91-68.17-66.87-83.89,0,0-34.54-18.72-6.22-41.19,0,0,26.03-2.49,50.21-16.08,24.18-13.59,31.92-26.73,43.52-12.18,11.6,14.56,59.01,25.52,71.71,48.75,12.71,23.23,12.47,46.59,51.82,55.9,39.35,9.31,51.51,44.58,40.31,50.56-11.2,5.98-40.77-11.09-50.21.74-9.44,11.84-2.75,31.15-8.98,36.09-6.23,4.94-20.54,14.37-13.66,21.11,6.89,6.75,21.44-11.83,54.92-1.17,0,0,65-41.41,75.75-141.62,0,0-26.41-84.45-61.55-77.2-35.14,7.25-84.42,35.36-119.25,17.61-34.82-17.75-35.26-101.31-41.14-110.41-5.87-9.1-68.84-33.43-102.08,0Z"/>
  <path class="cls-3" d="M49.5,210.86c8,14.98,7,47.93,12,65.9.8,11.98,31,45.93,46,61.41,11-5.49,12-12.48,13.5-31.95s44.93-29.71,34.84-47.73c-19-33.95-58.84-44.13-64.34-45.63-5.5-1.5-17-16.98-17-16.98,0,0-7-8.98,10-24.46,0,0-3-12.62-14.5-20.97-8-5.81-22-6.49-22-6.49-16.5,16.47-15.07,19.34-15.5,19.97-6.5,9.48,9,31.95,17,46.93Z"/>
  <path class="cls-3" d="M310.5,212.35c-11.6,20.37-1.83,37.44,4.5,43.44l59,41.44c.8-2,13-23.46,18-43.44,6-15.98,6-26.46,7.5-39.94-2.5-14.98-12.5-32.45-20-45.93-8.16-14.67-19.5-28.45-27.5-29.46-2.53-.32-4.5,9.49-5,27.46-.5,17.97-22,20.97-36.5,46.43Z"/>
  <path class="cls-5" d="M362,317.7c-8.5,14.48-32.5,36.94-52,49.43-15.24,9.69-25.92,16.9-57.42,25.89-30.37,8.96-65.98,8.91-96.52,2.14-25-5.49-72.06-22.04-59.34-36.26,19-23.2,94.32,28.02,139,0,31.94-20.03,33.93-102.41,71-112.83,28.12-7.91,51.62,2.43,66.28,27.7,13,15.98-9.5,39.94-11,43.94Z"/>
  <path class="cls-7" d="M143.97,261.54s65.69-28.47,82.21-16.81c16.5,11.63,3.23,48.69-9.51,56.98-12.74,8.28-48.27,27.8-56.56,17.75-8.28-10.04,38.33-25.26,30.58-38.03-7.74-12.76-86.68,17.45-98.65.72-11.95-16.72,28.94-11.74,51.9-20.6h.03Z"/>
  <path class="cls-5" d="M360.82,121.49c-61.55,0-204.42,37.9-200.06,59.3,4.32,21.17,119-17.09,210.6-17.09,8.58-.5,15.91.2,25.63,1.24-1-6.49-2.5-12.48-5.5-23.46-3-8.99-6-16.97-7.5-20.47-8.65-.48-14.5.5-23.18.5Z"/>
  <path class="cls-2" d="M134.48,245.7c-51.36-73.2-46.62-168.82,5.23-236.09-18.93,5.98-37.28,14.88-54.41,26.84C-5.18,99.67-27.17,224.1,36.18,314.38c63.36,90.28,188.06,112.22,278.55,49.01,17.13-11.96,31.79-26.13,43.89-41.84-81.08,25.6-172.77-2.65-224.14-75.85Z"/>
</svg>