<?xml version="1.0" encoding="UTF-8"?>
<svg id="Neptune" xmlns="http://www.w3.org/2000/svg" viewBox="0 0 400 400">
  <defs>
    <style>
      .cls-1, .cls-2, .cls-3, .cls-4, .cls-5 {
        stroke-width: 0px;
      }

      .cls-1, .cls-4 {
        fill: #627aa9;
      }

      .cls-2 {
        fill: #1e1e1c;
        isolation: isolate;
        opacity: .2;
      }

      .cls-3 {
        fill: #fff;
      }

      .cls-4 {
        fill-rule: evenodd;
      }

      .cls-5 {
        fill: #7891c4;
      }
    </style>
  </defs>
  <path class="cls-5" d="M289.49,21.1C165.59,34.42,59.06,107.74.35,211.97c-.32-5.48-.43-11.01-.3-16.6C2.62,84.94,94.2-2.5,204.63.05c30.51.71,59.27,8.21,84.86,21.04h0Z"/>
  <path class="cls-1" d="M364.97,86.9c-147.87,2.85-275.77,90.86-335.35,217.85C12.77,277.44,2.34,245.8.35,211.97,59.06,107.74,165.59,34.42,289.49,21.1c30.44,15.24,56.39,38.01,75.48,65.81h0Z"/>
  <path class="cls-5" d="M399.95,204.56c-118.57,13.01-221.15,80.96-281,178.33h0c-37.15-16.48-68.26-43.93-89.32-78.14,59.59-126.99,187.49-215.01,335.35-217.85,22.94,33.4,35.98,74.06,34.99,117.66h0Z"/>
  <path class="cls-1" d="M399.95,204.56v.07c-.33,14.02-2.08,27.66-5.14,40.8-93.11,20.87-173.53,76.12-226.86,152.01h0c-17.18-2.77-33.6-7.72-49-14.55,59.85-97.37,162.43-165.32,281-178.33h.01Z"/>
  <path class="cls-5" d="M394.81,245.43c-20.98,90.37-103.04,156.75-199.44,154.51-9.32-.22-18.47-1.07-27.42-2.51,53.33-75.89,133.75-131.14,226.86-152.01h0Z"/>
  <path class="cls-3" d="M204.74,250.09c11.56-4.58,19.18-12.71,17.01-18.16-2.16-5.45-13.28-6.16-24.84-1.59-11.56,4.58-19.18,12.71-17.01,18.16,2.16,5.45,13.28,6.16,24.84,1.59Z"/>
  <path class="cls-2" d="M134.47,245.89c-51.36-73.36-46.62-169.2,5.23-236.62-18.93,5.99-37.28,14.91-54.41,26.9C-5.19,99.53-27.18,224.24,36.17,314.72c63.36,90.48,188.06,112.47,278.55,49.12,17.13-11.99,31.79-26.19,43.89-41.93-81.08,25.66-172.77-2.66-224.14-76.02Z"/>
  <path class="cls-4" d="M248.73,173.9c-13.45-19.46-44.12-11.2-66.28,4.12-21.19,14.65-37.07,39.83-24.21,58.43,5.15,7.46,12.88,11.17,21.67,12.03-2.14-5.45,5.48-13.57,17.02-18.14,11.56-4.58,22.68-3.87,24.84,1.59.46,1.15.47,2.42.11,3.75.1-.07.19-.13.29-.19,22.43-15.5,40.17-41.89,26.57-61.58Z"/>
</svg>