<?xml version="1.0" encoding="UTF-8"?>
<svg xmlns="http://www.w3.org/2000/svg" viewBox="0 0 400 400">
  <defs>
    <style>
      .cls-1 {
        fill: #470000;
      }

      .cls-1, .cls-2, .cls-3 {
        isolation: isolate;
        stroke-width: 0px;
      }

      .cls-2 {
        fill: #e6332a;
      }

      .cls-3 {
        fill: #9b1111;
      }

      .cls-4 {
        fill: #fde9e9;
        stroke: #9b1111;
        stroke-miterlimit: 10;
        stroke-width: 3px;
      }
    </style>
  </defs>
  <g id="Dataset">
    <rect class="cls-4" x="9.4" y="7.73" width="381.21" height="384.53" rx="107.91" ry="107.91"/>
  </g>
  <g id="Explore-mini">
    <path class="cls-2" d="M75.87,313.16l-9.11,7.23c-.96.76-1.39,2-1.14,3.2.56,2.59,2.28,6.99,7.56,9.55,1.06.51,2.32.35,3.26-.36l9.72-7.35-10.3-12.26Z"/>
    <path class="cls-2" d="M333.88,189.32l42.34-34.62c2.99-2.45,4.21-6.45,3.12-10.15-4.84-16.47-22.51-61.36-76.15-87.85-3.43-1.69-7.56-1.12-10.45,1.39l-40.09,34.78s62.65,37.99,81.23,96.46Z"/>
    <path class="cls-2" d="M86.41,237.07s5.15,53.41,74.28,93.89l13.39-10.95s-66.89-36.03-74.24-94.59l-13.43,11.65Z"/>
    <path class="cls-2" d="M108.26,195.49l16.23-14.91s-6.05-14.91-19.12-20.61l-14.94,12.68s15.7,12.7,17.84,22.85Z"/>
    <path class="cls-2" d="M59.33,240.46l-17.78,16.34c-19.23-5.93-21.29-24.65-21.29-24.65l15.18-12.88s5.11,16.08,23.89,21.18Z"/>
    <path class="cls-1" d="M252.66,92.86L99.83,225.42h0c7.35,58.56,74.24,94.59,74.24,94.59l-13.39,10.95c-69.13-40.48-74.28-93.89-74.28-93.89l-23.66,20.53c-2.26,1.96-3.47,4.85-3.29,7.83.95,15.72,8.83,65.14,69.75,85.55,3.1,1.04,6.53.38,9.07-1.69l195.61-159.97c-18.57-58.47-81.23-96.46-81.23-96.46Z"/>
    <polygon class="cls-3" points="99.83 225.42 86.41 237.07 75.23 225.85 91.47 210.92 99.83 225.42"/>
    <path class="cls-1" d="M108.26,195.49c-2.14-10.15-17.83-22.85-17.84-22.85l-54.98,46.64h0s5.11,16.08,23.89,21.18h0l48.93-44.97Z"/>
  </g>
</svg>