<?xml version="1.0" encoding="UTF-8"?>
<svg id="Dataset" xmlns="http://www.w3.org/2000/svg" viewBox="0 0 400 400">
  <defs>
    <style>
      .cls-1 {
        fill: none;
      }

      .cls-1, .cls-2, .cls-3, .cls-4, .cls-5, .cls-6, .cls-7, .cls-8 {
        stroke-width: 0px;
      }

      .cls-2 {
        opacity: .2;
      }

      .cls-2, .cls-3, .cls-5 {
        isolation: isolate;
      }

      .cls-2, .cls-3, .cls-5, .cls-6, .cls-8 {
        fill: #fff;
      }

      .cls-3 {
        opacity: .8;
      }

      .cls-4 {
        fill: rgba(255, 255, 255, .2);
      }

      .cls-5 {
        opacity: .4;
      }

      .cls-6 {
        fill-rule: evenodd;
      }

      .cls-7 {
        fill: #c97108;
      }
    </style>
  </defs>
  <rect class="cls-1" width="400" height="400"/>
  <g>
    <path class="cls-7" d="m360,0H40C17.91,0,0,17.91,0,40v320c0,22.09,17.91,40,40,40h320c22.09,0,40-17.91,40-40V40c0-22.09-17.91-40-40-40Z"/>
    <path class="cls-5" d="m56,151.13l152.6,53.96,135.4-53.96-152.29-59.13-135.71,59.13Z"/>
    <path class="cls-4" d="m232.04,195.77l47.3,12.97-31.69-19.19-2.68,1.07,19.09,10.85-28.51-7.1-3.51,1.41h0Z"/>
    <path class="cls-4" d="m194.86,208.43l-26.05-13.57,23.34,4.41-14.8-5.22-24.17-4.58,39.99,20.65,11.29,14.07-9.56-.95,7.64,8.54-9.11,4.34-37.81-8.42,26.31,19.05-2.59,1.48,2.82,1.12,4.15-2.36-19.95-14.45,27.35,6.08,12.71-6.06-5.67-6.34,9.11.91-15.02-18.69h.02Z"/>
    <path class="cls-8" d="m218.23,201.27l-4.44,1.74,14.16,2.07-5.36-5.58-2.37.95,1.21,1.26-3.2-.45h0Z"/>
    <path class="cls-8" d="m279.15,187.21l19.9-8.92-2.89-1.31-17.08,7.65-9.82-3.7-3.27,1.29,13.17,4.98h-.01Z"/>
    <path class="cls-6" d="m183.34,196.16l-69.03-24.4-58.31,27.06,123.36,49.4,2.58-1.47-26.31-19.05,37.81,8.42,9.11-4.34-7.64-8.54,9.56.95-11.29-14.07-39.99-20.65,24.17,4.58,5.98,2.11Zm8.78,3.11l-23.3-4.4,26.05,13.57,15.02,18.69-9.11-.91,5.67,6.34-12.71,6.06-27.35-6.08,19.95,14.45-4.15,2.36-1.15-.46,27.57,11.04,135.4-61.11-44.96-20.53-19.9,8.92-13.17-4.98,3.27-1.29,9.82,3.7,17.08-7.65,1.87.85-9.79-4.47-65.63,26.16,5.36,5.58-14.15-2.07-5.2,2.07-16.48-5.82v-.02Zm22.34,3.49l7.64-3.04-1.87.75,1.21,1.26-3.2-.45-3.77,1.48h0Zm17.58-6.99l47.3,12.97-31.69-19.19-2.68,1.07,19.09,10.85-28.51-7.1-3.51,1.41h0Z"/>
    <path class="cls-8" d="m172.71,159.98s9.58,3.72,9.32,9.71c-.26,5.98-2.85,7.94-5.24,9.51,0,0-1.45,1.53.59,1.36,2.04-.17,12.86-3.2,26.64-2.81,13.78.38,21.73,2.29,22.15,2.43.43.14,2.04.55,2.35-.22.31-.76-1.21-1.55-1.9-1.91s-5.88-3.48-5.98-8.2c-.09-4.72,5.05-8.77,5.98-9.18,0,0,.74-1.19-.95-1.05-1.68.14-12.38,3.05-24.62,3.05,0,0-9.87.17-25.26-2.74,0,0-4.13-.79-3.08.05Z"/>
    <path class="cls-8" d="m196.24,144.15c-16.2.24-25.48,3.74-26.33,3.89-.85.14-5.27.4-2.11-2.38,3.15-2.79,5.62-4.53,6.07-10.75.45-6.22-8.49-11.37-11.29-13.54-2.8-2.17,1.47-1.07,1.87-.93.4.14,4.27.93,14.75,2.86,10.49,1.93,28.96.86,28.96.86,0,0,13.07-.67,20.16-3.41,0,0,5.15-1.33,2.3,1.53,0,0-6.62,3.27-6.93,10.04,0,0-1.33,6.13,9.58,13.47,0,0,3.25,1.88,0,2.15,0,0-6.33-2.29-17.96-2.77,0,0-14.23-1.07-19.1-1l.03-.02Z"/>
    <path class="cls-3" d="m282.35,226.64l53.09,22.34-126.91,58.3-146.02-58.48,57.01-24.55-3.93-1.57-60.89,26.23,153.31,61.39.6.24,134.28-61.68-56.81-23.9-3.73,1.68Z"/>
    <path class="cls-2" d="m62.51,248.8l146.02,58.48,126.91-58.3-53.09-22.34-73.34,33.11-.38.18-.4-.16-88.71-35.52-57.01,24.55Z"/>
  </g>
</svg>