<?xml version="1.0" encoding="UTF-8"?>
<svg id="Sky_maps" data-name="Sky maps" xmlns="http://www.w3.org/2000/svg" viewBox="0 0 400 400">
  <defs>
    <style>
      .cls-1 {
        fill: #fcf5c5;
      }

      .cls-1, .cls-2, .cls-3 {
        stroke-width: 0px;
      }

      .cls-2 {
        fill: #f4e583;
        fill-rule: evenodd;
      }

      .cls-4 {
        fill: #969bcd;
        stroke: #969bcd;
        stroke-miterlimit: 10;
        stroke-width: 3px;
      }

      .cls-3 {
        fill: #23254e;
      }
    </style>
  </defs>
  <path class="cls-3" d="M348,19.24H52c-20.43,0-37,16.57-37,37v296c0,20.43,16.57,37,37,37h296c20.43,0,37-16.57,37-37V56.24c0-20.43-16.57-37-37-37Z"/>
  <path class="cls-4" d="M104.62,112.28l100.08,100.08c-24.83,25.34-44.36,55.9-56.8,89.87L15,254.92v4.91l131.35,46.76c-8.93,25.85-13.78,53.6-13.78,82.48,0,.06,0,.12,0,.17h4.62c0-.06,0-.12,0-.17,0-28.34,4.75-55.56,13.51-80.93l111.58,39.72c-4.34,12.94-6.69,26.8-6.69,41.21,0,.06,0,.12,0,.17h4.62c0-.06,0-.12,0-.17,0-13.86,2.26-27.2,6.43-39.66l99.13,35.29c1.7-.93,3.32-2,4.85-3.18l-102.42-36.46c6.01-15.95,15.19-30.34,26.77-42.42l77.42,77.42c1.16-1.02,2.26-2.1,3.28-3.26l-77.44-77.44c12.82-12.42,28.3-22.11,45.49-28.15l34.02,103.04c1.19-1.61,2.25-3.33,3.18-5.13l-32.81-99.37c11.66-3.61,24.05-5.56,36.89-5.57v-4.62c-13.35,0-26.23,2.04-38.34,5.8l-37.14-112.47c23.8-7.61,49.16-11.72,75.48-11.73v-4.62c-26.83,0-52.67,4.2-76.93,11.96l-42.68-129.26h-4.87l43.16,130.71c-36.34,12.37-68.96,32.79-95.72,59.14l-100.07-100.07c39.63-39.23,87.54-70.1,140.87-89.77h-12.84c-49.47,19.97-94.01,49.58-131.31,86.5L27.44,28.57c-1.15,1.02-2.24,2.12-3.26,3.28l77.16,77.16c-36.89,37.38-66.45,82.01-86.34,131.56v12.9c19.58-53.44,50.41-101.46,89.62-141.19ZM305.13,154.34l37.14,112.47c-17.89,6.27-33.99,16.35-47.31,29.27l-83.73-83.73c26.26-25.84,58.26-45.87,93.9-58.01ZM207.96,215.63l83.73,83.73c-12.06,12.56-21.61,27.54-27.85,44.14l-111.58-39.72c12.21-33.32,31.36-63.28,55.71-88.15Z"/>
  <path class="cls-2" d="M217.73,204.53l78.13,114.29,9.77,14.29-17.08-2.81-170.56-28.07-14.1-2.32,10.03-10.18,89.38-90.68,1.14-1.16,63.84-106.69,12.7,7.6-63.26,105.72ZM273.88,312.89l-139.38-22.94,73.04-74.1,66.34,97.04Z"/>
  <circle class="cls-1" cx="290.28" cy="322.93" r="27.5"/>
  <circle class="cls-1" cx="274.56" cy="98.15" r="27.5"/>
  <circle class="cls-1" cx="209.81" cy="207.3" r="27.5"/>
  <circle class="cls-1" cx="116.38" cy="294.25" r="27.5"/>
</svg>