<?xml version="1.0" encoding="UTF-8"?>
<svg id="Explore" xmlns="http://www.w3.org/2000/svg" viewBox="0 0 400 400">
  <defs>
    <style>
      .cls-1 {
        opacity: .1;
      }

      .cls-1, .cls-2, .cls-3, .cls-4, .cls-5, .cls-6, .cls-7, .cls-8 {
        stroke-width: 0px;
      }

      .cls-1, .cls-3, .cls-4, .cls-5, .cls-6 {
        isolation: isolate;
      }

      .cls-1, .cls-3, .cls-4, .cls-5, .cls-6, .cls-8 {
        fill: #fff;
      }

      .cls-2 {
        fill: none;
      }

      .cls-3 {
        opacity: .6;
      }

      .cls-4, .cls-9 {
        opacity: .2;
      }

      .cls-5 {
        opacity: .8;
      }

      .cls-6, .cls-10 {
        opacity: .4;
      }

      .cls-7 {
        fill: #9b1111;
      }
    </style>
  </defs>
  <rect class="cls-7" width="400" height="400" rx="40" ry="40"/>
  <rect class="cls-2" x="79" y="48" width="258.65" height="310"/>
  <path class="cls-4" d="m165.02,340c45.07.68,81.96-10.73,83.67-25.66h0s.07,6.54.07,6.54c-.24,15.39-37.72,27.3-83.74,26.6-46.02-.7-83.12-13.75-82.89-29.14v-7.49c-.24,15.39,36.88,28.44,82.89,29.14h0Z"/>
  <path class="cls-1" d="m82.14,318.98c.79,15.11,37.5,27.81,82.87,28.5,46.02.7,83.5-11.21,83.74-26.6,0,0,.03,5.56,0,7.48-.24,15.39-37.72,27.3-83.74,26.6-46.02-.7-83.12-13.74-82.89-29.14.02-1.49.01-6.85.01-6.85h0Z"/>
  <path class="cls-4" d="m165.2,112.61c7.05.55,13.3-5.84,13.96-14.29.66-8.44-4.52-15.73-11.57-16.28-7.05-.55-13.3,5.84-13.96,14.29-.66,8.44,4.52,15.73,11.57,16.29Zm-7.92-4.97c1.32,1.28,2.92,2.09,4.7,2.23,5.17.41,9.8-5,10.36-12.08.56-7.08-3.19-13.14-8.35-13.55-1.77-.14-3.49.41-4.99,1.47,2.09-1.65,4.61-2.52,7.27-2.32,6.38.5,11.07,7.1,10.47,14.74-.6,7.64-6.26,13.42-12.64,12.93-2.65-.21-5.01-1.47-6.82-3.42h0Z"/>
  <path class="cls-4" d="m165.2,112.61c7.05.55,13.3-5.84,13.96-14.29.66-8.44-4.52-15.73-11.57-16.28-7.05-.55-13.3,5.84-13.96,14.29-.66,8.44,4.52,15.73,11.57,16.29Zm-7.92-4.97c1.32,1.28,2.92,2.09,4.7,2.23,5.17.41,9.8-5,10.36-12.08.56-7.08-3.19-13.14-8.35-13.55-1.77-.14-3.49.41-4.99,1.47,2.09-1.65,4.61-2.52,7.27-2.32,6.38.5,11.07,7.1,10.47,14.74-.6,7.64-6.26,13.42-12.64,12.93-2.65-.21-5.01-1.47-6.82-3.42h0Z"/>
  <path class="cls-8" d="m161.99,109.87c5.17.41,9.81-5,10.36-12.08.56-7.08-3.19-13.14-8.35-13.55-1.78-.14-3.49.41-4.99,1.47,2.09-1.65,4.61-2.52,7.26-2.31,6.38.5,11.07,7.1,10.47,14.74-.6,7.64-6.26,13.43-12.64,12.93-2.65-.21-5.01-1.47-6.82-3.42,1.32,1.28,2.93,2.09,4.7,2.23h0Z"/>
  <path class="cls-4" d="m87.37,208.86c.9-.8,1.87-1.48,2.9-2.06h0l94.93-88.55,8.28,2.81,5.12-4.41,1.82-1.57,14.67,5.28.34,1.51,5.51,1.71-1.25-4.12c-2.2-.04-5.5-2.03-8.31-5.21-3.62-4.1-5.06-8.62-3.21-10.1.29-.24,3.3-2.81,5.48-4.67l-.47-1.54-4.56-1.51,33.47-31.21c-2.45,10.6,5.52,29.27,20.66,46.27,15.25,17.12,33.02,27.2,43.81,25.82h0l-160.97,132.73c-.58.72-1.21,1.39-1.91,2.02-10.83,9.64-32.21,3.32-47.75-14.12-15.54-17.44-19.37-39.41-8.54-49.06h0Z"/>
  <path class="cls-8" d="m167.71,97.43c.19-2.4-1.18-4.47-3.05-4.62-1.87-.15-3.54,1.68-3.73,4.08-.19,2.4,1.18,4.47,3.05,4.61,1.87.15,3.54-1.68,3.73-4.08Z"/>
  <path class="cls-8" d="m235.18,196.59l-3.91,2.86,4.96,109,4.06-2.11-5.11-109.75Z"/>
  <path class="cls-8" d="m323.44,120.56c8.08-7.2.59-28.81-16.75-48.26-17.33-19.45-37.93-29.38-46.01-22.18-8.08,7.2-.58,28.81,16.75,48.26,17.33,19.45,37.93,29.38,46.01,22.18Z"/>
  <path class="cls-6" d="m245.31,59.41c2.23-1.99,13.18-11.74,13.18-11.74-8.92,7.95-1.12,31.26,17.42,52.07,18.54,20.81,40.8,31.23,49.72,23.29,0,0-11.51,10.25-13.18,11.74-8.92,7.95-31.18-2.48-49.72-23.29-18.54-20.81-26.34-44.12-17.42-52.07Z"/>
  <path class="cls-3" d="m76.63,217.61c2.29-2.04,9.23-9.74,13.63-10.82.01,0,.02,0,.03,0-1.04.58-2.02,1.27-2.92,2.07-10.83,9.65-7,31.61,8.54,49.06,15.54,17.44,36.92,23.77,47.75,14.12.7-.62,1.34-1.3,1.92-2.03h0c-.98,2.61-8.31,11.57-10.34,13.38-10.83,9.64-32.72,2.74-48.91-15.42-16.18-18.17-20.52-40.71-9.7-50.36Z"/>
  <path class="cls-8" d="m228.9,58.57c1.43-1.28.18-5.02-2.8-8.37-2.98-3.34-6.56-5.02-7.99-3.74-1.43,1.28-.18,5.02,2.8,8.37s6.56,5.02,7.99,3.74Z"/>
  <path class="cls-3" d="m212.15,52.13c.36-.32,5.96-5.67,5.96-5.67-1.43,1.28-.18,5.03,2.8,8.37,2.98,3.34,6.55,5.02,7.99,3.74,0,0-5.69,5.43-5.96,5.67-1.43,1.28-5.01-.4-7.99-3.74-2.98-3.34-4.23-7.09-2.8-8.37Z"/>
  <path class="cls-5" d="m183.52,82.19s1.53,0,2.92,1.64c0,0-2.42,2.05-4,.91,0,0-1.48-1.22-.12-2.28,0,0,.73-.53,1.2-.28Z"/>
  <path class="cls-8" d="m229.07,112.35c1.75-1.59.2-6.16-3.47-10.23-3.67-4.06-8.07-6.07-9.82-4.48-1.75,1.59-.2,6.16,3.47,10.23,3.67,4.06,8.07,6.07,9.82,4.48Z"/>
  <path class="cls-3" d="m208.16,104.15c.46-.37,7.7-6.58,7.7-6.58-1.85,1.48-.41,6,3.21,10.11,3.62,4.1,8.06,6.22,9.91,4.75,0,0-7.36,6.3-7.7,6.58-1.85,1.48-6.29-.65-9.91-4.75-3.62-4.1-5.06-8.62-3.21-10.1Z"/>
  <path class="cls-6" d="m198.62,138.43c1.55-1.35.02-5.65-3.42-9.62-3.44-3.97-7.49-6.09-9.04-4.75-1.55,1.34-.02,5.65,3.42,9.61s7.49,6.09,9.04,4.75Z"/>
  <path class="cls-3" d="m216.05,124.68l-14.85-5.21-7.32,6.91,15.45,5.35,6.72-7.05Z"/>
  <path class="cls-4" d="m193.88,126.38l-1.34-4.52,7.87-6.78.79,4.39-7.32,6.91Z"/>
  <path class="cls-6" d="m201.2,119.47l-.79-4.39,14.66,5.28.98,4.32-14.85-5.21Z"/>
  <path class="cls-8" d="m160.9,313.73c6.67,0,12.07-1.54,12.07-3.44s-5.4-3.44-12.07-3.44-12.07,1.54-12.07,3.44,5.4,3.44,12.07,3.44Z"/>
  <path class="cls-3" d="m160.9,313.73c6.67,0,12.07-1.54,12.07-3.44v6.42c0,1.9-5.4,3.44-12.07,3.44s-12.07-1.55-12.07-3.44v-6.42c0,1.9,5.4,3.44,12.07,3.44Z"/>
  <path class="cls-4" d="m170.84,327.48c0,1.9-4.45,3.44-9.94,3.44s-9.94-1.54-9.94-3.44c0-.91-.14-7.03-.15-8.89,2.15.93,5.87,1.55,10.09,1.55s7.76-.59,9.94-1.49v8.83Z"/>
  <path class="cls-8" d="m112.68,300.78c5.86,0,10.61-1.35,10.61-3.03s-4.75-3.03-10.61-3.03-10.61,1.36-10.61,3.03,4.75,3.03,10.61,3.03Z"/>
  <path class="cls-3" d="m112.68,300.78c5.86,0,10.61-1.36,10.61-3.03v5.64c0,1.67-4.75,3.03-10.61,3.03s-10.61-1.36-10.61-3.03v-5.64c0,1.67,4.75,3.03,10.61,3.03Z"/>
  <path class="cls-4" d="m112.68,306.42c4.59,0,8.48-.83,9.96-1.99v10.52c0,1.45-4.45,2.64-9.96,2.64s-9.95-1.18-9.95-2.64c0-.64-.12-6.79-.14-10.62,1.38,1.21,5.37,2.1,10.09,2.1h0Z"/>
  <path class="cls-3" d="m275.91,99.74c18.54,20.81,40.8,31.23,49.72,23.29,8.92-7.95,1.12-31.26-17.42-52.07-18.54-20.81-40.8-31.23-49.72-23.29-8.92,7.95-1.12,31.26,17.42,52.07Zm-15.23-49.61c8.08-7.2,28.68,2.73,46.02,22.18,17.33,19.45,24.83,41.06,16.74,48.26-8.08,7.2-28.68-2.73-46.02-22.18-17.33-19.45-24.83-41.06-16.75-48.26Z"/>
  <path class="cls-3" d="m161.99,109.87c5.17.41,9.81-5,10.36-12.08.56-7.08-3.19-13.14-8.35-13.55-5.17-.41-9.81,5-10.36,12.08-.56,7.08,3.19,13.14,8.35,13.55Zm-5.45-13.32c.38-4.86,3.76-8.55,7.54-8.26,3.79.29,6.54,4.47,6.16,9.33-.38,4.86-3.76,8.55-7.54,8.26-3.79-.29-6.54-4.47-6.16-9.33Z"/>
  <path class="cls-5" d="m164.08,88.29c3.79.29,6.54,4.47,6.16,9.33-.38,4.86-3.76,8.55-7.54,8.26-3.79-.29-6.54-4.47-6.16-9.33.38-4.86,3.76-8.55,7.54-8.26Z"/>
  <path class="cls-8" d="m164.66,92.82c1.87.14,3.23,2.21,3.05,4.61-.19,2.4-1.86,4.23-3.73,4.08-1.87-.14-3.24-2.21-3.05-4.61.19-2.4,1.86-4.23,3.73-4.08Z"/>
  <path class="cls-3" d="m153.6,96.77c0-.07.02-.14.02-.21-.55,8.34,4.59,15.5,11.58,16.06,7.05.55,13.3-5.84,13.96-14.29.46-5.94-1.97-11.32-5.91-14.17,3.61.45,6.59,2.1,6.6,2.1,2.77,3.33,4.32,7.93,3.93,12.88-.73,9.35-8.08,16.4-16.42,15.75-8.33-.65-14.5-8.76-13.77-18.11h0Z"/>
  <path class="cls-8" d="m210.63,113.37c.24.29.48.59.74.88.42.47.85.91,1.27,1.33l-18.77,16.88c-2.43-.29-2.47-2.38-2.47-2.38l19.22-16.71h0Z"/>
  <path class="cls-6" d="m200.41,115.08l-1.82,1.57-9.66-2.99c3.4-2.83,5.32-6.05,5.73-11.34.41-5.15-1.35-9.74-4.19-11.85v-.04l22.69,7.51.47,1.54c-2.17,1.86-5.18,4.44-5.47,4.67-1.85,1.48-.41,6,3.21,10.1,2.81,3.18,6.1,5.16,8.31,5.21l1.25,4.12-5.51-1.71-.34-1.51-14.66-5.28Z"/>
  <path class="cls-1" d="m215.41,121.87l5.51,1.71,1.56,1.65-3.74,4.43-5.61-1.91,2.92-3.06-.64-2.81Z"/>
  <path class="cls-3" d="m188.93,113.65l9.66,2.99-5.12,4.41-13.8-4.69c4.28,1.6,9.26-2.72,9.26-2.72Z"/>
  <path class="cls-3" d="m216.05,124.68l-.64-2.81,5.51,1.71,1.56,1.65-3.74,4.43-5.61-1.91,2.92-3.06Z"/>
  <path class="cls-3" d="m186.21,124.02c.18-.15.28-.25.28-.25-.07.06-.12.12-.17.18-.03.02-.07.04-.1.07h0Z"/>
  <path class="cls-3" d="m179.2,130.17c.38-.32,5.63-4.94,6.97-6.12-1.54,1.33-.06,5.58,3.34,9.54,3.42,3.98,7.49,6.15,9.08,4.85.06-.05.1-.11.15-.16.04-.03.09-.05.13-.08,0,0-6.95,6.12-7.28,6.39-1.75,1.44-5.93-.62-9.36-4.61-3.42-3.98-4.78-8.38-3.03-9.82Z"/>
  <path class="cls-8" d="m179.86,114.73c4.97,1.27,10.39-3.14,12.1-9.84,1.71-6.7-.93-13.17-5.91-14.44-.51-.13-1.03-.2-1.55-.21,1.44-.61,2.93-.78,4.38-.41,4.97,1.27,7.44,8.41,5.52,15.95-1.93,7.54-7.52,12.63-12.49,11.36-1.81-.47-3.29-1.71-4.35-3.47.7.48,1.46.84,2.29,1.06h.01Z"/>
  <path class="cls-6" d="m183.79,99.14c.27-3.44-.4-6.71-1.76-9.51l2.48.6c.52.02,1.04.08,1.55.21,4.97,1.27,7.61,7.73,5.91,14.44-1.71,6.7-7.13,11.11-12.1,9.84-.83-.21-1.6-.57-2.29-1.06l-2.23-.59c4.61-2.62,7.97-7.78,8.45-13.94h0Z"/>
  <path class="cls-4" d="m158.96,108.92s-.06-.03-.09-.05c.03.02.06.03.09.05Z"/>
  <path class="cls-4" d="m157.87,108.16s-.09-.07-.13-.1c.04.04.09.07.13.1Z"/>
  <path class="cls-4" d="m159.55,109.22c-.05-.02-.1-.05-.15-.08.05.03.1.05.15.08Z"/>
  <path class="cls-4" d="m153.58,97.69c0,4.1,1.43,7.74,3.71,9.95,1.81,1.95,4.17,3.21,6.82,3.42,6.38.5,12.04-5.29,12.64-12.93s-4.09-14.24-10.47-14.74c-2.65-.21-5.17.67-7.27,2.31-2.6,1.83-4.58,5.2-5.21,9.25,1.19-7.76,7.14-13.45,13.8-12.93,7.05.55,12.23,7.84,11.57,16.29-.66,8.44-6.91,14.84-13.96,14.28-6.67-.52-11.65-7.07-11.62-14.92h0Z"/>
  <path class="cls-4" d="m153.59,97.04c0,.14,0,.27-.01.41,0-.13,0-.27.01-.41Z"/>
  <path class="cls-4" d="m160.09,109.46s-.07-.03-.09-.04c.03.01.07.03.09.04Z"/>
  <path class="cls-4" d="m153.76,95.22c-.02.13-.04.27-.05.4.02-.13.04-.27.05-.4Z"/>
  <path class="cls-4" d="m159.52,85.38s.09-.05.14-.08c-.05.03-.1.05-.14.08Z"/>
  <path class="cls-4" d="m160.76,84.76s.07-.02.1-.04c-.03.01-.07.02-.1.04Z"/>
  <path class="cls-4" d="m162.63,84.28c.05,0,.1-.01.15-.02-.05,0-.1.01-.15.02Z"/>
  <path class="cls-3" d="m236.22,308.45l-4.96-109-75.05,61.79-2.32,18.88-.82,6.65,19.88,5.19,63.26,16.5Z"/>
  <path class="cls-6" d="m235.76,298.12l.47,10.33-63.26-16.5-15.99-4.17-3.89-1.02.29-2.38c-8.09.28-15.82.96-22.99,1.97-2.16.86-4.55,1.31-7.1,1.37-8.16,1.16-17.76,4.17-21.21,5.51-.02,0,0-.04,0-.06-12.34,4.67-19.83,10.83-19.94,17.69-.24,15.39,36.88,28.44,82.89,29.14,46.01.7,83.5-11.21,83.74-26.6.09-5.55-4.69-10.8-13-15.27h0Zm-112.47,5.27c0,.36-.24.71-.65,1.03v10.52c0,1.45-4.45,2.64-9.96,2.64s-9.95-1.18-9.95-2.64c0-.64-.12-6.78-.14-10.62-.34-.29-.52-.61-.52-.93v-5.64c0-1.67,4.75-3.03,10.61-3.03s10.61,1.36,10.61,3.03v5.64h0Zm49.68,13.31c0,.73-.79,1.39-2.13,1.95v8.83c0,1.9-4.45,3.44-9.94,3.44s-9.94-1.55-9.94-3.44c0-.91-.14-7.03-.15-8.89-1.25-.54-1.98-1.19-1.98-1.89v-6.42c0-1.9,5.4-3.44,12.07-3.44s12.07,1.55,12.07,3.44v6.42Z"/>
  <g class="cls-9">
    <path class="cls-8" d="m190.51,90.5s-.03-.02-.04-.03v-.04l13.55,4.49c3.53-3.13,6.92-6.09,8.67-7.53,4.59-3.77,3.22-6.72,2.6-8.3-.62-1.58,1.61-2.61,3.76-4.43,2.15-1.81,1.39-4.56.49-6.76-.89-2.21,1.22-3.34,1.22-3.34h-.02c-.96-.25-2.09-.82-3.23-1.67l-28.12,27.11c.38.13.75.3,1.1.51h0Z"/>
    <path class="cls-8" d="m178.93,100.09c-.07.39-.15.79-.25,1.18.1-.38.18-.78.25-1.18Z"/>
  </g>
  <g class="cls-10">
    <path class="cls-8" d="m182.03,89.64c-.06-.12.06.13,0,0l2.48.6c1.44-.61,2.94-.78,4.38-.41.18.05.35.1.52.16l28.12-27.11c-.87-.65-1.75-1.45-2.59-2.38-2.08-2.33-3.31-4.85-3.38-6.6l-11,10.77s-1.74,1.62-1.68,4.46c.06,2.84-3.17,7.3-12.73,14.93,0,0-2.72,2.02-4,.4-1.29-1.63.95-2.64,1.37-2.27,0,0-1.12-1.2-4.57,2.27-.34.34-.65.66-.94.97,1.13.45,1.85.84,1.85.84.93,1.12,1.52,2.11,2.17,3.37h0Z"/>
  </g>
</svg>