<?xml version="1.0" encoding="UTF-8"?>
<svg id="Nights_logs" data-name="Nights logs" xmlns="http://www.w3.org/2000/svg" viewBox="0 0 400 400">
  <defs>
    <style>
      .cls-1 {
        fill: none;
      }

      .cls-1, .cls-2, .cls-3, .cls-4, .cls-5, .cls-6 {
        stroke-width: 0px;
      }

      .cls-2 {
        opacity: .6;
      }

      .cls-2, .cls-3, .cls-4 {
        isolation: isolate;
      }

      .cls-2, .cls-3, .cls-4, .cls-6 {
        fill: #fff;
      }

      .cls-3 {
        opacity: .2;
      }

      .cls-4 {
        opacity: .8;
      }

      .cls-5 {
        fill: #1c724e;
      }
    </style>
  </defs>
  <rect class="cls-5" y="0" width="400" height="400" rx="40" ry="40"/>
  <rect class="cls-1" x="71" y="60" width="257.57" height="280"/>
  <path class="cls-3" d="m265.67,179.11l-172.02.09-17.36,121.66h202.37l-12.99-121.74Z"/>
  <path class="cls-6" d="m326.09,312.72c-3.07,6.96-9.92,14.31-25.22,13.57l-227.93-1.81-.7,4.93c-.65,4.61,2.91,8.74,7.56,8.78l219.12,1.76c28.36,1.37,27.45-25.42,27.45-25.42,0,0-.1-.65-.27-1.81h-.02Z"/>
  <path class="cls-6" d="m328.57,300.85s0-.09-.03-.22l.03.22Z"/>
  <path class="cls-6" d="m111.82,190.5h11.23l-8.16,73.51h-11.23l8.16-73.51Z"/>
  <path class="cls-6" d="m193.07,235.65c0,19.74-16.75,28.34-32.56,28.34-17.7,0-31.34-10.58-31.34-27.45,0-17.86,14.32-28.34,32.42-28.34s31.48,11.13,31.48,27.45Zm-51.88.55c0,11.69,8.24,20.5,19.85,20.5s19.86-8.71,19.86-20.73c0-9.05-5.53-20.5-19.58-20.5s-20.13,10.59-20.13,20.73Z"/>
  <path class="cls-6" d="m256.4,209.76l.94,15.21,1.95,32.11c0,12.68-2.92,22.11-9.15,26.9-6.23,5.04-15.26,6.62-23.35,6.62s-16.18-1.6-21.37-4.57l2.92-7.67c4.25,2.29,10.88,4.35,18.85,4.35,11.95,0,20.71-7,20.71-20.96v-6.18h-.27c-3.58,5.14-10.48,9.25-20.43,9.25-15.93,0-27.33-11.66-27.33-26.99,0-18.74,14.2-29.38,28.94-29.38,11.15,0,15.07,4.83,17.86,9.41h.27l-.7-8.16h10.23l-.03.05Zm-9.51,21.66c0-1.71-.14-3.19-.67-4.58-2.12-5.84-6.98-10.46-15.47-10.46-11.15,0-19.1,8.13-19.1,20.93,0,10.86,6.37,19.89,18.99,19.89,7.17,0,12.82-4.06,15.35-10.47.67-1.71.92-3.65.92-5.38v-9.95l-.02.02Z"/>
  <path class="cls-2" d="m285.29,179.11h24.11c-7.68-48.89-15.02-95.71-16.25-103.92-2.71-18.16-20.44-14.97-20.44-14.97l12.58,118.89Z"/>
  <path class="cls-2" d="m252.99,60.22H110.61l-16.95,118.98,172.02-.09-12.68-118.89Z"/>
  <path class="cls-4" d="m252.99,60.22l28.41,266.12,19.46-.05-28.15-266.07h-19.72Z"/>
  <path class="cls-3" d="m298.18,300.85h30.39l-19.17-121.76-24.11.02,12.89,121.74Z"/>
  <path class="cls-2" d="m278.67,300.85H76.29l10.72-75.17-14.08,98.78,208.43,1.67-2.7-25.28Z"/>
  <path class="cls-2" d="m328.57,300.85h-30.39l2.7,25.42c28.61,1.37,27.69-25.42,27.69-25.42Z"/>
</svg>