<?xml version="1.0" encoding="UTF-8"?>
<svg id="Uranus" xmlns="http://www.w3.org/2000/svg" viewBox="0 0 400 400">
  <defs>
    <style>
      .cls-1 {
        fill: #e3e3e3;
      }

      .cls-1, .cls-2, .cls-3 {
        stroke-width: 0px;
      }

      .cls-2 {
        fill: #1e1e1c;
        isolation: isolate;
        opacity: .2;
      }

      .cls-3 {
        fill: #87bdce;
      }
    </style>
  </defs>
  <path class="cls-3" d="M196.56,353.59c90.68,0,164.2-73.51,164.2-164.2S287.24,25.19,196.56,25.19,32.36,98.71,32.36,189.39s73.51,164.2,164.2,164.2Z"/>
  <path class="cls-2" d="M142.72,226.94c-42.17-60.22-38.28-138.91,4.29-194.26-15.54,4.92-30.61,12.24-44.67,22.09C28.06,106.78,10,209.17,62.02,283.45c52.01,74.28,154.4,92.34,228.68,40.32,14.06-9.84,26.1-21.5,36.03-34.42-66.57,21.07-141.85-2.19-184.01-62.41Z"/>
  <path class="cls-1" d="M58.18,277.78C13.08,336.74-9.45,382.72,3.73,396.14c21.14,21.53,126.16-48.82,234.55-157.13C346.67,130.69,417.4,25.43,396.26,3.9c-12.59-12.82-54.93,6.94-110.01,47.9l5.12,3.48C338.93,19.54,374.43,1.98,384.38,12.1c17.59,17.92-51.51,115.75-154.34,218.51C127.2,333.38,29.57,402.15,11.98,384.24c-10.48-10.68,9.81-49.71,49.66-101.26l-3.46-5.2Z"/>
</svg>