<?xml version="1.0" encoding="UTF-8"?>
<svg id="Observatoire_verouiller" data-name="Observatoire + verouiller" xmlns="http://www.w3.org/2000/svg" xmlns:xlink="http://www.w3.org/1999/xlink" viewBox="0 0 400 400">
  <defs>
    <style>
      .cls-1 {
        fill: #3b3b3b;
      }

      .cls-1, .cls-2, .cls-3, .cls-4, .cls-5, .cls-6, .cls-7, .cls-8, .cls-9, .cls-10 {
        stroke-width: 0px;
      }

      .cls-2 {
        fill: #231f20;
      }

      .cls-2, .cls-4, .cls-6, .cls-7, .cls-8, .cls-10 {
        isolation: isolate;
      }

      .cls-2, .cls-6 {
        opacity: .9;
      }

      .cls-11 {
        clip-path: url(#clippath);
      }

      .cls-3 {
        fill: none;
      }

      .cls-4 {
        opacity: .2;
      }

      .cls-4, .cls-6, .cls-7, .cls-8, .cls-9, .cls-10 {
        fill: #fff;
      }

      .cls-5 {
        fill: #282727;
      }

      .cls-7 {
        opacity: .6;
      }

      .cls-8 {
        opacity: .8;
      }

      .cls-10 {
        opacity: .4;
      }
    </style>
    <clipPath id="clippath">
      <rect class="cls-3" x="44" y="35" width="71" height="90"/>
    </clipPath>
  </defs>
  <rect class="cls-1" x="0" y="-.55" width="400" height="400" rx="40" ry="40"/>
  <path class="cls-7" d="M121.08,279.39h-11.15c-1.48,0-2.68,1.76-2.68,3.92v56.14h16.51v-56.14c0-2.16-1.2-3.92-2.68-3.92Z"/>
  <path class="cls-7" d="M221.18,206.89s-17.82-93.5-64.61-144.91c0,0-12.72,1.3-21.88,17.25,0,0,14.81-7.19,18.25-7.29,0,0,40.27,65.46,42.26,135.84l25.99-.91v.02Z"/>
  <path class="cls-9" d="M252.23,137.35c3.87-4.52.1-14.1-8.43-21.41-8.53-7.31-18.57-9.57-22.45-5.06-3.87,4.52-.1,14.1,8.43,21.41,8.52,7.31,18.57,9.57,22.45,5.06Z"/>
  <path class="cls-4" d="M227.11,135.42c-9.92-8.51-15.16-19.24-13.39-26.13v-.08l-4.02,6.2c10.26,17.43,20.74,39.9,26.45,65.55l21.98-38.5c-5.34,6.24-19.22,3.09-31-7.01l-.02-.02Z"/>
  <path class="cls-8" d="M230.18,70.7c8.84,5.32,13.41,10.61,13.41,10.61,46.2,35.21,62.86,122.54,62.88,122.6l22.05-.77c0-.87.02-1.77.02-2.64,0-61.81-41.61-113.88-98.34-129.79h-.02Z"/>
  <path class="cls-10" d="M240.48,206.2h-.51c-5.75-73.83-57.97-129.22-57.97-129.22,18.21-1.85,26.88,0,26.88,0,73.04,45.55,70.58,127.86,70.58,127.88l26.98-.93s-16.66-87.39-62.88-122.6c0,0-15.54-18.23-45.39-20.97s-41.61,1.65-41.61,1.65c46.77,51.4,64.61,144.89,64.61,144.89l19.3-.67v-.02Z"/>
  <path class="cls-7" d="M246.47,112.84c-11.78-10.1-25.66-13.25-31-7.01-5.34,6.24-.12,19.48,11.66,29.58,11.78,10.1,25.66,13.25,31,7.01,5.34-6.24.12-19.49-11.66-29.58Z"/>
  <path class="cls-2" d="M209.7,115.38l4.02-6.2v.08c.32-1.3.89-2.46,1.73-3.45,5.34-6.24,19.22-3.09,31,7.01,2.66,2.28,4.96,4.73,6.91,7.21-10.26-15.48-24.56-30.64-44.5-43.07,0,0-8.68-1.85-26.88,0,0,0,13.59,14.45,27.67,38.4l.04.02Z"/>
  <path class="cls-2" d="M258.07,127.59c2.72,5.93,2.99,11.44.06,14.83l-21.98,38.5c1.81,8.15,3.15,16.58,3.84,25.3l39.5-1.38s1.14-38.4-21.42-77.27v.02Z"/>
  <path class="cls-6" d="M61.74,280.02v34.74h45.5v-32.59c0-2.21,1.96-4,4.39-4h18.23c2.42,0,4.39,1.79,4.39,4v32.59h194.28v-64.59c-231.87-5.24-266.81,29.85-266.81,29.85h.02Z"/>
  <path class="cls-9" d="M107,314.76h-48.01c-2.21,0-4,1.79-4,4v20.69h52.01v-24.69Z"/>
  <path class="cls-9" d="M330.35,314.76h-196.85v24.69h201.17v-20.69c0-2.21-1.94-4-4.33-4Z"/>
  <path class="cls-6" d="M195.13,205.4c-.06-1.38-.13-2.76-.2-4.15-.04-.65-.1-1.3-.14-1.93-.1-1.52-.2-3.07-.35-4.59-.06-.71-.16-1.42-.22-2.13-.14-1.44-.28-2.91-.47-4.33-.08-.71-.2-1.42-.28-2.13-.18-1.42-.37-2.87-.59-4.29-.1-.67-.22-1.32-.32-1.99-.22-1.46-.47-2.93-.71-4.37-.1-.61-.22-1.22-.35-1.83-.29-1.48-.55-2.97-.85-4.45-.12-.59-.24-1.16-.36-1.73-.31-1.48-.63-2.97-.96-4.45-.12-.55-.26-1.08-.39-1.6-.35-1.5-.71-2.99-1.08-4.47-.12-.49-.24-.96-.39-1.44-.39-1.5-.79-3.03-1.2-4.51-.12-.43-.24-.85-.37-1.28-.43-1.52-.85-3.05-1.3-4.53-.12-.39-.24-.77-.37-1.18-.45-1.52-.91-3.03-1.38-4.51-.1-.35-.22-.69-.35-1.04-.49-1.52-.97-3.03-1.48-4.51-.1-.29-.2-.55-.28-.83-.53-1.52-1.04-3.05-1.57-4.53-.1-.26-.18-.51-.28-.77-.55-1.5-1.08-2.99-1.63-4.45-.08-.22-.16-.43-.24-.65-.55-1.48-1.12-2.95-1.69-4.37-.08-.18-.14-.37-.22-.55-.57-1.44-1.14-2.88-1.71-4.27-.06-.16-.12-.31-.2-.47-.59-1.4-1.16-2.8-1.73-4.15-.06-.14-.12-.28-.18-.43-.57-1.36-1.16-2.68-1.73-3.96-.06-.12-.12-.24-.16-.39-.57-1.3-1.16-2.58-1.71-3.8-.04-.08-.08-.16-.12-.24-.57-1.26-1.16-2.5-1.71-3.68-.04-.08-.08-.16-.12-.24-.57-1.18-1.12-2.34-1.65-3.43-.04-.06-.06-.14-.1-.2-.55-1.12-1.08-2.17-1.59-3.21-.04-.06-.06-.12-.1-.18-.51-1.02-1.02-2.01-1.48-2.95-.04-.06-.06-.12-.1-.2-.47-.93-.93-1.81-1.38-2.66-.04-.06-.06-.12-.1-.2-.43-.83-.85-1.63-1.26-2.36-.04-.06-.06-.12-.1-.2-.39-.73-.77-1.42-1.12-2.07-.04-.06-.06-.12-.1-.18-.35-.63-.67-1.22-.98-1.75-.04-.08-.08-.14-.12-.22-.29-.51-.55-.98-.79-1.4-.04-.08-.08-.16-.14-.24-.22-.39-.43-.73-.61-1.04-.04-.08-.08-.14-.12-.22-.16-.26-.3-.51-.41-.69-.04-.08-.08-.14-.12-.22-.08-.12-.16-.26-.2-.35-.04-.08-.1-.16-.12-.2l-.08-.04c-3.51.18-18.21,7.29-18.21,7.29v.08c-44.96,21.88-75.89,67.9-75.89,121.18,0,3.26.12,6.51.35,9.72"/>
  <path class="cls-7" d="M61.72,228.51v51.51s34.94-35.09,266.81-29.85v-21.68H87.01v.02"/>
  <path class="cls-9" d="M330.82,228.51c2.13,0,3.85-1.79,3.85-4v-17.8c0-2.26-1.81-4.08-3.99-4l-273.68,1.18c-1.67,0-3.02,1.41-3.02,3.15v21.45"/>
  <rect class="cls-9" x="20" y="20" width="120" height="120" rx="20" ry="20"/>
  <g class="cls-11">
    <path class="cls-5" d="M77.58,35h3.84c.15.04.3.12.45.13,2.82.22,5.55.83,8.17,1.89,7.6,3.06,12.96,8.36,16.11,15.83,1.66,3.94,2.12,8.08,2.09,12.31-.03,4.57,0,2.28-.02,6.85,0,.8.26,1.2,1.04,1.43,1.01.29,1.99.68,2.98,1.05,1.76.65,2.75,1.96,2.76,3.8.01,12.27.01,24.53,0,36.8,0,1.83-.94,3.13-2.65,3.79-7.83,3.04-15.94,4.96-24.32,5.74-6.12.58-12.25.52-18.37-.15-7.92-.86-15.57-2.74-22.98-5.6-1.71-.66-2.65-1.96-2.65-3.79-.01-12.27-.01-24.53,0-36.8,0-1.84,1-3.15,2.76-3.8.96-.35,1.91-.73,2.89-1.01.85-.24,1.14-.68,1.13-1.56-.04-4.85-.01-2.85-.02-7.7,0-4.87.91-9.53,3.24-13.85,3.88-7.17,9.74-11.98,17.67-14.22,1.92-.54,3.93-.77,5.9-1.13ZM98.27,70.42c.03-.32.05-.47.05-.62,0-4.63.08-2.4-.04-7.03-.23-9.68-8.01-17.47-17.82-17.97-10.55-.53-19.49,7.55-19.75,17.95-.11,4.63-.03,2.4-.03,7.03,0,.18.05.36.1.62,12.49-2.6,24.95-2.6,37.5.01h0ZM79.54,112.54c2.23-.01,3.83-1.67,3.84-4.07.03-3.88.02-7.75,0-11.62,0-.64.21-1,.73-1.39,2.32-1.75,3.47-4.03,3.11-6.98-.41-3.35-3.1-6.19-6.37-6.64-3.78-.52-7.19,1.32-8.56,4.61-1.35,3.25-.38,6.84,2.51,8.93.63.45.82.91.81,1.63-.03,3.81-.04,7.62,0,11.44.02,2.45,1.65,4.1,3.93,4.08h0Z"/>
  </g>
</svg>