<?xml version="1.0" encoding="UTF-8"?>
<svg id="Night_Plans-mini" data-name="Night Plans-mini" xmlns="http://www.w3.org/2000/svg" viewBox="0 0 400 400">
  <defs>
    <style>
      .cls-1 {
        fill: none;
      }

      .cls-1, .cls-2, .cls-3 {
        stroke-width: 0px;
      }

      .cls-4 {
        fill: #1c2072;
        stroke: #fff;
        stroke-miterlimit: 10;
        stroke-width: 3px;
      }

      .cls-2 {
        isolation: isolate;
        opacity: .8;
      }

      .cls-2, .cls-3 {
        fill: #fff;
      }
    </style>
  </defs>
  <rect class="cls-4" x="7.94" y="5.6" width="381.21" height="384.53" rx="107.91" ry="107.91"/>
  <g>
    <rect class="cls-1" x="17.37" y="17.07" width="365.26" height="365.87"/>
    <path class="cls-2" d="M285.51,292.31l-91.53-29.85-3.39-82.49-52.67-32.47-63.69,16.3-2.83-11.85,68.41-17.51,58.97,36.35,135.99,48.34-49.23,73.17h0ZM205.43,253.4l75.34,24.56,35.34-52.54-113.5-40.34,2.8,68.31h0Z"/>
    <path class="cls-3" d="M323.51,244.22c12.6,0,22.83-10.57,22.83-23.6s-10.23-23.6-22.83-23.6-22.83,10.57-22.83,23.6,10.23,23.6,22.83,23.6Z"/>
    <path class="cls-3" d="M198.54,201.6c12.6,0,22.83-10.57,22.83-23.6s-10.23-23.6-22.83-23.6-22.83,10.57-22.83,23.6,10.23,23.6,22.83,23.6Z"/>
    <path class="cls-3" d="M137.36,165.63c12.6,0,22.83-10.57,22.83-23.6s-10.23-23.6-22.83-23.6-22.83,10.57-22.83,23.6,10.23,23.6,22.83,23.6Z"/>
    <path class="cls-3" d="M76.49,179.15c12.6,0,22.83-10.24,22.83-22.87s-10.23-22.87-22.83-22.87-22.83,10.24-22.83,22.87,10.23,22.87,22.83,22.87Z"/>
    <path class="cls-3" d="M202.27,280.17c12.6,0,22.83-10.57,22.83-23.6s-10.23-23.6-22.83-23.6-22.83,10.57-22.83,23.6,10.23,23.6,22.83,23.6Z"/>
    <path class="cls-3" d="M282.59,306.63c12.6,0,22.83-10.57,22.83-23.6s-10.23-23.6-22.83-23.6-22.83,10.57-22.83,23.6,10.23,23.6,22.83,23.6Z"/>
  </g>
</svg>