<?xml version="1.0" encoding="UTF-8"?>
<svg id="Explore" xmlns="http://www.w3.org/2000/svg" viewBox="0 0 400 400">
  <defs>
    <style>
      .cls-1 {
        opacity: .2;
      }

      .cls-1, .cls-2, .cls-3, .cls-4, .cls-5, .cls-6, .cls-7, .cls-8, .cls-9 {
        stroke-width: 0px;
      }

      .cls-1, .cls-2, .cls-3, .cls-4, .cls-5, .cls-9 {
        isolation: isolate;
      }

      .cls-1, .cls-2, .cls-3, .cls-4, .cls-6, .cls-8, .cls-9 {
        fill: #fff;
      }

      .cls-2 {
        opacity: .6;
      }

      .cls-3 {
        opacity: .6;
      }

      .cls-4 {
        opacity: .8;
      }

      .cls-5 {
        fill: #200000;
        opacity: .8;
      }

      .cls-6, .cls-9 {
        opacity: .4;
      }

      .cls-7 {
        fill: #bf2025;
      }
    </style>
  </defs>
  <path class="cls-8" d="M353.24,150.94c10.27-8.69.74-34.75-21.29-58.21-22.03-23.46-48.22-35.44-58.5-26.76-10.27,8.69-.74,34.75,21.29,58.21,22.03,23.46,48.22,35.44,58.5,26.76Z"/>
  <path class="cls-3" d="M292.82,125.82c23.57,25.1,51.87,37.68,63.21,28.09,11.34-9.59,1.43-37.71-22.14-62.81-23.57-25.1-51.87-37.68-63.21-28.09-11.34,9.59-1.43,37.71,22.15,62.81ZM273.46,65.97c10.28-8.69,36.47,3.3,58.5,26.76,22.04,23.46,31.56,49.53,21.29,58.22-10.28,8.69-36.47-3.3-58.5-26.76-22.04-23.46-31.56-49.53-21.29-58.22Z"/>
  <path class="cls-8" d="M166.61,126.36c.24-2.9-1.5-5.39-3.88-5.57-2.38-.18-4.5,2.03-4.74,4.93-.24,2.9,1.5,5.39,3.88,5.57,2.38.18,4.5-2.03,4.74-4.93Z"/>
  <path class="cls-4" d="M161.99,115.35c4.81.35,8.32,5.4,7.83,11.26-.48,5.86-4.78,10.32-9.58,9.96-4.81-.35-8.32-5.4-7.83-11.26.49-5.86,4.78-10.32,9.58-9.96Z"/>
  <path class="cls-1" d="M155.48,140.22s-.08-.04-.12-.07c.04.02.08.04.12.07Z"/>
  <path class="cls-1" d="M154.09,139.32c-.06-.04-.11-.09-.16-.13.06.05.11.09.16.13Z"/>
  <path class="cls-1" d="M156.23,140.59c-.07-.03-.13-.06-.19-.09.06.03.13.06.19.09Z"/>
  <path class="cls-6" d="M162.74,120.8c2.38.17,4.11,2.67,3.87,5.57-.24,2.9-2.36,5.1-4.74,4.93-2.38-.17-4.11-2.67-3.87-5.57.24-2.9,2.36-5.1,4.74-4.93Z"/>
  <path class="cls-1" d="M148.66,125.9c0,.17,0,.33-.01.49,0-.16,0-.33.01-.49Z"/>
  <path class="cls-1" d="M148.87,123.7c-.03.16-.05.32-.07.48.02-.16.05-.32.07-.48Z"/>
  <path class="cls-1" d="M156.2,111.83c.06-.03.12-.07.18-.1-.06.03-.12.07-.18.1Z"/>
  <path class="cls-1" d="M157.77,111.08s.08-.03.13-.05c-.04.01-.08.03-.13.05Z"/>
  <path class="cls-1" d="M160.15,110.5c.06,0,.13-.01.2-.02-.06,0-.13.01-.2.02Z"/>
  <rect class="cls-7" width="400" height="400" rx="40" ry="40"/>
  <path class="cls-2" d="M83.76,309.39l-8.53,6.77c-.9.71-1.31,1.87-1.06,3,.52,2.43,2.14,6.55,7.08,8.95.99.48,2.18.33,3.05-.34l9.1-6.89-9.64-11.48Z"/>
  <g>
    <path class="cls-2" d="M325.38,193.41l39.65-32.42c2.8-2.29,3.94-6.04,2.92-9.51-4.54-15.42-21.08-57.46-71.31-82.27-3.21-1.59-7.08-1.05-9.78,1.3l-37.54,32.57s58.67,35.57,76.07,90.33Z"/>
    <path class="cls-2" d="M93.62,238.13s4.82,50.01,69.56,87.92l12.54-10.25s-62.64-33.74-69.53-88.58l-12.57,10.91Z"/>
    <path class="cls-2" d="M114.09,199.19l15.2-13.97s-5.66-13.96-17.91-19.3l-13.99,11.87s14.7,11.89,16.7,21.4Z"/>
    <path class="cls-2" d="M68.27,241.31l-16.65,15.31c-18.01-5.55-19.93-23.08-19.93-23.08l14.21-12.06s4.79,15.06,22.37,19.84Z"/>
    <path class="cls-5" d="M249.31,103.08l-143.11,124.14h0c6.88,54.84,69.53,88.58,69.53,88.58l-12.54,10.25c-64.74-37.91-69.56-87.92-69.56-87.92l-22.16,19.22c-2.11,1.83-3.25,4.54-3.08,7.33.89,14.72,8.27,61,65.32,80.12,2.91.97,6.12.36,8.49-1.58l183.18-149.81c-17.39-54.75-76.07-90.33-76.07-90.33Z"/>
    <polygon class="cls-9" points="106.2 227.22 93.62 238.13 83.15 227.63 98.37 213.64 106.2 227.22"/>
    <path class="cls-5" d="M114.09,199.19c-2-9.51-16.7-21.4-16.7-21.4l-51.49,43.68h0s4.79,15.06,22.37,19.84h0l45.82-42.12Z"/>
  </g>
</svg>