<?xml version="1.0" encoding="UTF-8"?>
<svg xmlns="http://www.w3.org/2000/svg" viewBox="0 0 400 400">
  <defs>
    <style>
      .cls-1 {
        fill: none;
      }

      .cls-1, .cls-2, .cls-3, .cls-4, .cls-5, .cls-6, .cls-7 {
        stroke-width: 0px;
      }

      .cls-8, .cls-9, .cls-10 {
        stroke: #fff;
      }

      .cls-8, .cls-9, .cls-10, .cls-11 {
        stroke-miterlimit: 10;
      }

      .cls-8, .cls-10, .cls-4, .cls-6 {
        fill-rule: evenodd;
      }

      .cls-8, .cls-10, .cls-11 {
        stroke-width: 2px;
      }

      .cls-8, .cls-3, .cls-4, .cls-5, .cls-11, .cls-6 {
        fill: #fff;
      }

      .cls-9 {
        fill: #3a3376;
      }

      .cls-9, .cls-10, .cls-3, .cls-4, .cls-6, .cls-7 {
        isolation: isolate;
      }

      .cls-2 {
        fill: #37007d;
      }

      .cls-10 {
        fill: #00000c;
      }

      .cls-3 {
        opacity: .8;
      }

      .cls-4 {
        opacity: .4;
      }

      .cls-11 {
        stroke: #36a9e1;
      }

      .cls-6 {
        opacity: .1;
      }

      .cls-7 {
        fill: #9a8ce0;
      }
    </style>
  </defs>
  <g id="Dataset">
    <rect class="cls-1" x="-457.82" y="-28.45" width="478.8" height="478.8"/>
  </g>
  <g id="Data_package" data-name="Data package">
    <rect class="cls-2" y="0" width="400" height="400" rx="40" ry="40"/>
    <g>
      <path class="cls-6" d="M204.9,103.09l1.05-.49-1.05-.45v.94ZM289.18,176.77l48.62-17.91-48.62-20.74v38.65Z"/>
      <path class="cls-7" d="M308.57,173.51l-110.31,37.74-22.95-7.86-1.46-92.34,134.72-40.29v102.75Z"/>
      <path class="cls-11" d="M266.06,107.02s.93-7.41,3.72-1.02c2.79,6.39,5.94,12.43,17.32,11.24,0,0,6.24-.72,1.62,3.43-4.62,4.15-9.43,7.82-12.68,13.8-3.25,5.98-6.41,11.63-6.94,16.08-.53,4.45-2.57,1.78-3.02,0-.43-1.91-7.5-12.92-18.23-11.63,0,0-7.03.33-.61-3.26,6.41-3.59,15.65-13.56,18.84-28.62l-.02-.02Z"/>
      <path class="cls-11" d="M220.77,146.09s1.55-6.78,3.09,0c1.53,6.78,7.39,9.78,11.84,8.4,4.45-1.38,5.11,1.2,1.81,2.91-4.46,2.5-13.95,17.58-13.95,22.31s-2.5,3.05-2.79,0c-1.18-4.3-5.8-8.45-14.86-7.31,0,0-4.48.22-.92-3.11,3.56-3.33,12.31-6.22,15.78-23.18v-.02Z"/>
      <path class="cls-4" d="M113.78,174.23l-.4-33.01-41.32,17.64,41.72,15.37Z"/>
      <path class="cls-10" d="M245.87,88.64l-58.66,19.58,1.32,93.13-87.03-33.24-.82-79.68,145.18-48.2v48.42Z"/>
      <path class="cls-8" d="M223.93,67.21l-1.11-9.47-1.9,9.33-6.57,32.2,3.36-1.13,4.29-21.06,2.21,18.87,2.96-1-3.25-27.73ZM133.21,184.44l3.96-1.75.54-.24.25-.56,4.93-11.1,1.95,2.57,1.49,1.96,1.07-2.23,12.73-26.49.11-.23.04-.26,3.87-27.12,3.51,18.96.08.42.27.33,7.52,9.03,1.36,1.63,1.09-1.84,8.79-14.77,1.94-.66-.05-3.36-3.37,1.15-.53.18-.3.49-7.99,13.43-5.89-7.08-5.13-27.69-1.7-9.16-1.32,9.23-5.15,36.1-11.54,24.02-2-2.64-1.54-2.03-1.04,2.35-5.73,12.88-6.43,2.85,4.2,1.62ZM114.31,177.14l1.91-7.05,3.53,9.15,3.88,1.5-6.24-16.19-1.67-4.33-1.22,4.5-3.06,11.31,2.88,1.11Z"/>
      <path class="cls-5" d="M337.8,158.86l-132.89,48.96,49.87,67.18,131.29-53.76-48.26-62.37Z"/>
      <path class="cls-5" d="M337.8,158.86l-132.89,48.96,49.87,67.18,131.29-53.76-48.26-62.37Z"/>
      <polygon class="cls-3" points="254.77 274.99 204.91 207.81 204.91 366.3 342.26 312.63 340.16 240.03 254.77 274.99"/>
      <polygon class="cls-9" points="155.09 274.99 69.7 240.03 67.6 312.63 204.9 366.3 204.9 207.81 155.09 274.99"/>
      <path class="cls-5" d="M72.06,158.86l132.84,48.96-49.82,67.18L23.8,221.23l48.26-62.37Z"/>
    </g>
  </g>
</svg>