<?xml version="1.0" encoding="UTF-8"?>
<svg id="Explore" xmlns="http://www.w3.org/2000/svg" viewBox="0 0 400 400">
  <defs>
    <style>
      .cls-1, .cls-2, .cls-3, .cls-4, .cls-5, .cls-6 {
        stroke-width: 0px;
      }

      .cls-1, .cls-5 {
        fill: #9b1111;
      }

      .cls-2 {
        fill: none;
      }

      .cls-3, .cls-7, .cls-4, .cls-5, .cls-8 {
        isolation: isolate;
      }

      .cls-3, .cls-6 {
        fill: #fff;
      }

      .cls-7 {
        stroke-width: 4px;
      }

      .cls-7, .cls-8 {
        fill: #e6332a;
        stroke: #e6332a;
        stroke-miterlimit: 10;
      }

      .cls-4 {
        fill: #470000;
      }

      .cls-8 {
        stroke-width: 3px;
      }
    </style>
  </defs>
  <path class="cls-7" d="M21.24,272.38c3.29-2.85,13.24-13.6,19.55-15.11.02,0,.03,0,.04,0-1.49.81-2.9,1.77-4.19,2.89-15.53,13.47-10.05,44.14,12.26,68.51,22.29,24.36,52.96,33.2,68.49,19.73,1.01-.87,1.92-1.82,2.75-2.83h0c-1.41,3.64-11.92,16.16-14.83,18.69-15.53,13.47-46.94,3.82-70.15-21.54-23.21-25.37-29.44-56.86-13.91-70.33Z"/>
  <path class="cls-6" d="M375.25,136.84c11.59-10.06.84-40.23-24.02-67.39-24.86-27.17-54.41-41.03-66-30.98-11.59,10.06-.84,40.23,24.02,67.39,24.86,27.16,54.41,41.03,66,30.98Z"/>
  <path class="cls-8" d="M307.08,107.76c26.59,29.06,58.53,43.62,71.32,32.52,12.8-11.1,1.61-43.66-24.98-72.72-26.59-29.06-58.53-43.62-71.32-32.52-12.8,11.1-1.61,43.66,24.99,72.72ZM285.24,38.47c11.6-10.06,41.14,3.82,66,30.98,24.86,27.16,35.61,57.34,24.02,67.4-11.6,10.06-41.14-3.82-66-30.98-24.86-27.16-35.61-57.34-24.02-67.4Z"/>
  <path class="cls-4" d="M37.42,259.34c1.29-1.11,2.68-2.06,4.16-2.88h0l136.16-123.67,11.87,3.93,7.34-6.16,2.61-2.19,21.03,7.37.49,2.11,7.91,2.39-1.79-5.75c-3.16-.06-7.88-2.83-11.92-7.27-5.2-5.73-7.26-12.04-4.61-14.11.42-.33,4.74-3.93,7.85-6.52l-.68-2.16-6.55-2.11,48-43.59c-3.52,14.81,7.91,40.88,29.64,64.62,21.88,23.91,47.36,37.99,62.84,36.06h0l-230.89,185.36c-.83,1.01-1.74,1.95-2.75,2.82-15.53,13.47-46.2,4.64-68.49-19.73-22.29-24.36-27.78-55.04-12.25-68.51h0Z"/>
  <rect class="cls-2" x="37.45" y="39.35" width="371" height="432.94"/>
  <path class="cls-3" d="M161.09,129.59c10.11.77,19.08-8.16,20.03-19.95.95-11.79-6.48-21.97-16.59-22.74-10.12-.77-19.08,8.16-20.03,19.95-.95,11.79,6.48,21.97,16.6,22.74ZM149.73,122.66c1.89,1.79,4.19,2.92,6.74,3.11,7.42.57,14.06-6.99,14.86-16.87.8-9.89-4.57-18.35-11.98-18.92-2.55-.19-5,.57-7.15,2.05,3-2.3,6.62-3.52,10.42-3.23,9.16.7,15.87,9.92,15.01,20.59-.86,10.67-8.97,18.75-18.13,18.05-3.8-.29-7.18-2.05-9.78-4.78h0Z"/>
  <path class="cls-3" d="M161.09,129.59c10.11.77,19.08-8.16,20.03-19.95.95-11.79-6.48-21.97-16.59-22.74-10.12-.77-19.08,8.16-20.03,19.95-.95,11.79,6.48,21.97,16.6,22.74ZM149.73,122.66c1.89,1.79,4.19,2.92,6.74,3.11,7.42.57,14.06-6.99,14.86-16.87.8-9.89-4.57-18.35-11.98-18.92-2.55-.19-5,.57-7.15,2.05,3-2.3,6.62-3.52,10.42-3.23,9.16.7,15.87,9.92,15.01,20.59-.86,10.67-8.97,18.75-18.13,18.05-3.8-.29-7.18-2.05-9.78-4.78h0Z"/>
  <path class="cls-1" d="M156.48,125.76c7.41.57,14.06-6.99,14.86-16.87.8-9.89-4.57-18.35-11.98-18.92-2.55-.19-5,.57-7.15,2.05,3-2.3,6.62-3.52,10.42-3.23,9.16.7,15.87,9.92,15.01,20.59-.86,10.67-8.97,18.75-18.13,18.05-3.8-.29-7.19-2.05-9.78-4.78,1.89,1.79,4.2,2.92,6.74,3.11h0Z"/>
  <path class="cls-6" d="M164.69,108.38c.27-3.36-1.69-6.24-4.37-6.45-2.69-.2-5.08,2.35-5.35,5.7-.27,3.35,1.69,6.24,4.37,6.44,2.69.21,5.08-2.35,5.35-5.7Z"/>
  <path class="cls-6" d="M252.7,129.22c2.52-2.21.29-8.61-4.97-14.28-5.26-5.67-11.57-8.48-14.09-6.26-2.52,2.21-.29,8.61,4.97,14.28,5.26,5.67,11.57,8.48,14.09,6.26Z"/>
  <path class="cls-3" d="M209.03,165.64c2.22-1.88.03-7.89-4.91-13.43-4.93-5.54-10.74-8.51-12.96-6.63-2.22,1.88-.03,7.89,4.91,13.43,4.93,5.54,10.74,8.51,12.96,6.63Z"/>
  <path class="cls-3" d="M202.23,148.82l-1.92-6.31,11.29-9.47,1.14,6.13-10.5,9.65Z"/>
  <path class="cls-3" d="M212.73,139.17l-1.14-6.13,21.03,7.37,1.41,6.03-21.3-7.27Z"/>
  <path class="cls-3" d="M159.48,95.63c5.43.41,9.39,6.25,8.83,13.04-.55,6.79-5.39,11.95-10.81,11.54-5.43-.41-9.39-6.25-8.83-13.04.55-6.79,5.39-11.95,10.81-11.54Z"/>
  <path class="cls-4" d="M144.45,107.47c0-.1.02-.2.03-.3-.79,11.65,6.59,21.65,16.61,22.42,10.11.77,19.08-8.16,20.03-19.95.67-8.3-2.82-15.81-8.48-19.79,5.18.63,9.46,2.93,9.47,2.93,3.98,4.65,6.2,11.08,5.64,17.99-1.05,13.06-11.59,22.9-23.56,21.99-11.95-.91-20.8-12.24-19.75-25.3h0Z"/>
  <path class="cls-6" d="M226.25,130.65c.34.41.69.82,1.06,1.23.6.66,1.21,1.27,1.83,1.85l-26.92,23.57c-3.48-.4-3.55-3.32-3.55-3.32l27.58-23.33h0Z"/>
  <path class="cls-3" d="M233.11,142.52l7.91,2.38,2.24,2.31-5.36,6.18-8.05-2.66,4.19-4.28-.92-3.93Z"/>
  <path class="cls-3" d="M191.22,145.52c.25-.21.4-.34.4-.34-.09.08-.16.17-.24.25-.05.03-.1.05-.15.09h0Z"/>
  <path class="cls-1" d="M182.12,132.54c7.13,1.77,14.9-4.38,17.35-13.75,2.45-9.36-1.34-18.39-8.47-20.16-.74-.18-1.48-.28-2.22-.3,2.07-.85,4.21-1.08,6.28-.57,7.13,1.77,10.67,11.74,7.91,22.28-2.76,10.53-10.78,17.64-17.91,15.87-2.6-.65-4.72-2.39-6.24-4.85,1,.67,2.09,1.18,3.29,1.48h.02Z"/>
  <path class="cls-3" d="M152.13,124.43s-.09-.04-.13-.08c.05.02.09.04.13.08Z"/>
  <path class="cls-3" d="M150.57,123.38c-.06-.05-.13-.1-.18-.15.06.05.13.1.18.15Z"/>
  <path class="cls-3" d="M152.98,124.85c-.08-.03-.15-.07-.22-.11.07.04.15.07.22.11Z"/>
  <path class="cls-5" d="M195.12,131.04l13.86,4.18-7.34,6.16-19.79-6.55c6.14,2.23,13.28-3.79,13.28-3.79Z"/>
  <path class="cls-5" d="M222.7,117.77c.66-.52,11.05-9.19,11.05-9.19-2.65,2.07-.59,8.39,4.61,14.11,5.2,5.73,11.56,8.69,14.21,6.63,0,0-10.55,8.8-11.05,9.19-2.65,2.07-9.02-.9-14.21-6.63-5.19-5.73-7.26-12.04-4.61-14.11Z"/>
  <path class="cls-5" d="M234.03,146.44l-21.3-7.27-10.5,9.65,22.16,7.47,9.64-9.84Z"/>
  <path class="cls-4" d="M156.48,125.76c7.42.57,14.07-6.99,14.86-16.87.8-9.89-4.57-18.35-11.98-18.92-7.41-.57-14.06,6.99-14.86,16.87-.8,9.89,4.57,18.35,11.98,18.92ZM148.66,107.16c.54-6.79,5.39-11.95,10.81-11.54,5.43.41,9.39,6.25,8.83,13.04-.55,6.79-5.39,11.95-10.81,11.54-5.43-.41-9.39-6.25-8.83-13.04Z"/>
  <path class="cls-6" d="M160.32,101.94c2.68.2,4.64,3.09,4.37,6.44-.27,3.35-2.66,5.91-5.34,5.71-2.68-.2-4.64-3.09-4.37-6.44.27-3.35,2.66-5.91,5.34-5.7Z"/>
  <path class="cls-4" d="M212.64,133.04l-2.61,2.19-13.86-4.18c4.88-3.96,7.63-8.45,8.22-15.84.58-7.2-1.93-13.6-6-16.55v-.06l32.55,10.48.67,2.16c-3.11,2.6-7.43,6.2-7.85,6.52-2.65,2.07-.59,8.39,4.61,14.11,4.03,4.44,8.76,7.21,11.92,7.27l1.79,5.75-7.91-2.39-.49-2.11-21.03-7.37Z"/>
  <path class="cls-3" d="M234.03,146.44l-.92-3.93,7.91,2.38,2.24,2.31-5.36,6.18-8.05-2.66,4.19-4.28Z"/>
  <path class="cls-5" d="M181.17,154.11c.55-.44,8.08-6.9,9.99-8.54-2.22,1.85-.08,7.79,4.79,13.32,4.91,5.56,10.74,8.59,13.02,6.78.08-.07.15-.15.22-.22.06-.04.13-.07.18-.12,0,0-9.97,8.55-10.44,8.93-2.51,2.01-8.51-.87-13.42-6.44-4.91-5.56-6.86-11.7-4.35-13.71Z"/>
  <path class="cls-4" d="M187.75,110.78c.38-4.8-.57-9.37-2.52-13.28l3.56.84c.74.02,1.49.11,2.22.3,7.13,1.77,10.92,10.8,8.47,20.16-2.45,9.36-10.22,15.52-17.35,13.75-1.2-.3-2.29-.8-3.29-1.48l-3.2-.83c6.62-3.66,11.43-10.86,12.12-19.46h0Z"/>
  <path class="cls-5" d="M144.42,108.75c0,5.73,2.05,10.8,5.31,13.9,2.59,2.72,5.97,4.49,9.78,4.78,9.16.7,17.27-7.38,18.13-18.05s-5.87-19.88-15.01-20.59c-3.8-.29-7.42.94-10.42,3.23-3.73,2.56-6.56,7.27-7.48,12.92,1.7-10.83,10.24-18.78,19.8-18.05,10.12.77,17.54,10.95,16.59,22.74-.95,11.79-9.92,20.72-20.03,19.95-9.56-.73-16.72-9.88-16.67-20.83h0Z"/>
  <path class="cls-3" d="M144.44,107.84c0,.19,0,.38-.02.57,0-.19,0-.38.02-.57Z"/>
  <path class="cls-3" d="M153.76,125.18s-.09-.04-.13-.05c.05.02.09.04.13.05Z"/>
  <path class="cls-3" d="M144.68,105.3c-.03.19-.05.37-.08.56.02-.19.05-.37.08-.56Z"/>
  <path class="cls-3" d="M152.94,91.56c.07-.04.13-.08.2-.11-.07.04-.14.08-.2.11Z"/>
  <path class="cls-3" d="M154.71,90.69s.09-.03.14-.05c-.05.02-.09.03-.14.05Z"/>
  <path class="cls-3" d="M157.4,90.02c.07,0,.14-.02.22-.02-.07,0-.15.02-.22.02Z"/>
  <path class="cls-8" d="M263.19,51.44c3.2-2.78,18.9-16.4,18.9-16.4-12.8,11.1-1.61,43.66,24.98,72.72,26.59,29.06,58.52,43.62,71.32,32.52,0,0-16.5,14.32-18.9,16.4-12.8,11.1-44.72-3.46-71.32-32.52-26.59-29.06-37.78-61.62-24.98-72.72Z"/>
</svg>