<?xml version="1.0" encoding="UTF-8"?>
<svg id="Night_Plans" data-name="Night Plans" xmlns="http://www.w3.org/2000/svg" viewBox="0 0 400 400">
  <defs>
    <style>
      .cls-1 {
        opacity: .4;
      }

      .cls-1, .cls-2, .cls-3, .cls-4, .cls-5, .cls-6, .cls-7 {
        stroke-width: 0px;
      }

      .cls-1, .cls-2, .cls-3, .cls-4, .cls-5, .cls-7 {
        fill: #fff;
      }

      .cls-1, .cls-3, .cls-5 {
        fill-rule: evenodd;
      }

      .cls-2 {
        opacity: .2;
      }

      .cls-2, .cls-4 {
        isolation: isolate;
      }

      .cls-3 {
        opacity: .9;
      }

      .cls-4 {
        opacity: .8;
      }

      .cls-5 {
        opacity: .6;
      }

      .cls-6 {
        fill: #1c2072;
      }
    </style>
  </defs>
  <rect class="cls-6" width="400" height="400" rx="40" ry="40"/>
  <path class="cls-4" d="M239.3,187.89l-77.02-32.18,6.34-68.05-61.44-35.94-71.28-1.72.19-8,73.35,1.78,65.26,38.18,106.44,50.15-41.85,55.79ZM170.79,150.6l65.85,27.51,32.22-42.95-92.56-43.61-5.51,59.05Z"/>
  <circle class="cls-7" cx="36" cy="45.5" r="15"/>
  <path class="cls-7" d="M108,62c8.28,0,15-6.72,15-15s-6.72-15-15-15-15,6.72-15,15,6.72,15,15,15Z"/>
  <path class="cls-7" d="M173,100c8.28,0,15-6.72,15-15s-6.72-15-15-15-15,6.72-15,15,6.72,15,15,15Z"/>
  <path class="cls-7" d="M166,168c8.28,0,15-6.72,15-15s-6.72-15-15-15-15,6.72-15,15,6.72,15,15,15Z"/>
  <path class="cls-7" d="M238,198c8.28,0,15-6.72,15-15s-6.72-15-15-15-15,6.72-15,15,6.72,15,15,15Z"/>
  <path class="cls-7" d="M275,148c8.28,0,15-6.72,15-15s-6.72-15-15-15-15,6.72-15,15,6.72,15,15,15Z"/>
  <path class="cls-2" d="M347.1,0s-23.65,25.56,2.79,48.14c0,0,2.73,1.75,0,4.25-2.73,2.51-18.38,15.62-7.04,35.42,0,0,.54,4.59-3.01,3.94-3.55-.65-33.92,4.42-37.64,38.2-3.72,33.78,9.46,45.8,12.89,49.91,0,0,1.86,2.11-.14,3.43-2,1.32-13.29,6.62-5.04,17.23,0,0,.42,1.66-.98,2.08-1.41.42-13.91,4.53-11.15,16.98,0,0,21.34,4.48,102.19-59.29V39.94c0-22.06-17.88-39.94-39.94-39.94h-12.96.03Z"/>
  <path class="cls-2" d="M.23,176.92s17-16.22,67.65-9.26c50.65,6.95,63.4,23.96,66.27,33.53,0,0,.17,3.97,4,2.53,3.83-1.44,50.96-8.95,75,16.81,0,0,2.03,2.2,4.9.76,2.87-1.44,30.24-12.56,43.95,13.15,0,0-41.3,36.65-261.74,22.89"/>
  <path class="cls-3" d="M399.99,360.64v-29.35s-53.64-35.34-53.64-35.34c-9.76-6.43-22.51-6.03-31.85,1l-195.27,103.04h241.41c21.73,0,39.35-17.62,39.35-39.36Z"/>
  <path class="cls-5" d="M72.1,318.85c-9.98-6.58-23.06-6-32.42,1.44L.07,351.75l.06,8.99c.05,21.69,17.66,39.25,39.35,39.25h79.76l50.13-26.46-97.27-54.7Z"/>
  <path class="cls-1" d="M169.37,373.54l75.59-39.89s-25.26-12.52-45.39-11.44c-22.08,1.18-27.33,15.53-55.6,15.1-28.27-.43-45.27-3.51-45.27-3.51l70.67,39.74Z"/>
</svg>