<?xml version="1.0" encoding="UTF-8"?>
<svg id="Night_Plans-mini" data-name="Night Plans-mini" xmlns="http://www.w3.org/2000/svg" viewBox="0 0 400 400">
  <defs>
    <style>
      .cls-1 {
        fill: none;
      }

      .cls-1, .cls-2, .cls-3 {
        stroke-width: 0px;
      }

      .cls-4 {
        fill: #1c2072;
        stroke: #fff;
        stroke-miterlimit: 10;
        stroke-width: 3px;
      }

      .cls-2 {
        isolation: isolate;
        opacity: .8;
      }

      .cls-2, .cls-3 {
        fill: #fff;
      }
    </style>
  </defs>
  <rect class="cls-1" width="400" height="400"/>
  <rect class="cls-4" x="18.79" y="15.74" width="362.42" height="368.79" rx="107.91" ry="107.91"/>
  <path class="cls-2" d="M293.64,300.93l-100.24-32.63-3.71-90.18-57.68-35.5-69.75,17.82-3.1-12.96,74.91-19.15,64.57,39.74,148.92,52.84-53.91,80h0ZM205.94,258.38l82.51,26.85,38.7-57.44-124.29-44.1,3.07,74.68h0Z"/>
  <path class="cls-3" d="M335.26,248.35c13.8,0,25-11.56,25-25.8s-11.2-25.8-25-25.8-25,11.56-25,25.8,11.2,25.8,25,25.8Z"/>
  <path class="cls-3" d="M198.4,201.74c13.8,0,25-11.56,25-25.8s-11.2-25.8-25-25.8-25,11.56-25,25.8,11.2,25.8,25,25.8Z"/>
  <path class="cls-3" d="M131.4,162.43c13.8,0,25-11.56,25-25.8s-11.2-25.8-25-25.8-25,11.56-25,25.8,11.2,25.8,25,25.8Z"/>
  <path class="cls-3" d="M64.74,177.2c13.8,0,25-11.2,25-25s-11.2-25-25-25-25,11.2-25,25,11.2,25,25,25Z"/>
  <path class="cls-3" d="M202.48,287.65c13.8,0,25-11.56,25-25.8s-11.2-25.8-25-25.8-25,11.56-25,25.8,11.2,25.8,25,25.8Z"/>
  <path class="cls-3" d="M290.44,316.58c13.8,0,25-11.56,25-25.8s-11.2-25.8-25-25.8-25,11.56-25,25.8,11.2,25.8,25,25.8Z"/>
</svg>