<?xml version="1.0" encoding="UTF-8"?>
<svg id="Observatoire" xmlns="http://www.w3.org/2000/svg" viewBox="0 0 400 400">
  <defs>
    <style>
      .cls-1 {
        fill: #e4e5e6;
      }

      .cls-1, .cls-2, .cls-3, .cls-4, .cls-5, .cls-6, .cls-7 {
        stroke-miterlimit: 10;
      }

      .cls-1, .cls-2, .cls-3, .cls-6 {
        stroke-width: 3px;
      }

      .cls-1, .cls-2, .cls-4, .cls-5, .cls-6, .cls-7 {
        stroke: #1d1d1b;
      }

      .cls-1, .cls-8, .cls-9, .cls-3, .cls-10, .cls-4, .cls-6, .cls-11, .cls-12, .cls-7 {
        isolation: isolate;
      }

      .cls-2, .cls-5 {
        fill: #efeff0;
      }

      .cls-8 {
        fill: #9d9fa2;
      }

      .cls-8, .cls-9, .cls-10, .cls-11, .cls-12, .cls-13 {
        stroke-width: 0px;
      }

      .cls-9 {
        fill: #373838;
      }

      .cls-3 {
        stroke: #b2b2b2;
      }

      .cls-3, .cls-13 {
        fill: #fff;
      }

      .cls-10 {
        fill: #737577;
      }

      .cls-4 {
        fill: #898b8e;
      }

      .cls-5 {
        stroke-width: 2px;
      }

      .cls-6 {
        fill: #dedfe0;
      }

      .cls-11 {
        fill: #b8babc;
      }

      .cls-12 {
        fill: #000;
        opacity: .9;
      }

      .cls-7 {
        fill: #ceced0;
      }
    </style>
  </defs>
  <path class="cls-8" d="M116.55,296.85h-12.7c-1.69,0-3.06,2.12-3.06,4.74v67.92h18.82v-67.92c0-2.62-1.37-4.74-3.06-4.74Z"/>
  <path class="cls-11" d="M230.6,209.14s-20.3-113.12-73.62-175.31c0,0-14.49,1.57-24.93,20.87,0,0,16.88-8.7,20.79-8.82,0,0,45.89,79.2,48.16,164.35l29.61-1.11v.02Z"/>
  <path class="cls-13" d="M265.99,125c4.41-5.46.11-17.06-9.6-25.9-9.71-8.84-21.16-11.58-25.58-6.12-4.41,5.46-.11,17.06,9.6,25.9,9.71,8.84,21.16,11.58,25.58,6.12Z"/>
  <path class="cls-9" d="M237.36,122.66c-11.3-10.3-17.27-23.28-15.26-31.61v-.1l-4.58,7.5c11.69,21.09,23.64,48.28,30.14,79.3l25.05-46.58c-6.09,7.55-21.9,3.74-35.33-8.48l-.02-.03Z"/>
  <path class="cls-6" d="M240.86,44.37c10.07,6.44,15.28,12.83,15.28,12.83,52.65,42.6,71.63,148.25,71.65,148.32l25.12-.93c0-1.06.02-2.14.02-3.2,0-74.78-47.42-137.78-112.05-157.02h-.02Z"/>
  <path class="cls-3" d="M259.43,95.35c-13.43-12.22-29.24-16.03-35.33-8.48-6.09,7.55-.14,23.57,13.29,35.79,13.43,12.22,29.24,16.03,35.33,8.48,6.09-7.55.14-23.57-13.29-35.79Z"/>
  <path class="cls-10" d="M252.6,208.3h-.58c-6.55-89.33-66.05-156.34-66.05-156.34,20.74-2.24,30.63,0,30.63,0,83.23,55.11,80.43,154.69,80.43,154.71l30.75-1.13s-18.98-105.72-71.66-148.32c0,0-17.71-22.05-51.72-25.37-34.01-3.32-47.42,1.99-47.42,1.99,53.3,62.19,73.62,175.29,73.62,175.29l21.99-.81v-.02Z"/>
  <path class="cls-12" d="M217.52,98.43l4.58-7.5v.1c.37-1.57,1.02-2.97,1.97-4.18,6.09-7.55,21.9-3.74,35.33,8.48,3.03,2.75,5.65,5.73,7.87,8.73-11.69-18.73-27.99-37.07-50.7-52.11,0,0-9.89-2.24-30.63,0,0,0,15.49,17.48,31.53,46.46l.05.02Z"/>
  <path class="cls-12" d="M272.65,113.2c3.1,7.18,3.4,13.84.07,17.94l-25.05,46.58c2.06,9.86,3.59,20.06,4.38,30.6l45.01-1.67s1.3-46.46-24.4-93.48v.02Z"/>
  <path class="cls-2" d="M100.79,339.64h-56.02c-2.58,0-4.67,2.17-4.67,4.84v25.03h60.69v-29.87Z"/>
  <path class="cls-2" d="M355.03,339.64h-223.01v29.87h227.91v-25.03c0-2.67-2.19-4.84-4.9-4.84Z"/>
  <path class="cls-1" d="M200.92,207.33c-.06-1.67-.14-3.34-.23-5.02-.05-.79-.12-1.57-.16-2.33-.12-1.84-.23-3.71-.39-5.56-.07-.86-.19-1.72-.26-2.58-.16-1.75-.32-3.52-.53-5.24-.09-.86-.23-1.72-.32-2.58-.21-1.72-.42-3.47-.67-5.19-.12-.81-.25-1.6-.37-2.41-.25-1.77-.53-3.54-.81-5.29-.12-.74-.25-1.47-.39-2.21-.32-1.8-.63-3.59-.97-5.38-.14-.71-.28-1.4-.42-2.09-.35-1.79-.72-3.59-1.09-5.38-.14-.66-.3-1.3-.44-1.94-.39-1.82-.81-3.61-1.23-5.41-.14-.59-.28-1.16-.44-1.74-.44-1.82-.9-3.66-1.37-5.46-.14-.52-.28-1.03-.42-1.55-.49-1.84-.97-3.69-1.48-5.48-.14-.47-.28-.93-.42-1.43-.51-1.84-1.04-3.66-1.57-5.46-.12-.42-.26-.83-.39-1.25-.55-1.84-1.11-3.66-1.69-5.46-.12-.34-.23-.66-.32-1.01-.6-1.84-1.18-3.69-1.78-5.48-.12-.32-.21-.61-.32-.93-.63-1.82-1.23-3.61-1.85-5.38-.09-.27-.18-.52-.28-.79-.62-1.79-1.27-3.56-1.92-5.28-.09-.22-.16-.44-.25-.66-.65-1.75-1.3-3.49-1.95-5.16-.07-.2-.14-.37-.23-.56-.67-1.7-1.32-3.39-1.97-5.01-.07-.17-.14-.34-.21-.52-.65-1.65-1.32-3.24-1.97-4.79-.07-.15-.14-.29-.19-.47-.65-1.57-1.32-3.12-1.94-4.6-.05-.1-.09-.2-.14-.3-.65-1.52-1.32-3.02-1.95-4.45-.05-.1-.09-.2-.14-.29-.65-1.43-1.27-2.83-1.88-4.15-.05-.07-.07-.17-.12-.25-.63-1.35-1.23-2.63-1.81-3.88-.05-.07-.07-.15-.12-.22-.58-1.23-1.16-2.43-1.69-3.56-.05-.07-.07-.15-.12-.25-.53-1.13-1.06-2.19-1.57-3.22-.05-.07-.07-.15-.12-.25-.49-1.01-.97-1.97-1.43-2.85-.05-.07-.07-.15-.12-.25-.44-.88-.88-1.72-1.27-2.51-.05-.07-.07-.15-.12-.22-.39-.76-.76-1.47-1.11-2.11-.05-.1-.09-.17-.14-.27-.32-.61-.63-1.18-.9-1.7-.05-.1-.09-.2-.16-.29-.25-.47-.49-.88-.69-1.25-.05-.1-.09-.17-.14-.27-.19-.32-.35-.61-.46-.84-.05-.1-.09-.17-.14-.27-.09-.15-.18-.32-.23-.42-.05-.1-.12-.2-.14-.25l-.09-.05c-4.01.22-20.74,8.82-20.74,8.82v.1c-51.23,26.47-86.47,82.15-86.47,146.6,0,3.94.14,7.87.39,11.76"/>
  <path class="cls-7" d="M49.01,297.6v42.03h51.84v-39.43c0-2.67,2.24-4.84,5-4.84h20.77c2.76,0,5,2.17,5,4.84v39.43h221.33v-78.13c-264.15-6.34-303.95,36.1-303.95,36.1h.03Z"/>
  <path class="cls-4" d="M48.96,235.29v62.31s39.81-42.45,303.98-36.11v-26.23H77.77v.03"/>
  <path class="cls-5" d="M355.55,235.29c2.42,0,4.39-2.17,4.39-4.84v-21.54c0-2.74-2.06-4.93-4.54-4.84l-311.86,1.43c-1.9,0-3.44,1.71-3.44,3.81v25.95l315.45.03Z"/>
</svg>