<?xml version="1.0" encoding="UTF-8"?>
<svg id="Observatoire" xmlns="http://www.w3.org/2000/svg" viewBox="0 0 400 400">
  <defs>
    <style>
      .cls-1 {
        opacity: .1;
      }

      .cls-1, .cls-2, .cls-3, .cls-4, .cls-5 {
        isolation: isolate;
      }

      .cls-1, .cls-2, .cls-3, .cls-4, .cls-5, .cls-6, .cls-7 {
        stroke-width: 0px;
      }

      .cls-1, .cls-2, .cls-3, .cls-4, .cls-5, .cls-7 {
        fill: #fff;
      }

      .cls-2 {
        opacity: .6;
      }

      .cls-3 {
        opacity: .2;
      }

      .cls-4 {
        opacity: .8;
      }

      .cls-5 {
        opacity: .4;
      }

      .cls-6 {
        fill: #3b3b3b;
      }
    </style>
  </defs>
  <rect class="cls-6" width="400" height="400" rx="40" ry="40"/>
  <path class="cls-2" d="m138.46,278.74h-16.63c-2.21,0-4,1.79-4,4v57.28h24.63v-57.28c0-2.21-1.79-4-4-4Z"/>
  <path class="cls-7" d="m82.4,236.05c6.44,0,11.66-7.9,11.66-17.64s-5.22-17.64-11.66-17.64-11.66,7.9-11.66,17.64,5.22,17.64,11.66,17.64Z"/>
  <path class="cls-2" d="m221.18,207.45s-17.82-93.5-64.61-144.91c0,0-12.72,1.3-21.88,17.25,0,0,14.81-7.19,18.25-7.29,0,0,40.27,65.46,42.26,135.84l25.99-.91v.02Z"/>
  <path class="cls-7" d="m252.23,137.9c3.87-4.52.1-14.1-8.43-21.41-8.53-7.31-18.57-9.57-22.45-5.06-3.87,4.52-.1,14.1,8.43,21.41,8.52,7.31,18.57,9.57,22.45,5.06Z"/>
  <path class="cls-3" d="m227.11,135.97c-9.92-8.51-15.16-19.24-13.39-26.13v-.08l-4.02,6.2c10.26,17.43,20.74,39.9,26.45,65.55l21.98-38.5c-5.34,6.24-19.22,3.09-31-7.01l-.02-.02Z"/>
  <path class="cls-4" d="m230.18,71.26c8.84,5.32,13.41,10.61,13.41,10.61,46.2,35.21,62.86,122.54,62.88,122.6l22.05-.77c0-.87.02-1.77.02-2.64,0-61.81-41.61-113.88-98.34-129.79h-.02Z"/>
  <path class="cls-5" d="m240.48,206.76h-.51c-5.75-73.83-57.97-129.22-57.97-129.22,18.21-1.85,26.88,0,26.88,0,73.04,45.55,70.58,127.86,70.58,127.88l26.98-.93s-16.66-87.39-62.88-122.6c0,0-15.54-18.23-45.39-20.97s-41.61,1.65-41.61,1.65c46.77,51.4,64.61,144.89,64.61,144.89l19.3-.67v-.02Z"/>
  <path class="cls-2" d="m246.47,113.39c-11.78-10.1-25.66-13.25-31-7.01-5.34,6.24-.12,19.48,11.66,29.58,11.78,10.1,25.66,13.25,31,7.01,5.34-6.24.12-19.49-11.66-29.58Z"/>
  <path class="cls-1" d="m209.7,115.93l4.02-6.2v.08c.32-1.3.89-2.46,1.73-3.45,5.34-6.24,19.22-3.09,31,7.01,2.66,2.28,4.96,4.73,6.91,7.21-10.26-15.48-24.56-30.64-44.5-43.07,0,0-8.68-1.85-26.88,0,0,0,13.59,14.45,27.67,38.4l.04.02Z"/>
  <path class="cls-1" d="m258.07,128.15c2.72,5.93,2.99,11.44.06,14.83l-21.98,38.5c1.81,8.15,3.15,16.58,3.84,25.3l39.5-1.38s1.14-38.4-21.42-77.27v.02Z"/>
  <path class="cls-4" d="m76.35,280.57v34.74h41.49v-32.59c0-2.21,1.79-4,4-4h16.63c2.21,0,4,1.79,4,4v32.59h177.15v-64.59c-211.43-5.24-243.29,29.85-243.29,29.85h.02Z"/>
  <path class="cls-7" d="m117.84,315.31h-48.01c-2.21,0-4,1.79-4,4v20.69h52.01v-24.69Z"/>
  <path class="cls-7" d="m324.51,315.31h-182.05v24.69h186.05v-20.69c0-2.21-1.79-4-4-4Z"/>
  <path class="cls-4" d="m81.14,190.91c9.26,0,17.01,8.82,19.18,20.74l108.09-3.76-13.21.47c-.06-2.19-.16-4.37-.29-6.56-.04-.65-.1-1.3-.14-1.93-.1-1.52-.2-3.07-.35-4.59-.06-.71-.16-1.42-.22-2.13-.14-1.44-.28-2.91-.47-4.33-.08-.71-.2-1.42-.28-2.13-.18-1.42-.37-2.87-.59-4.29-.1-.67-.22-1.32-.32-1.99-.22-1.46-.47-2.93-.71-4.37-.1-.61-.22-1.22-.35-1.83-.29-1.48-.55-2.97-.85-4.45-.12-.59-.24-1.16-.36-1.73-.31-1.48-.63-2.97-.96-4.45-.12-.55-.26-1.08-.39-1.6-.35-1.5-.71-2.99-1.08-4.47-.12-.49-.24-.96-.39-1.44-.39-1.5-.79-3.03-1.2-4.51-.12-.43-.24-.85-.37-1.28-.43-1.52-.85-3.05-1.3-4.53-.12-.39-.24-.77-.37-1.18-.45-1.52-.91-3.03-1.38-4.51-.1-.35-.22-.69-.35-1.04-.49-1.52-.97-3.03-1.48-4.51-.1-.29-.2-.55-.28-.83-.53-1.52-1.04-3.05-1.57-4.53-.1-.26-.18-.51-.28-.77-.55-1.5-1.08-2.99-1.63-4.45-.08-.22-.16-.43-.24-.65-.55-1.48-1.12-2.95-1.69-4.37-.08-.18-.14-.37-.22-.55-.57-1.44-1.14-2.88-1.71-4.27-.06-.16-.12-.31-.2-.47-.59-1.4-1.16-2.8-1.73-4.15-.06-.14-.12-.28-.18-.43-.57-1.36-1.16-2.68-1.73-3.96-.06-.12-.12-.24-.16-.39-.57-1.3-1.16-2.58-1.71-3.8-.04-.08-.08-.16-.12-.24-.57-1.26-1.16-2.5-1.71-3.68-.04-.08-.08-.16-.12-.24-.57-1.18-1.12-2.34-1.65-3.43-.04-.06-.06-.14-.1-.2-.55-1.12-1.08-2.17-1.59-3.21-.04-.06-.06-.12-.1-.18-.51-1.02-1.02-2.01-1.48-2.95-.04-.06-.06-.12-.1-.2-.47-.93-.93-1.81-1.38-2.66-.04-.06-.06-.12-.1-.2-.43-.83-.85-1.63-1.26-2.36-.04-.06-.06-.12-.1-.2-.39-.73-.77-1.42-1.12-2.07-.04-.06-.06-.12-.1-.18-.35-.63-.67-1.22-.98-1.75-.04-.08-.08-.14-.12-.22-.29-.51-.55-.98-.79-1.4-.04-.08-.08-.16-.14-.24-.22-.39-.43-.73-.61-1.04-.04-.08-.08-.14-.12-.22-.16-.26-.3-.51-.41-.69-.04-.08-.08-.14-.12-.22-.08-.12-.16-.26-.2-.35-.04-.08-.1-.16-.12-.2l-.08-.04c-3.51.18-18.21,7.29-18.21,7.29v.08c-44.96,21.88-75.89,67.9-75.89,121.18,0,4.04.18,8.07.53,12.03l2.32-.08c1.81-12.6,9.81-22.08,19.42-22.08Z"/>
  <path class="cls-2" d="m99.41,229.07c-2.99,9.91-10.06,16.86-18.27,16.86-1.67,0-3.27-.31-4.79-.85v35.5s31.86-35.09,243.29-29.85v-21.68H99.41v.02Z"/>
  <path class="cls-7" d="m61.33,218.42c0-1.85.14-3.68.39-5.43l-3.86.13c-2.15.07-3.86,1.84-3.86,4v7.92c0,2.21,1.79,4,4,4h4.88c-1-3.27-1.54-6.87-1.54-10.65v.02Z"/>
  <path class="cls-7" d="m100.32,211.65c.41,2.17.63,4.43.63,6.77,0,3.78-.55,7.35-1.54,10.65h242.15c2.21,0,4-1.79,4-4v-17.8c0-2.26-1.88-4.08-4.14-4l-241.12,8.41.02-.02Z"/>
  <path class="cls-2" d="m79.54,193.35c-9.16,0-16.6,11.24-16.6,25.07s7.44,25.07,16.6,25.07,16.6-11.24,16.6-25.07-7.44-25.07-16.6-25.07Zm2.86,42.71c-6.44,0-11.66-7.9-11.66-17.64s5.22-17.64,11.66-17.64,11.66,7.9,11.66,17.64-5.22,17.64-11.66,17.64Z"/>
  <path class="cls-5" d="m81.14,190.91c-10.95,0-19.81,12.31-19.81,27.51s8.88,27.51,19.81,27.51,19.81-12.31,19.81-27.51-8.88-27.51-19.81-27.51Zm-1.61,52.58c-9.16,0-16.6-11.24-16.6-25.07s7.44-25.07,16.6-25.07,16.6,11.24,16.6,25.07-7.44,25.07-16.6,25.07Z"/>
</svg>