<?xml version="1.0" encoding="UTF-8"?>
<svg xmlns="http://www.w3.org/2000/svg" xmlns:xlink="http://www.w3.org/1999/xlink" viewBox="0 0 400 400">
  <defs>
    <style>
      .cls-1 {
        fill: none;
      }

      .cls-1, .cls-2, .cls-3, .cls-4, .cls-5, .cls-6, .cls-7, .cls-8, .cls-9 {
        stroke-width: 0px;
      }

      .cls-2 {
        fill: url(#radial-gradient);
      }

      .cls-3 {
        fill: #3c3c3b;
      }

      .cls-4 {
        fill: #1e1e1c;
        opacity: .2;
      }

      .cls-4, .cls-5 {
        isolation: isolate;
      }

      .cls-5 {
        fill: #ffe792;
        opacity: .3;
      }

      .cls-6 {
        fill: #a98055;
      }

      .cls-7 {
        fill: #e2c9b0;
      }

      .cls-8 {
        fill: #def5ff;
      }

      .cls-9 {
        fill: #c29d78;
      }
    </style>
    <radialGradient id="radial-gradient" cx="-2093.66" cy="-757.94" fx="-2093.66" fy="-757.94" r=".44" gradientTransform="translate(150714.05 415581.91) rotate(90) scale(198.45 -198.45)" gradientUnits="userSpaceOnUse">
      <stop offset=".27" stop-color="#ffe792"/>
      <stop offset=".47" stop-color="#fcd36f"/>
      <stop offset=".69" stop-color="#fac14e"/>
      <stop offset=".88" stop-color="#f9b63a"/>
      <stop offset="1" stop-color="#f9b233"/>
    </radialGradient>
  </defs>
  <g id="_Étoile" data-name="Étoile">
    <path class="cls-2" d="M369.2,87.36l15.64,5.28c2.65.9,2.65,4.65,0,5.55l-15.64,5.28c-28.62,9.66-51.09,32.14-60.77,60.76l-5.28,15.63c-.9,2.65-4.65,2.65-5.55,0l-5.28-15.63c-9.66-28.62-32.14-51.09-60.77-60.76l-15.64-5.28c-2.65-.9-2.65-4.65,0-5.55l15.64-5.28c28.62-9.66,51.09-32.14,60.77-60.76l5.28-15.63c.9-2.66,4.65-2.66,5.55-.01l5.28,15.63c9.66,28.62,32.14,51.09,60.77,60.76h0Z"/>
  </g>
  <g id="Target_list" data-name="Target list">
    <rect class="cls-1" x="218.21" y="218.01" width="181.79" height="181.98"/>
    <path class="cls-9" d="M390.78,348.52c-14.12,29.28-43.52,50.01-78.24,51.4-34.72,1.4-65.69-16.9-82.11-44.95,24.9,10.07,52.29,15.12,80.86,13.97,28.57-1.15,55.47-8.39,79.48-20.43h0Z"/>
    <path class="cls-6" d="M351.71,236.13c.44,10.98-19.65,20.71-44.87,21.72-25.22,1.02-46.04-7.07-46.48-18.05-.21-5.16,4.09-10.02,11.34-13.86,7.71-4.08,18.76-6.97,31.2-7.75.78-.05,1.55-.09,2.35-.12.8-.03,1.57-.05,2.35-.07,12.47-.23,23.71,1.77,31.72,5.21h.01c7.5,3.24,12.18,7.76,12.38,12.9h0Z"/>
    <path class="cls-7" d="M399.72,305.35h0c-.06-1.56-.16-3.11-.3-4.66,0,0,0,0,0,0,0,0,0,0,0,0h0c-.93-10.25-3.55-20-7.55-28.94-25.34,13.7-54.11,21.98-84.83,23.21-29.86,1.2-58.4-4.36-84.18-15.35-3.19,9.35-4.9,19.36-4.85,29.74,0,0,0,0,0,0,0,1.1.02,2.21.07,3.31.36,8.96,2.01,17.57,4.75,25.64,26.41,11.67,55.82,17.64,86.61,16.4,32-1.29,61.89-10.22,87.99-24.96h0c1.82-7.82,2.63-16,2.3-24.41Z"/>
    <path class="cls-8" d="M391.86,271.75c-25.34,13.7-54.11,21.98-84.83,23.21-29.86,1.2-58.39-4.36-84.18-15.35,1.84-5.39,4.16-10.56,6.94-15.45,23.82,11.6,50.29,17.58,77.96,16.47,27.68-1.12,53.57-9.21,76.39-22.69,2.96,4.34,5.53,8.96,7.72,13.82h0Z"/>
    <path class="cls-9" d="M384.14,257.93c-22.81,13.49-48.71,21.58-76.39,22.69-27.68,1.12-54.14-4.87-77.96-16.47,9.49-16.75,24.15-30.23,41.9-38.2-7.24,3.83-11.54,8.7-11.34,13.86.44,10.98,21.26,19.06,46.48,18.05,25.22-1.01,45.31-10.75,44.87-21.72-.21-5.14-4.88-9.67-12.38-12.9,18.31,6.52,34.01,18.78,44.82,34.7h0Z"/>
    <path class="cls-8" d="M359.91,345.99c.22-1.43.14-2.67.13-3.71-.03-2.86-2.77-7.63-7.22-10.04-4.45-2.4-8.79-3.5-16.04-2.72-7.6.82-13.45,5.45-13.45,5.45-7.21,5.54-5.82,12.79-5.82,12.79.35,3.14,2.12,5.53,2.69,6.22-3.56.34-7.16.59-10.78.73-30.79,1.24-60.2-4.73-86.61-16.4,1.14,3.35,2.46,6.61,3.97,9.78,1.11,2.35,2.33,4.66,3.65,6.89,24.9,10.07,52.29,15.12,80.86,13.97,28.57-1.15,55.47-8.39,79.48-20.43,1.14-2.33,2.17-4.73,3.09-7.16,1.44-3.77,2.62-7.64,3.55-11.61-11.78,6.65-24.34,12.12-37.51,16.23Z"/>
    <path class="cls-6" d="M339.86,353.4c7.49-.96,13.08-5.5,12.48-10.13-.59-4.63-7.15-7.6-14.64-6.64-7.49.96-13.08,5.5-12.48,10.13.59,4.63,7.15,7.6,14.64,6.64Z"/>
    <path class="cls-4" d="M279.32,329.88c-23.34-33.38-21.19-76.98,2.38-107.65-8.6,2.73-16.94,6.78-24.73,12.24-41.12,28.83-51.12,85.56-22.32,126.73,28.8,41.16,85.47,51.17,126.6,22.35,7.79-5.45,14.45-11.92,19.95-19.08-36.85,11.67-78.52-1.21-101.87-34.59Z"/>
    <path class="cls-3" d="M127.92,244H52.08c-14.95.02-27.07,12.13-27.08,27.08v75.83c.02,14.95,12.13,27.07,27.08,27.08h75.83c14.95-.02,27.06-12.13,27.08-27.08v-75.83c-.02-14.95-12.13-27.07-27.08-27.08ZM133.33,287.76l-50.13,50.13c-4.23,4.23-11.09,4.23-15.32,0,0,0,0,0,0,0l-21.22-21.21c-2.12-2.12-2.12-5.56,0-7.68,2.12-2.12,5.56-2.12,7.68,0l21.21,21.21,50.13-50.13c2.12-2.11,5.55-2.11,7.66.01,2.11,2.12,2.11,5.55-.01,7.66Z"/>
    <path class="cls-3" d="M128,156H52c-14.89,0-27-12.11-27-27V53c0-14.89,12.11-27,27-27h76c14.89,0,27,12.11,27,27v76c0,14.89-12.11,27-27,27ZM52,38c-8.27,0-15,6.73-15,15v76c0,8.27,6.73,15,15,15h76c8.27,0,15-6.73,15-15V53c0-8.27-6.73-15-15-15H52Z"/>
    <circle class="cls-5" cx="305.88" cy="91" r="71.02"/>
  </g>
</svg>