<?xml version="1.0" encoding="UTF-8"?>
<svg id="Nights_logs" data-name="Nights logs" xmlns="http://www.w3.org/2000/svg" viewBox="0 0 400 400">
  <defs>
    <style>
      .cls-1 {
        fill: none;
      }

      .cls-1, .cls-2, .cls-3 {
        stroke-width: 0px;
      }

      .cls-2 {
        fill: #1d1d1b;
      }

      .cls-2, .cls-4, .cls-5, .cls-6 {
        isolation: isolate;
      }

      .cls-2, .cls-5 {
        opacity: .9;
      }

      .cls-4, .cls-5 {
        fill: #063;
      }

      .cls-4, .cls-5, .cls-6, .cls-7 {
        stroke: #1d1d1b;
        stroke-miterlimit: 10;
        stroke-width: 2px;
      }

      .cls-6, .cls-7, .cls-3 {
        fill: #fff;
      }
    </style>
  </defs>
  <rect class="cls-1" x="50.95" y="35.65" width="315.25" height="333.11"/>
  <path class="cls-2" d="M289.22,177.36l-210.54.1-21.25,144.73h247.69l-15.9-144.83Z"/>
  <path class="cls-7" d="M363.17,336.31c-3.76,8.29-12.14,17.02-30.86,16.15l-278.98-2.15-.85,5.87c-.8,5.49,3.56,10.4,9.26,10.44l268.19,2.09c34.71,1.63,33.6-30.24,33.6-30.24,0,0-.12-.77-.33-2.15h-.02Z"/>
  <path class="cls-3" d="M366.2,322.19s0-.1-.04-.26l.04.26Z"/>
  <path class="cls-3" d="M100.91,190.9h13.75l-9.99,87.46h-13.75l9.99-87.46Z"/>
  <path class="cls-3" d="M200.35,244.62c0,23.48-20.5,33.72-39.85,33.72-21.67,0-38.36-12.59-38.36-32.66,0-21.25,17.53-33.72,39.68-33.72s38.53,13.24,38.53,32.66ZM136.85,245.27c0,13.91,10.09,24.39,24.3,24.39s24.3-10.36,24.3-24.66c0-10.76-6.77-24.39-23.97-24.39s-24.64,12.59-24.64,24.66Z"/>
  <path class="cls-3" d="M277.87,213.81l1.15,18.1,2.38,38.2c0,15.09-3.57,26.3-11.2,32.01-7.63,5.99-18.68,7.88-28.59,7.88s-19.81-1.91-26.16-5.44l3.57-9.12c5.2,2.72,13.31,5.18,23.07,5.18,14.63,0,25.35-8.33,25.35-24.94v-7.35h-.33c-4.39,6.11-12.83,11.01-25.01,11.01-19.5,0-33.45-13.87-33.45-32.11,0-22.3,17.38-34.95,35.42-34.95,13.64,0,18.45,5.75,21.86,11.19h.33l-.86-9.71h12.52l-.04.06ZM266.23,239.59c0-2.03-.17-3.8-.82-5.44-2.59-6.95-8.55-12.45-18.93-12.45-13.64,0-23.38,9.67-23.38,24.9,0,12.92,7.79,23.66,23.24,23.66,8.78,0,15.69-4.83,18.78-12.45.82-2.03,1.13-4.35,1.13-6.4v-11.84l-.02.02Z"/>
  <path class="cls-5" d="M313.23,177.36h29.5c-9.4-58.17-18.39-113.86-19.89-123.63-3.32-21.61-25.01-17.81-25.01-17.81l15.4,141.44Z"/>
  <path class="cls-4" d="M273.69,35.92H99.43l-20.75,141.54,210.54-.1-15.52-141.44Z"/>
  <path class="cls-6" d="M273.69,35.92l34.77,316.6,23.82-.06-34.46-316.54h-24.13Z"/>
  <path class="cls-2" d="M329,322.19h37.19l-23.47-144.85-29.5.02,15.78,144.83Z"/>
  <path class="cls-5" d="M305.12,321.77H57.43l13.12-90.9-17.24,119.46,255.11,2.02-3.3-30.58Z"/>
  <path class="cls-5" d="M366.2,322.19h-37.19l3.3,30.24c35.02,1.63,33.89-30.24,33.89-30.24Z"/>
</svg>