<?xml version="1.0" encoding="UTF-8"?>
<svg xmlns="http://www.w3.org/2000/svg" xmlns:xlink="http://www.w3.org/1999/xlink" viewBox="0 0 400 400">
  <defs>
    <style>
      .cls-1 {
        fill: #3b3b3b;
      }

      .cls-1, .cls-2, .cls-3, .cls-4, .cls-5, .cls-6, .cls-7, .cls-8, .cls-9, .cls-10 {
        stroke-width: 0px;
      }

      .cls-2 {
        fill: #231f20;
      }

      .cls-2, .cls-4, .cls-5, .cls-6, .cls-7, .cls-10 {
        isolation: isolate;
      }

      .cls-2, .cls-5 {
        opacity: .9;
      }

      .cls-11 {
        clip-path: url(#clippath);
      }

      .cls-3 {
        fill: none;
      }

      .cls-4 {
        opacity: .2;
      }

      .cls-4, .cls-5, .cls-6, .cls-7, .cls-9, .cls-10 {
        fill: #fff;
      }

      .cls-6 {
        opacity: .6;
      }

      .cls-7 {
        opacity: .8;
      }

      .cls-8 {
        fill: #f9b405;
      }

      .cls-10 {
        opacity: .4;
      }
    </style>
    <clipPath id="clippath">
      <rect class="cls-3" x="38.14" y="39" width="84.27" height="82.44"/>
    </clipPath>
  </defs>
  <g id="Observatoire_verouiller" data-name="Observatoire + verouiller">
    <rect class="cls-1" x="-1" y="-.22" width="400" height="400" rx="40" ry="40"/>
    <path class="cls-6" d="M120.08,279.73h-11.15c-1.48,0-2.68,1.76-2.68,3.92v56.14h16.51v-56.14c0-2.16-1.2-3.92-2.68-3.92Z"/>
    <path class="cls-6" d="M220.18,207.23s-17.82-93.5-64.61-144.91c0,0-12.72,1.3-21.88,17.25,0,0,14.81-7.19,18.25-7.29,0,0,40.27,65.46,42.26,135.84l25.99-.91v.02Z"/>
    <path class="cls-9" d="M251.23,137.68c3.87-4.52.1-14.1-8.43-21.41-8.53-7.31-18.57-9.57-22.45-5.06-3.87,4.52-.1,14.1,8.43,21.41,8.52,7.31,18.57,9.57,22.45,5.06Z"/>
    <path class="cls-4" d="M226.11,135.75c-9.92-8.51-15.16-19.24-13.39-26.13v-.08l-4.02,6.2c10.26,17.43,20.74,39.9,26.45,65.55l21.98-38.5c-5.34,6.24-19.22,3.09-31-7.01l-.02-.02Z"/>
    <path class="cls-7" d="M229.18,71.04c8.84,5.32,13.41,10.61,13.41,10.61,46.2,35.21,62.86,122.54,62.88,122.6l22.05-.77c0-.87.02-1.77.02-2.64,0-61.81-41.61-113.88-98.34-129.79h-.02Z"/>
    <path class="cls-10" d="M239.48,206.54h-.51c-5.75-73.83-57.97-129.22-57.97-129.22,18.21-1.85,26.88,0,26.88,0,73.04,45.55,70.58,127.86,70.58,127.88l26.98-.93s-16.66-87.39-62.88-122.6c0,0-15.54-18.23-45.39-20.97s-41.61,1.65-41.61,1.65c46.77,51.4,64.61,144.89,64.61,144.89l19.3-.67v-.02Z"/>
    <path class="cls-6" d="M245.47,113.18c-11.78-10.1-25.66-13.25-31-7.01-5.34,6.24-.12,19.48,11.66,29.58,11.78,10.1,25.66,13.25,31,7.01,5.34-6.24.12-19.49-11.66-29.58Z"/>
    <path class="cls-2" d="M208.7,115.72l4.02-6.2v.08c.32-1.3.89-2.46,1.73-3.45,5.34-6.24,19.22-3.09,31,7.01,2.66,2.28,4.96,4.73,6.91,7.21-10.26-15.48-24.56-30.64-44.5-43.07,0,0-8.68-1.85-26.88,0,0,0,13.59,14.45,27.67,38.4l.04.02Z"/>
    <path class="cls-2" d="M257.07,127.93c2.72,5.93,2.99,11.44.06,14.83l-21.98,38.5c1.81,8.15,3.15,16.58,3.84,25.3l39.5-1.38s1.14-38.4-21.42-77.27v.02Z"/>
    <path class="cls-5" d="M60.74,280.35v34.74h45.5v-32.59c0-2.21,1.96-4,4.39-4h18.23c2.42,0,4.39,1.79,4.39,4v32.59h194.28v-64.59c-231.87-5.24-266.81,29.85-266.81,29.85h.02Z"/>
    <path class="cls-9" d="M106,315.1h-48.01c-2.21,0-4,1.79-4,4v20.69h52.01v-24.69Z"/>
    <path class="cls-9" d="M329.35,315.1h-196.86v24.69h201.19v-20.69c0-2.21-1.94-4-4.33-4Z"/>
    <path class="cls-5" d="M194.13,205.73c-.06-1.38-.13-2.76-.2-4.15-.04-.65-.1-1.3-.14-1.93-.1-1.52-.2-3.07-.35-4.59-.06-.71-.16-1.42-.22-2.13-.14-1.44-.28-2.91-.47-4.33-.08-.71-.2-1.42-.28-2.13-.18-1.42-.37-2.87-.59-4.29-.1-.67-.22-1.32-.32-1.99-.22-1.46-.47-2.93-.71-4.37-.1-.61-.22-1.22-.35-1.83-.29-1.48-.55-2.97-.85-4.45-.12-.59-.24-1.16-.36-1.73-.31-1.48-.63-2.97-.96-4.45-.12-.55-.26-1.08-.39-1.6-.35-1.5-.71-2.99-1.08-4.47-.12-.49-.24-.96-.39-1.44-.39-1.5-.79-3.03-1.2-4.51-.12-.43-.24-.85-.37-1.28-.43-1.52-.85-3.05-1.3-4.53-.12-.39-.24-.77-.37-1.18-.45-1.52-.91-3.03-1.38-4.51-.1-.35-.22-.69-.35-1.04-.49-1.52-.97-3.03-1.48-4.51-.1-.29-.2-.55-.28-.83-.53-1.52-1.04-3.05-1.57-4.53-.1-.26-.18-.51-.28-.77-.55-1.5-1.08-2.99-1.63-4.45-.08-.22-.16-.43-.24-.65-.55-1.48-1.12-2.95-1.69-4.37-.08-.18-.14-.37-.22-.55-.57-1.44-1.14-2.88-1.71-4.27-.06-.16-.12-.31-.2-.47-.59-1.4-1.16-2.8-1.73-4.15-.06-.14-.12-.28-.18-.43-.57-1.36-1.16-2.68-1.73-3.96-.06-.12-.12-.24-.16-.39-.57-1.3-1.16-2.58-1.71-3.8-.04-.08-.08-.16-.12-.24-.57-1.26-1.16-2.5-1.71-3.68-.04-.08-.08-.16-.12-.24-.57-1.18-1.12-2.34-1.65-3.43-.04-.06-.06-.14-.1-.2-.55-1.12-1.08-2.17-1.59-3.21-.04-.06-.06-.12-.1-.18-.51-1.02-1.02-2.01-1.48-2.95-.04-.06-.06-.12-.1-.2-.47-.93-.93-1.81-1.38-2.66-.04-.06-.06-.12-.1-.2-.43-.83-.85-1.63-1.26-2.36-.04-.06-.06-.12-.1-.2-.39-.73-.77-1.42-1.12-2.07-.04-.06-.06-.12-.1-.18-.35-.63-.67-1.22-.98-1.75-.04-.08-.08-.14-.12-.22-.29-.51-.55-.98-.79-1.4-.04-.08-.08-.16-.14-.24-.22-.39-.43-.73-.61-1.04-.04-.08-.08-.14-.12-.22-.16-.26-.3-.51-.41-.69-.04-.08-.08-.14-.12-.22-.08-.12-.16-.26-.2-.35-.04-.08-.1-.16-.12-.2l-.08-.04c-3.51.18-18.21,7.29-18.21,7.29v.08c-44.96,21.88-75.89,67.9-75.89,121.18,0,3.26.12,6.51.35,9.72"/>
    <path class="cls-6" d="M60.72,228.85v51.51s34.94-35.09,266.81-29.85v-21.68H86.01v.02"/>
    <path class="cls-9" d="M329.82,228.85c2.13,0,3.85-1.79,3.85-4v-17.8c0-2.26-1.81-4.08-3.99-4l-273.68,1.18c-1.67,0-3.02,1.41-3.02,3.15v21.45"/>
  </g>
  <g id="Observatoire_favoris" data-name="Observatoire + favoris">
    <rect class="cls-9" x="20" y="20" width="120" height="120" rx="20" ry="20"/>
    <g class="cls-11">
      <path class="cls-8" d="M78.22,110.59l-19.19,10.32c-3.24,1.75-7.04-1.08-6.42-4.77l3.66-21.86c.25-1.47-.23-2.96-1.27-4.01l-15.52-15.48c-2.63-2.62-1.18-7.18,2.45-7.72l21.45-3.19c1.44-.21,2.69-1.14,3.33-2.48l9.59-19.89c1.62-3.37,6.31-3.37,7.93,0l9.59,19.89c.65,1.34,1.89,2.26,3.33,2.48l21.45,3.19c3.63.54,5.08,5.1,2.45,7.72l-15.52,15.48c-1.04,1.04-1.52,2.54-1.27,4.01l3.66,21.86c.62,3.7-3.17,6.52-6.42,4.77l-19.19-10.32c-1.29-.69-2.83-.69-4.12,0h0Z"/>
    </g>
  </g>
</svg>