<?xml version="1.0" encoding="UTF-8"?>
<svg xmlns="http://www.w3.org/2000/svg" viewBox="0 0 400 400">
  <defs>
    <style>
      .cls-1, .cls-2, .cls-3, .cls-4 {
        stroke: #1d1d1b;
        stroke-miterlimit: 10;
      }

      .cls-1, .cls-2, .cls-3, .cls-4, .cls-5 {
        fill: #fff;
      }

      .cls-6 {
        fill: none;
      }

      .cls-6, .cls-7, .cls-5, .cls-8 {
        stroke-width: 0px;
      }

      .cls-2, .cls-3, .cls-4, .cls-7 {
        isolation: isolate;
      }

      .cls-3 {
        opacity: .6;
      }

      .cls-4 {
        opacity: .6;
      }

      .cls-7 {
        fill: #1d1d1b;
        opacity: .7;
      }

      .cls-8 {
        fill: #1c724e;
      }
    </style>
  </defs>
  <g id="Nights_logs" data-name="Nights logs">
    <rect class="cls-8" width="400" height="400" rx="40" ry="40"/>
    <g>
      <rect class="cls-6" x="53.71" y="42.94" width="293.28" height="320.63"/>
      <path class="cls-7" d="M275.38,179.34l-195.87.1-19.77,139.31h230.44l-14.79-139.41Z"/>
      <path class="cls-1" d="M344.17,332.34c-3.5,7.98-11.29,16.38-28.71,15.54l-259.54-2.07-.79,5.65c-.74,5.28,3.31,10.01,8.61,10.05l249.5,2.01c32.29,1.56,31.26-29.11,31.26-29.11,0,0-.12-.74-.31-2.07h-.02Z"/>
      <path class="cls-5" d="M346.99,318.75s0-.1-.04-.25l.04.25Z"/>
      <path class="cls-5" d="M100.19,192.38h12.79l-9.29,84.18h-12.79l9.29-84.18Z"/>
      <path class="cls-5" d="M192.7,244.09c0,22.6-19.07,32.45-37.07,32.45-20.16,0-35.69-12.12-35.69-31.44,0-20.45,16.31-32.45,36.92-32.45s35.85,12.75,35.85,31.44ZM133.62,244.71c0,13.39,9.39,23.48,22.61,23.48s22.61-9.97,22.61-23.73c0-10.36-6.3-23.48-22.3-23.48s-22.92,12.12-22.92,23.73Z"/>
      <path class="cls-5" d="M264.82,214.43l1.07,17.42,2.22,36.77c0,14.52-3.32,25.32-10.42,30.81-7.1,5.77-17.38,7.59-26.59,7.59s-18.43-1.84-24.34-5.24l3.32-8.78c4.84,2.62,12.38,4.98,21.46,4.98,13.61,0,23.58-8.02,23.58-24.01v-7.08h-.31c-4.08,5.88-11.94,10.6-23.27,10.6-18.14,0-31.12-13.35-31.12-30.91,0-21.47,16.17-33.64,32.95-33.64,12.69,0,17.16,5.53,20.33,10.77h.31l-.8-9.35h11.65l-.04.06ZM253.99,239.24c0-1.95-.15-3.66-.76-5.24-2.41-6.69-7.95-11.98-17.61-11.98-12.69,0-21.75,9.31-21.75,23.97,0,12.43,7.25,22.78,21.62,22.78,8.16,0,14.6-4.65,17.48-11.98.76-1.95,1.05-4.18,1.05-6.16v-11.4l-.02.02Z"/>
      <path class="cls-3" d="M297.71,179.34h27.45c-8.75-55.99-17.11-109.59-18.51-119-3.09-20.8-23.27-17.14-23.27-17.14l14.33,136.14Z"/>
      <path class="cls-3" d="M260.93,43.2H98.81l-19.3,136.24,195.87-.1-14.44-136.14Z"/>
      <path class="cls-2" d="M260.93,43.2l32.35,304.74,22.16-.06-32.06-304.68h-22.45Z"/>
      <path class="cls-7" d="M312.39,318.75h34.6l-21.83-139.43-27.45.02,14.68,139.41Z"/>
      <path class="cls-4" d="M290.17,318.35H59.73l12.21-87.5-16.04,114.98,237.34,1.95-3.07-29.43Z"/>
      <path class="cls-4" d="M346.99,318.75h-34.6l3.07,29.11c32.58,1.56,31.53-29.11,31.53-29.11Z"/>
    </g>
  </g>
  <g id="Dataset">
    <rect class="cls-6" x="382.18" y="-28.45" width="478.8" height="478.8"/>
  </g>
</svg>