<?xml version="1.0" encoding="UTF-8"?>
<svg id="Dataset-mini" xmlns="http://www.w3.org/2000/svg" viewBox="0 0 400 400">
  <defs>
    <style>
      .cls-1 {
        fill: none;
      }

      .cls-1, .cls-2, .cls-3, .cls-4, .cls-5 {
        stroke-width: 0px;
      }

      .cls-2 {
        fill: #592e00;
      }

      .cls-2, .cls-3, .cls-6 {
        isolation: isolate;
      }

      .cls-3 {
        opacity: .8;
      }

      .cls-3, .cls-7, .cls-5, .cls-8 {
        fill: #fff;
      }

      .cls-4 {
        fill: rgba(255, 255, 255, .2);
      }

      .cls-6 {
        fill: #f39200;
        stroke: #683c11;
      }

      .cls-6, .cls-7 {
        stroke-width: 3px;
      }

      .cls-6, .cls-7, .cls-8 {
        stroke-miterlimit: 10;
      }

      .cls-7 {
        fill-rule: evenodd;
        stroke: #693901;
      }

      .cls-8 {
        stroke: #36a9e1;
        stroke-width: 2px;
      }
    </style>
  </defs>
  <rect class="cls-1" y=".14" width="400" height="400"/>
  <path class="cls-6" d="M11.26,139.71l200.91,77.08,178.27-77.08L189.93,55.24,11.26,139.71Z"/>
  <path class="cls-4" d="M243.03,203.47l62.27,18.53-41.72-27.41-3.53,1.53,25.13,15.5-37.54-10.14-4.62,2.01h0Z"/>
  <path class="cls-4" d="M194.08,221.55l-34.3-19.38,30.73,6.3-19.49-7.46-31.82-6.54,52.65,29.5,14.86,20.1-12.59-1.36,10.06,12.2-11.99,6.2-49.78-12.03,34.64,27.21-3.41,2.11,3.71,1.6,5.46-3.37-26.27-20.64,36.01,8.68,16.73-8.66-7.47-9.06,11.99,1.3-19.78-26.7h.03Z"/>
  <path class="cls-5" d="M224.85,211.33l-5.85,2.49,18.64,2.96-7.06-7.97-3.12,1.36,1.59,1.8-4.21-.64h0Z"/>
  <path class="cls-5" d="M305.06,191.24l26.2-12.74-3.8-1.87-22.49,10.93-12.93-5.29-4.31,1.84,17.34,7.11h-.01Z"/>
  <path class="cls-7" d="M178.91,204.03l-90.88-34.85L11.26,207.83l162.41,70.56,3.4-2.1-34.64-27.21,49.78,12.03,11.99-6.2-10.06-12.2,12.59,1.36-14.86-20.1-52.65-29.5,31.82,6.54,7.87,3.01ZM190.47,208.47l-30.68-6.29,34.3,19.38,19.78,26.7-11.99-1.3,7.47,9.06-16.73,8.66-36.01-8.68,26.27,20.64-5.46,3.37-1.51-.66,36.3,15.77,178.27-87.29-59.19-29.33-26.2,12.74-17.34-7.11,4.31-1.84,12.93,5.29,22.49-10.93,2.46,1.21-12.89-6.39-86.41,37.37,7.06,7.97-18.63-2.96-6.85,2.96-21.7-8.31v-.03ZM219.89,213.46l10.06-4.34-2.46,1.07,1.59,1.8-4.21-.64-4.96,2.11h-.01ZM243.03,203.47l62.27,18.53-41.72-27.41-3.53,1.53,25.13,15.5-37.54-10.14-4.62,2.01h0Z"/>
  <path class="cls-8" d="M164.92,152.35s12.61,5.31,12.27,13.87c-.34,8.54-3.75,11.34-6.9,13.58,0,0-1.91,2.19.78,1.94,2.69-.24,16.93-4.57,35.07-4.01,18.14.54,28.61,3.27,29.16,3.47.57.2,2.69.79,3.09-.31.41-1.09-1.59-2.21-2.5-2.73s-7.74-4.97-7.87-11.71c-.12-6.74,6.65-12.53,7.87-13.11,0,0,.97-1.7-1.25-1.5-2.21.2-16.3,4.36-32.41,4.36,0,0-12.99.24-33.26-3.91,0,0-5.44-1.13-4.06.07Z"/>
  <path class="cls-8" d="M195.9,129.73c-21.33.34-33.55,5.34-34.67,5.56-1.12.2-6.94.57-2.78-3.4,4.15-3.99,7.4-6.47,7.99-15.36.59-8.88-11.18-16.24-14.86-19.34-3.69-3.1,1.94-1.53,2.46-1.33.53.2,5.62,1.33,19.42,4.09,13.81,2.76,38.13,1.23,38.13,1.23,0,0,17.21-.96,26.54-4.87,0,0,6.78-1.9,3.03,2.19,0,0-8.72,4.67-9.12,14.34,0,0-1.75,8.76,12.61,19.24,0,0,4.28,2.69,0,3.07,0,0-8.33-3.27-23.65-3.96,0,0-18.73-1.53-25.15-1.43l.04-.03Z"/>
  <path class="cls-3" d="M309.27,247.57l69.9,31.91-167.09,83.28L19.83,279.22l75.06-35.07-5.17-2.24-80.17,37.47,201.85,87.69.79.34,176.79-88.11-74.8-34.14-4.91,2.4Z"/>
  <path class="cls-2" d="M19.83,279.22l192.25,83.53,167.09-83.28-69.9-31.91-96.56,47.3-.5.26-.53-.23-116.79-50.74-75.06,35.07Z"/>
</svg>