<?xml version="1.0" encoding="UTF-8"?>
<svg id="Data_package" data-name="Data package" xmlns="http://www.w3.org/2000/svg" viewBox="0 0 400 400">
  <defs>
    <style>
      .cls-1 {
        opacity: .5;
      }

      .cls-1, .cls-2, .cls-3, .cls-4 {
        fill-rule: evenodd;
      }

      .cls-1, .cls-3, .cls-5, .cls-6, .cls-4, .cls-7 {
        isolation: isolate;
      }

      .cls-1, .cls-5, .cls-4, .cls-8, .cls-7 {
        stroke-width: 0px;
      }

      .cls-1, .cls-4 {
        fill: #37007d;
      }

      .cls-2, .cls-3, .cls-9, .cls-6, .cls-10 {
        stroke-miterlimit: 10;
      }

      .cls-2, .cls-3, .cls-6 {
        stroke: #fff;
      }

      .cls-2, .cls-3, .cls-10 {
        stroke-width: 2px;
      }

      .cls-2, .cls-8, .cls-10 {
        fill: #fff;
      }

      .cls-3 {
        fill: #00000c;
      }

      .cls-5 {
        fill: #7d768b;
      }

      .cls-9 {
        fill: #ededee;
        stroke: #1d1d1b;
        stroke-width: 3px;
      }

      .cls-6 {
        fill: #2a1459;
      }

      .cls-4 {
        opacity: .4;
      }

      .cls-10 {
        stroke: #36a9e1;
      }

      .cls-7 {
        fill: #9a8ce0;
      }
    </style>
  </defs>
  <path class="cls-4" d="M105.84,171.32l-.41-32.77-42.25,17.51,42.65,15.26Z"/>
  <path class="cls-1" d="M285.19,173.84l49.71-17.78-49.71-20.59v38.37ZM199.02,100.7l1.07-.49-1.07-.44v.93Z"/>
  <path class="cls-7" d="M305.02,170.6l-112.79,37.46-23.47-7.8-1.5-91.67,137.76-40v102Z"/>
  <path class="cls-10" d="M261.55,104.59s.95-7.36,3.81-1.01c2.86,6.34,6.07,12.34,17.71,11.15,0,0,6.38-.71,1.65,3.41-4.72,4.12-9.64,7.77-12.97,13.7-3.32,5.93-6.55,11.54-7.09,15.96-.54,4.42-2.63,1.77-3.09,0-.44-1.9-7.67-12.83-18.64-11.54,0,0-7.18.32-.63-3.24,6.55-3.56,16-13.46,19.27-28.41l-.02-.02Z"/>
  <path class="cls-10" d="M215.23,143.38s1.59-6.73,3.16,0c1.57,6.73,7.56,9.71,12.11,8.34,4.55-1.37,5.22,1.19,1.85,2.89-4.56,2.48-14.26,17.45-14.26,22.15s-2.56,3.03-2.85,0c-1.21-4.27-5.94-8.39-15.19-7.26,0,0-4.58.22-.94-3.09,3.64-3.31,12.59-6.18,16.14-23.01v-.02Z"/>
  <path class="cls-3" d="M240.9,86.35l-59.98,19.44,1.35,92.45-88.99-33-.84-79.1,148.45-47.85v48.06Z"/>
  <path class="cls-2" d="M218.47,65.07l-1.13-9.4-1.95,9.26-6.71,31.97,3.43-1.13,4.39-20.91,2.26,18.73,3.03-1-3.32-27.53ZM125.71,181.46l4.05-1.74.55-.24.25-.55,5.05-11.02,2,2.55,1.52,1.94,1.1-2.22,13.01-26.3.11-.23.04-.25,3.95-26.93,3.59,18.82.08.42.28.32,7.69,8.97,1.39,1.62,1.12-1.82,8.99-14.66,1.98-.66-.05-3.33-3.45,1.14-.54.18-.3.49-8.17,13.33-6.02-7.03-5.25-27.49-1.73-9.09-1.35,9.16-5.26,35.84-11.8,23.85-2.05-2.62-1.57-2.01-1.07,2.33-5.86,12.79-6.57,2.83,4.29,1.61ZM106.38,174.2l1.95-7,3.61,9.09,3.96,1.49-6.38-16.07-1.71-4.3-1.25,4.46-3.13,11.23,2.94,1.1Z"/>
  <path class="cls-8" d="M334.9,156.06l-135.88,48.6,50.99,66.69,134.24-53.37-49.35-61.92Z"/>
  <path class="cls-9" d="M334.9,156.06l-135.88,48.6,50.99,66.69,134.24-53.37-49.35-61.92Z"/>
  <polygon class="cls-5" points="250.01 271.35 199.02 204.66 199.02 361.99 339.47 308.72 337.31 236.64 250.01 271.35"/>
  <polygon class="cls-6" points="148.08 271.35 60.77 236.64 58.62 308.72 199.02 361.99 199.02 204.66 148.08 271.35"/>
  <path class="cls-9" d="M63.18,156.06l135.83,48.6-50.94,66.69L13.84,217.98l49.35-61.92Z"/>
</svg>