<?xml version="1.0" encoding="UTF-8"?>
<svg xmlns="http://www.w3.org/2000/svg" xmlns:xlink="http://www.w3.org/1999/xlink" viewBox="0 0 400 400">
  <defs>
    <style>
      .cls-1, .cls-2, .cls-3, .cls-4, .cls-5, .cls-6, .cls-7, .cls-8, .cls-9, .cls-10, .cls-11, .cls-12, .cls-13, .cls-14, .cls-15, .cls-16 {
        stroke-width: 0px;
      }

      .cls-1, .cls-4, .cls-6, .cls-7, .cls-8, .cls-9, .cls-10, .cls-11, .cls-12, .cls-13, .cls-16 {
        isolation: isolate;
      }

      .cls-1, .cls-6, .cls-12 {
        fill: #470000;
      }

      .cls-1, .cls-8 {
        opacity: .6;
      }

      .cls-2 {
        fill: #9b1111;
      }

      .cls-17 {
        clip-path: url(#clippath);
      }

      .cls-3 {
        fill: none;
      }

      .cls-4 {
        opacity: .2;
      }

      .cls-4, .cls-7, .cls-8, .cls-9, .cls-10, .cls-11, .cls-14, .cls-15, .cls-16 {
        fill: #fff;
      }

      .cls-5 {
        fill: #282727;
      }

      .cls-6, .cls-14 {
        opacity: .4;
      }

      .cls-7 {
        opacity: .6;
      }

      .cls-9, .cls-12, .cls-13 {
        opacity: .8;
      }

      .cls-10 {
        opacity: .8;
      }

      .cls-11 {
        opacity: .1;
      }

      .cls-13 {
        fill: #200000;
      }

      .cls-16 {
        opacity: .4;
      }
    </style>
    <clipPath id="clippath">
      <rect class="cls-3" x="44" y="35" width="71" height="90"/>
    </clipPath>
  </defs>
  <g id="Explore">
    <rect class="cls-2" y="-1.34" width="400" height="400" rx="40" ry="40"/>
    <path class="cls-15" d="M353.46,149.61c10.27-8.69.74-34.75-21.29-58.21-22.03-23.46-48.22-35.44-58.5-26.76-10.27,8.69-.74,34.75,21.29,58.21,22.03,23.46,48.22,35.44,58.5,26.76Z"/>
    <path class="cls-7" d="M254.14,75.84c2.83-2.4,16.76-14.16,16.76-14.16-11.34,9.59-1.43,37.71,22.14,62.81,23.57,25.1,51.87,37.68,63.21,28.09,0,0-14.63,12.37-16.76,14.16-11.34,9.59-39.64-2.99-63.21-28.09-23.57-25.1-33.48-53.23-22.14-62.81Z"/>
    <path class="cls-8" d="M293.04,124.49c23.57,25.1,51.87,37.68,63.21,28.09,11.34-9.59,1.43-37.71-22.14-62.81-23.57-25.1-51.87-37.68-63.21-28.09-11.34,9.59-1.43,37.71,22.15,62.81ZM273.68,64.63c10.28-8.69,36.47,3.3,58.5,26.76,22.04,23.46,31.56,49.53,21.29,58.22-10.28,8.69-36.47-3.3-58.5-26.76-22.04-23.46-31.56-49.53-21.29-58.22Z"/>
    <path class="cls-13" d="M54.03,255.42c1.14-.96,2.38-1.78,3.68-2.48h0l120.69-106.82,10.52,3.39,6.5-5.32,2.31-1.89,18.64,6.36.43,1.82,7.01,2.06-1.58-4.97c-2.8-.05-6.99-2.44-10.56-6.28-4.61-4.95-6.44-10.4-4.08-12.19.37-.28,4.2-3.39,6.96-5.64l-.6-1.86-5.8-1.83,42.55-37.65c-3.12,12.79,7.02,35.31,26.27,55.82,19.39,20.65,41.98,32.81,55.69,31.15h0l-204.64,160.11c-.73.87-1.54,1.68-2.43,2.44-13.76,11.63-40.94,4.01-60.7-17.04-19.76-21.04-24.63-47.54-10.86-59.18h0Z"/>
    <path class="cls-9" d="M39.69,266.68c2.92-2.46,11.73-11.74,17.33-13.05.01,0,.03,0,.03,0-1.32.7-2.57,1.53-3.72,2.5-13.76,11.64-8.9,38.13,10.86,59.18,19.76,21.04,46.94,28.67,60.7,17.04.89-.75,1.7-1.57,2.44-2.44h0c-1.25,3.15-10.56,13.96-13.15,16.14-13.76,11.63-41.6,3.3-62.18-18.61-20.57-21.92-26.09-49.11-12.33-60.75Z"/>
    <rect class="cls-3" x="54.05" y="65.4" width="328.83" height="373.96"/>
    <path class="cls-4" d="M163.64,143.35c8.96.66,16.91-7.05,17.75-17.23.84-10.18-5.74-18.98-14.71-19.64-8.97-.66-16.91,7.05-17.75,17.23-.84,10.18,5.74,18.98,14.71,19.65ZM153.57,137.36c1.68,1.55,3.72,2.52,5.97,2.69,6.57.49,12.47-6.04,13.17-14.57.71-8.54-4.05-15.85-10.62-16.34-2.26-.17-4.43.49-6.34,1.77,2.66-1.99,5.87-3.04,9.24-2.79,8.11.61,14.07,8.56,13.31,17.78-.76,9.22-7.95,16.19-16.07,15.59-3.37-.25-6.37-1.77-8.67-4.13h0Z"/>
    <path class="cls-4" d="M163.64,143.35c8.96.66,16.91-7.05,17.75-17.23.84-10.18-5.74-18.98-14.71-19.64-8.97-.66-16.91,7.05-17.75,17.23-.84,10.18,5.74,18.98,14.71,19.65ZM153.57,137.36c1.68,1.55,3.72,2.52,5.97,2.69,6.57.49,12.47-6.04,13.17-14.57.71-8.54-4.05-15.85-10.62-16.34-2.26-.17-4.43.49-6.34,1.77,2.66-1.99,5.87-3.04,9.24-2.79,8.11.61,14.07,8.56,13.31,17.78-.76,9.22-7.95,16.19-16.07,15.59-3.37-.25-6.37-1.77-8.67-4.13h0Z"/>
    <path class="cls-15" d="M159.56,140.04c6.57.49,12.47-6.04,13.17-14.57.71-8.54-4.05-15.85-10.62-16.34-2.26-.17-4.43.49-6.34,1.77,2.66-1.99,5.86-3.04,9.24-2.79,8.12.61,14.07,8.56,13.31,17.78-.76,9.22-7.95,16.2-16.07,15.6-3.37-.25-6.37-1.77-8.67-4.13,1.68,1.55,3.72,2.52,5.98,2.69h0Z"/>
    <path class="cls-15" d="M166.83,125.03c.24-2.9-1.5-5.39-3.88-5.57-2.38-.18-4.5,2.03-4.74,4.93-.24,2.9,1.5,5.39,3.88,5.57,2.38.18,4.5-2.03,4.74-4.93Z"/>
    <path class="cls-15" d="M244.84,143.03c2.23-1.91.26-7.44-4.41-12.34-4.67-4.9-10.26-7.32-12.49-5.41-2.23,1.91-.26,7.44,4.41,12.34,4.67,4.9,10.26,7.32,12.49,5.41Z"/>
    <path class="cls-16" d="M206.13,174.49c1.97-1.62.02-6.82-4.35-11.6-4.37-4.78-9.52-7.35-11.49-5.73-1.97,1.62-.02,6.81,4.35,11.6s9.52,7.35,11.49,5.73Z"/>
    <path class="cls-4" d="M200.11,159.95l-1.7-5.45,10-8.18,1.01,5.29-9.31,8.33Z"/>
    <path class="cls-16" d="M209.41,151.62l-1.01-5.29,18.64,6.37,1.25,5.21-18.88-6.28Z"/>
    <path class="cls-10" d="M162.21,114.01c4.81.35,8.32,5.4,7.83,11.26-.48,5.86-4.78,10.32-9.58,9.96-4.81-.35-8.32-5.4-7.83-11.26.49-5.86,4.78-10.32,9.58-9.96Z"/>
    <path class="cls-6" d="M148.89,124.24c0-.09.02-.17.03-.26-.7,10.06,5.84,18.7,14.72,19.37,8.96.66,16.91-7.05,17.75-17.23.59-7.17-2.5-13.65-7.52-17.09,4.59.55,8.38,2.53,8.39,2.53,3.53,4.02,5.49,9.57,5,15.54-.93,11.28-10.28,19.78-20.88,18.99-10.6-.79-18.43-10.57-17.5-21.85h0Z"/>
    <path class="cls-15" d="M221.4,144.26c.3.35.61.71.94,1.06.53.57,1.07,1.1,1.62,1.6l-23.86,20.36c-3.09-.35-3.15-2.87-3.15-2.87l24.44-20.15h0Z"/>
    <path class="cls-11" d="M227.48,154.51l7.01,2.06,1.98,1.99-4.75,5.34-7.14-2.3,3.71-3.7-.82-3.39Z"/>
    <path class="cls-8" d="M190.35,157.11c.22-.18.36-.3.36-.3-.08.07-.15.15-.22.22-.04.03-.09.05-.13.08h0Z"/>
    <path class="cls-15" d="M182.29,145.9c6.32,1.53,13.21-3.79,15.38-11.87,2.18-8.09-1.19-15.88-7.51-17.41-.65-.15-1.31-.24-1.97-.26,1.84-.74,3.73-.94,5.57-.5,6.32,1.53,9.46,10.14,7.01,19.25-2.45,9.1-9.56,15.23-15.88,13.71-2.3-.56-4.19-2.06-5.53-4.19.88.58,1.86,1.02,2.92,1.28h.01Z"/>
    <path class="cls-4" d="M155.7,138.89s-.08-.04-.12-.07c.04.02.08.04.12.07Z"/>
    <path class="cls-4" d="M154.32,137.98c-.06-.04-.11-.09-.16-.13.06.05.11.09.16.13Z"/>
    <path class="cls-4" d="M156.45,139.26c-.07-.03-.13-.06-.19-.09.06.03.13.06.19.09Z"/>
    <path class="cls-8" d="M193.81,144.6l12.28,3.61-6.5,5.32-17.54-5.66c5.45,1.93,11.77-3.28,11.77-3.28Z"/>
    <path class="cls-8" d="M218.25,133.14c.58-.45,9.79-7.94,9.79-7.94-2.35,1.79-.52,7.24,4.08,12.19,4.61,4.95,10.24,7.51,12.6,5.73,0,0-9.35,7.6-9.79,7.94-2.35,1.79-7.99-.78-12.6-5.73-4.6-4.95-6.44-10.4-4.08-12.19Z"/>
    <path class="cls-8" d="M228.29,157.9l-18.88-6.28-9.3,8.33,19.64,6.45,8.54-8.5Z"/>
    <path class="cls-1" d="M159.56,140.04c6.57.49,12.47-6.04,13.17-14.57.71-8.54-4.05-15.85-10.62-16.34-6.57-.49-12.47,6.04-13.17,14.57-.71,8.54,4.05,15.85,10.62,16.34ZM152.63,123.97c.48-5.86,4.78-10.32,9.58-9.96,4.81.35,8.32,5.4,7.83,11.26-.48,5.86-4.78,10.32-9.58,9.96-4.81-.35-8.32-5.4-7.83-11.26Z"/>
    <path class="cls-14" d="M162.96,119.47c2.38.17,4.11,2.67,3.87,5.57-.24,2.9-2.36,5.1-4.74,4.93-2.38-.17-4.11-2.67-3.87-5.57.24-2.9,2.36-5.1,4.74-4.93Z"/>
    <path class="cls-12" d="M209.33,146.33l-2.31,1.89-12.28-3.61c4.32-3.42,6.76-7.29,7.29-13.68.52-6.22-1.71-11.74-5.32-14.29v-.05l28.85,9.06.6,1.86c-2.76,2.24-6.59,5.35-6.96,5.64-2.35,1.79-.52,7.24,4.08,12.19,3.58,3.84,7.76,6.23,10.56,6.28l1.58,4.97-7.01-2.06-.43-1.82-18.64-6.36Z"/>
    <path class="cls-8" d="M228.29,157.9l-.82-3.39,7.01,2.06,1.98,1.99-4.75,5.34-7.14-2.3,3.71-3.7Z"/>
    <path class="cls-8" d="M181.44,164.52c.48-.38,7.16-5.96,8.86-7.38-1.96,1.6-.07,6.73,4.25,11.5,4.35,4.8,9.52,7.42,11.54,5.86.07-.06.13-.13.19-.19.05-.03.12-.06.16-.1,0,0-8.84,7.38-9.25,7.71-2.22,1.73-7.55-.75-11.89-5.56-4.35-4.8-6.08-10.11-3.85-11.84Z"/>
    <path class="cls-12" d="M187.27,127.1c.34-4.15-.5-8.09-2.24-11.47l3.15.72c.66.02,1.32.1,1.97.26,6.32,1.53,9.68,9.33,7.51,17.41-2.18,8.09-9.06,13.4-15.38,11.87-1.06-.26-2.03-.69-2.92-1.28l-2.84-.72c5.86-3.16,10.13-9.38,10.74-16.81h0Z"/>
    <path class="cls-4" d="M148.86,125.35c0,4.95,1.81,9.33,4.71,12,2.3,2.35,5.3,3.88,8.67,4.13,8.12.61,15.31-6.38,16.07-15.59s-5.2-17.18-13.31-17.78c-3.37-.25-6.58.81-9.24,2.79-3.3,2.21-5.82,6.28-6.63,11.16,1.51-9.36,9.07-16.22,17.55-15.59,8.97.66,15.54,9.46,14.71,19.65-.84,10.18-8.79,17.9-17.75,17.23-8.48-.63-14.82-8.53-14.78-17.99h0Z"/>
    <path class="cls-4" d="M148.89,124.56c0,.17,0,.33-.01.49,0-.16,0-.33.01-.49Z"/>
    <path class="cls-4" d="M157.15,139.54s-.08-.03-.12-.05c.04.01.08.03.12.05Z"/>
    <path class="cls-4" d="M149.1,122.36c-.03.16-.05.32-.07.48.02-.16.05-.32.07-.48Z"/>
    <path class="cls-4" d="M156.42,110.5c.06-.03.12-.07.18-.1-.06.03-.12.07-.18.1Z"/>
    <path class="cls-4" d="M157.99,109.75s.08-.03.13-.05c-.04.01-.08.03-.13.05Z"/>
    <path class="cls-4" d="M160.37,109.17c.06,0,.13-.01.2-.02-.06,0-.13.01-.2.02Z"/>
    <rect class="cls-3" x="54.05" y="-353.26" width="328.83" height="373.96"/>
  </g>
  <g id="Explore_verouiller" data-name="Explore + verouiller">
    <rect class="cls-15" x="20" y="20" width="120" height="120" rx="20" ry="20"/>
    <g class="cls-17">
      <path class="cls-5" d="M77.58,35h3.84c.15.04.3.12.45.13,2.82.22,5.55.83,8.17,1.89,7.6,3.06,12.96,8.36,16.11,15.83,1.66,3.94,2.12,8.08,2.09,12.31-.03,4.57,0,2.28-.02,6.85,0,.8.26,1.2,1.04,1.43,1.01.29,1.99.68,2.98,1.05,1.76.65,2.75,1.96,2.76,3.8.01,12.27.01,24.53,0,36.8,0,1.83-.94,3.13-2.65,3.79-7.83,3.04-15.94,4.96-24.32,5.74-6.12.58-12.25.52-18.37-.15-7.92-.86-15.57-2.74-22.98-5.6-1.71-.66-2.65-1.96-2.65-3.79-.01-12.27-.01-24.53,0-36.8,0-1.84,1-3.15,2.76-3.8.96-.35,1.91-.73,2.89-1.01.85-.24,1.14-.68,1.13-1.56-.04-4.85-.01-2.85-.02-7.7,0-4.87.91-9.53,3.24-13.85,3.88-7.17,9.74-11.98,17.67-14.22,1.92-.54,3.93-.77,5.9-1.13ZM98.27,70.42c.03-.32.05-.47.05-.62,0-4.63.08-2.4-.04-7.03-.23-9.68-8.01-17.47-17.82-17.97-10.55-.53-19.49,7.55-19.75,17.95-.11,4.63-.03,2.4-.03,7.03,0,.18.05.36.1.62,12.49-2.6,24.95-2.6,37.5.01h0ZM79.54,112.54c2.23-.01,3.83-1.67,3.84-4.07.03-3.88.02-7.75,0-11.62,0-.64.21-1,.73-1.39,2.32-1.75,3.47-4.03,3.11-6.98-.41-3.35-3.1-6.19-6.37-6.64-3.78-.52-7.19,1.32-8.56,4.61-1.35,3.25-.38,6.84,2.51,8.93.63.45.82.91.81,1.63-.03,3.81-.04,7.62,0,11.44.02,2.45,1.65,4.1,3.93,4.08h0Z"/>
    </g>
  </g>
</svg>