<?xml version="1.0" encoding="UTF-8"?>
<svg id="Jupiter" xmlns="http://www.w3.org/2000/svg" viewBox="0 0 400 400">
  <defs>
    <style>
      .cls-1 {
        fill: none;
      }

      .cls-1, .cls-2, .cls-3, .cls-4, .cls-5, .cls-6, .cls-7 {
        stroke-width: 0px;
      }

      .cls-2 {
        fill: #e3efef;
      }

      .cls-3 {
        fill: #1e1e1c;
        isolation: isolate;
        opacity: .2;
      }

      .cls-4 {
        fill: #f0903f;
      }

      .cls-5 {
        fill: #c6c3b3;
      }

      .cls-6 {
        fill: #d6d1bb;
      }

      .cls-7 {
        fill: #e1c1ab;
      }
    </style>
  </defs>
  <path class="cls-2" d="M379,253.85c-1.4.71-2.8,1.42-4.21,2.12-.38.19-.75.38-1.13.57-1.32.65-2.64,1.29-3.97,1.93-.46.22-.93.45-1.39.67-1.29.61-2.58,1.22-3.87,1.82-.51.24-1.01.47-1.52.7-1.28.59-2.56,1.17-3.84,1.74-.52.23-1.04.47-1.57.7-1.29.57-2.58,1.14-3.87,1.69-.51.22-1.03.44-1.54.66-1.31.56-2.63,1.12-3.95,1.66-.49.2-.97.4-1.46.6-1.36.56-2.72,1.11-4.08,1.65-.43.17-.86.34-1.29.51-1.43.57-2.87,1.13-4.31,1.68-.31.12-.62.23-.92.35-1.57.59-3.13,1.18-4.71,1.76-.05.02-.1.04-.15.06-7.26,2.66-14.61,5.12-22.05,7.4-1.47,6.31-5.41,12.3-11.45,17.19-7.36,5.97-17.43,10.04-28.33,11.44-7.29.94-14.65.63-21.29-.89-8.69-1.99-15.8-6-20.58-11.3-4.41.45-8.85.84-13.3,1.15-.01,0-.02,0-.03,0-2,.14-4.01.27-6.02.38-.24.01-.48.03-.73.05-2.09.12-4.18.21-6.27.3-.14,0-.29.01-.43.02-.78.03-1.56.05-2.34.08-66.89,2.34-130.8-10.77-188.24-36.13,2.5,7.36,5.42,14.54,8.73,21.49,2.44,5.17,5.12,10.23,8.04,15.15,54.79,22.13,115.06,33.23,177.92,30.7,62.86-2.53,122.05-18.44,174.88-44.9,2.51-5.13,4.78-10.39,6.8-15.74,3.16-8.28,5.76-16.79,7.82-25.51-4.85,2.74-9.77,5.37-14.74,7.93-.2.1-.4.21-.6.31Z"/>
  <rect class="cls-1" width="400" height="400"/>
  <path class="cls-6" d="M379.72,286.87c-31.07,64.36-95.75,109.91-172.14,112.98-76.4,3.07-144.53-37.14-180.66-98.79,54.79,22.13,115.06,33.23,177.92,30.7,62.86-2.52,122.04-18.44,174.89-44.9h0Z"/>
  <path class="cls-5" d="M293.75,39.84c.97,24.13-43.24,45.51-98.73,47.75-55.49,2.23-101.31-15.54-102.27-39.66-.46-11.34,9.01-22.03,24.94-30.46C134.66,8.48,158.97,2.13,186.35.43c1.72-.1,3.42-.19,5.17-.26,1.75-.07,3.45-.11,5.17-.15,27.44-.51,52.17,3.88,69.8,11.46h.03c16.5,7.11,26.79,17.05,27.25,28.36h-.02Z"/>
  <path class="cls-2" d="M382.09,118.12c-55.74,30.12-119.07,48.31-186.64,51.02-65.69,2.65-128.48-9.59-185.22-33.75,4.04-11.86,9.16-23.22,15.28-33.95,52.41,25.49,110.65,38.64,171.54,36.2,60.9-2.45,117.88-20.24,168.08-49.88,6.5,9.54,12.17,19.7,16.98,30.37h-.01Z"/>
  <path class="cls-6" d="M365.1,87.75c-50.19,29.64-107.18,47.43-168.08,49.88-60.9,2.45-119.13-10.71-171.54-36.2,20.88-36.82,53.14-66.45,92.18-83.97-15.93,8.41-25.39,19.12-24.94,30.46.97,24.13,46.77,41.89,102.27,39.66,55.5-2.23,99.71-23.63,98.73-47.75-.46-11.31-10.75-21.25-27.25-28.35,40.3,14.33,74.83,41.29,98.61,76.27h.01Z"/>
  <path class="cls-7" d="M398.71,181.73h-.01c-2.05-22.54-7.8-43.95-16.62-63.61-55.74,30.12-119.07,48.31-186.64,51.02-65.69,2.65-128.49-9.58-185.22-33.75C3.19,155.96-.56,177.96-.45,200.77c0,0,0,0,0,0,0,2.43.05,4.86.15,7.28.79,19.69,4.42,38.62,10.44,56.37,58.11,25.66,122.82,38.78,190.57,36.05,9-.36,17.93-1,26.78-1.91,4.78,5.3,11.89,9.31,20.58,11.3,6.64,1.52,14,1.82,21.29.89,10.91-1.4,20.97-5.46,28.33-11.44,6.04-4.89,9.97-10.89,11.45-17.2,29.95-9.14,58.46-21.44,85.17-36.51v-.03c4.01-17.17,5.8-35.14,5.06-53.62h.01c-.14-3.43-.36-6.84-.67-10.24"/>
  <path class="cls-4" d="M267.67,297.6c16.48-2.12,28.77-12.09,27.47-22.26-1.31-10.18-15.73-16.71-32.2-14.59-16.48,2.12-28.77,12.09-27.47,22.26,1.31,10.18,15.73,16.71,32.2,14.59Z"/>
  <path class="cls-3" d="M134.47,245.89c-51.36-73.36-46.61-169.91,5.24-237.33-18.93,5.99-37.29,15.62-54.42,27.61C-5.19,99.53-27.18,224.24,36.17,314.72c63.36,90.48,188.06,112.47,278.55,49.12,17.13-11.99,31.39-26.33,43.49-42.07-81.08,25.66-172.37-2.52-223.74-75.88Z"/>
</svg>