<?xml version="1.0" encoding="UTF-8"?>
<svg id="AstéroÏde" xmlns="http://www.w3.org/2000/svg" viewBox="0 0 400 400">
  <defs>
    <style>
      .cls-1 {
        fill: #8f7e64;
      }

      .cls-1, .cls-2, .cls-3, .cls-4, .cls-5, .cls-6 {
        stroke-width: 0px;
      }

      .cls-2 {
        fill: #b6a380;
      }

      .cls-3 {
        fill: #98866a;
      }

      .cls-4 {
        fill: #918670;
      }

      .cls-5 {
        fill: #7c6a55;
      }

      .cls-6 {
        fill: #8e7961;
      }
    </style>
  </defs>
  <path class="cls-2" d="M0,101.92s1.79-29.65,42.66-58.75C83.53,14.08,93.63-3.11,136.33.47c42.7,3.58,36.73,78.33,33.2,93.17-3.54,14.85-19.56,95.52-69.93,87.84C49.23,173.81-.59,152.99,0,101.92Z"/>
  <path class="cls-3" d="M72.25,62.43s2.08-8.75,9.82-5.83,4.47,9.38,2.82,11.53c-1.65,2.15-4.95,2.51-8.95.76-3.08-1.35-4.52-3.99-3.74-6.46h.04Z"/>
  <path class="cls-6" d="M85.48,160.48s-5.19-7.99,3.89-13.72c9.08-5.73,11.63,4.15,11.63,6.88s-.78,5.94-5.15,8c-4.37,2.05-9.17,1.88-10.38-1.15Z"/>
  <path class="cls-1" d="M171.85,72.63s-45.95-5.84-51.31,18.11c0,0-3.36,13.54,6.72,9.9,6.6-2.41,7.74-11.65,17.15-9.9,9.59,1.26,23.06,11.26,23.06,11.26,0,0,5.49-22.05,4.38-29.37Z"/>
  <path class="cls-1" d="M48.08,111.5s-2.25-13.97,17.54-11.12c19.79,2.85,6.63,20.89-1.28,21.46-7.91.57-15.02,0-16.26-10.35Z"/>
  <path class="cls-6" d="M117.48,17.08s9.71,8.14.66,16.95c-9.06,8.81-14.18-4.39-14.14-8.48.08-3.54,2.09-7.13,4.67-8.48,2.58-1.35,7.34-1.52,8.81,0Z"/>
  <path class="cls-5" d="M0,102.04C0,104.74.13,107.35.34,109.88c.68,2.14,4.1,6.12,20.27,6.12,22.23,0,8.02-23.21,34.27-46.89,26.25-23.64,14.51-46.07,14.47-46.11-7.55,5.78-16.05,12.5-26.63,20.08C1.79,72.28,0,102.04,0,102.04Z"/>
  <g>
    <path class="cls-2" d="M259.6,106.25s62.79-4.61,94.92,26.02c32.13,30.63,42.87,116.38,27.56,135.51-15.31,19.13-58.19,25.28-57.81,49.01.37,23.74,22.58,61.26-9.55,68.15-32.13,6.89-127.09,13.78-173.78-29.84-46.69-43.62-36.73-111.02-24.49-117.91,12.24-6.89,57.4-16.85,60.47-37.52,3.07-20.67,3.07-66.61,21.42-79.61,18.35-12.99,33.55-14.42,61.26-13.78v-.04Z"/>
    <path class="cls-4" d="M354.52,132.27c-12.06-11.46-28.38-18.01-44.11-21.68,7.9,3.59,15.35,8.2,21.64,14.19,32.16,30.63,42.87,116.38,27.56,135.51-15.31,19.13-58.19,25.27-57.81,49.01.37,23.74,22.58,61.26-9.55,68.15-22.09,4.72-73.76,9.47-119.11-2.17,49.31,20.71,115.74,15.2,141.58,9.66,32.17-6.89,9.96-44.41,9.55-68.15-.41-23.74,42.5-29.84,57.81-49.01,15.31-19.13,4.61-104.88-27.56-135.51Z"/>
    <path class="cls-3" d="M284.59,146.16s-2.77-18.65,21.57-14.83c24.34,3.82,8.12,27.9-1.54,28.64-9.66.75-18.46,0-19.99-13.78l-.04-.04Z"/>
    <path class="cls-6" d="M195.53,294.1s24.71,20.11,1.65,41.86c-23.07,21.75-36.1-10.86-35.91-20.93.15-8.72,5.28-17.64,11.87-20.93,6.59-3.29,17.52-4.91,22.39,0Z"/>
    <path class="cls-3" d="M321.27,264.3s-4.49-7,3.37-12.02c7.86-5.02,10.07,3.63,10.07,6.03s-.67,5.21-4.46,7c-3.78,1.8-7.94,1.65-8.99-1.01Z"/>
    <path class="cls-6" d="M265.97,155s4.72-7.68,12.21-2.55c7.49,5.13,5.13,10.41,0,12.58-5.13,2.17-8.05.45-11.01-2.25-2.13-1.91-2.36-6.33-1.2-7.79Z"/>
    <path class="cls-3" d="M211.82,254.26s1.8-7.3,8.46-4.87c6.67,2.43,3.86,7.83,2.43,9.62-1.42,1.8-4.27,2.1-7.71.64-2.66-1.12-3.89-3.33-3.22-5.39h.04Z"/>
    <path class="cls-6" d="M204.44,355.74s-1.09-5.62,5.62-3.89c6.7,1.72,3.74,8.16,0,8.16s-5.84-1.91-5.62-4.31v.04Z"/>
    <path class="cls-6" d="M349.09,224.76s6.82-2.02,5.13,4.87c-1.2,5.06-6.85,2.36-7.64.67-.45-.97-1.2-4.49,2.51-5.54Z"/>
    <path class="cls-5" d="M198.34,120.03c-18.39,13.03-18.39,58.94-21.42,79.61-3.07,20.67-48.23,30.63-60.47,37.52-5.65,3.18-10.78,19.21-10.15,39.84,0,0,.3,0,49.95-.79,49.95-.79,42.87-42.87,40.59-63.54-2.28-20.67,14.53-29.09,42.87-41.34,28.35-12.24,19.92-65.08,19.92-65.08h-15.65c-18.42.45-31,3.45-45.61,13.78h-.04Z"/>
    <path class="cls-1" d="M250.46,362.48s19.32,15.05,30.55,16.92c4.27-.64,8.09-1.31,11.23-1.99,29.81-6.4,12.92-39.09,9.96-62.72,0,0-60.2-16.24-67.14,0-3.29,7.71-13.18,20.33,15.35,47.78h.04Z"/>
    <g>
      <polygon class="cls-5" points="374.17 162.8 374.18 162.79 374.17 162.79 374.17 162.8"/>
      <path class="cls-5" d="M305.5,242.63c6.89-5.39-6.98-39.54,26.59-42.14,13.93-1.08,24.28-1.33,31.95-1.19-1.31-8.13-3.14-16.42-5.46-24.49-6.66,3.11-15.47,5.29-26.49,4.08-22.63-2.48-42.31.74-44.74,25.96-1.89,19.53,11.26,43.17,18.15,37.78Z"/>
    </g>
  </g>
</svg>