<?xml version="1.0" encoding="UTF-8"?>
<svg id="Explore_verouiller" data-name="Explore + verouiller" xmlns="http://www.w3.org/2000/svg" xmlns:xlink="http://www.w3.org/1999/xlink" viewBox="0 0 400 400">
  <defs>
    <style>
      .cls-1 {
        clip-path: url(#clippath);
      }

      .cls-2 {
        fill: none;
      }

      .cls-2, .cls-3, .cls-4, .cls-5, .cls-6, .cls-7, .cls-8 {
        stroke-width: 0px;
      }

      .cls-3 {
        fill: #282727;
      }

      .cls-4 {
        opacity: .6;
      }

      .cls-4, .cls-5, .cls-8 {
        isolation: isolate;
      }

      .cls-4, .cls-7, .cls-8 {
        fill: #fff;
      }

      .cls-5 {
        fill: #200000;
        opacity: .8;
      }

      .cls-6 {
        fill: #bf2025;
      }

      .cls-8 {
        opacity: .4;
      }
    </style>
    <clipPath id="clippath">
      <rect class="cls-2" x="44" y="35" width="71" height="90"/>
    </clipPath>
  </defs>
  <rect class="cls-6" width="400" height="400" rx="40" ry="40"/>
  <g>
    <path class="cls-4" d="M83.76,309.39l-8.53,6.77c-.9.71-1.31,1.87-1.06,3,.52,2.43,2.14,6.55,7.08,8.95.99.48,2.18.33,3.05-.34l9.1-6.89-9.64-11.48Z"/>
    <g>
      <path class="cls-4" d="M325.38,193.41l39.65-32.42c2.8-2.29,3.94-6.04,2.92-9.51-4.54-15.42-21.08-57.46-71.31-82.27-3.21-1.59-7.08-1.05-9.78,1.3l-37.54,32.57s58.67,35.57,76.07,90.33Z"/>
      <path class="cls-4" d="M93.62,238.13s4.82,50.01,69.56,87.92l12.54-10.25s-62.64-33.74-69.53-88.58l-12.57,10.91Z"/>
      <path class="cls-4" d="M114.09,199.19l15.2-13.97s-5.66-13.96-17.91-19.3l-13.99,11.87s14.7,11.89,16.7,21.4Z"/>
      <path class="cls-4" d="M68.27,241.31l-16.65,15.31c-18.01-5.55-19.93-23.08-19.93-23.08l14.21-12.06s4.79,15.06,22.37,19.84Z"/>
      <path class="cls-5" d="M249.31,103.08l-143.11,124.14h0c6.88,54.84,69.53,88.58,69.53,88.58l-12.54,10.25c-64.74-37.91-69.56-87.92-69.56-87.92l-22.16,19.22c-2.11,1.83-3.25,4.54-3.08,7.33.89,14.72,8.27,61,65.32,80.12,2.91.97,6.12.36,8.49-1.58l183.18-149.81c-17.39-54.75-76.07-90.33-76.07-90.33Z"/>
      <polygon class="cls-8" points="106.2 227.22 93.62 238.13 83.15 227.63 98.37 213.64 106.2 227.22"/>
      <path class="cls-5" d="M114.09,199.19c-2-9.51-16.7-21.4-16.7-21.4l-51.49,43.68h0s4.79,15.06,22.37,19.84h0l45.82-42.12Z"/>
    </g>
  </g>
  <rect class="cls-7" x="20" y="20" width="120" height="120" rx="20" ry="20"/>
  <g class="cls-1">
    <path class="cls-3" d="M77.58,35h3.84c.15.04.3.12.45.13,2.82.22,5.55.83,8.17,1.89,7.6,3.06,12.96,8.36,16.11,15.83,1.66,3.94,2.12,8.08,2.09,12.31-.03,4.57,0,2.28-.02,6.85,0,.8.26,1.2,1.04,1.43,1.01.29,1.99.68,2.98,1.05,1.76.65,2.75,1.96,2.76,3.8.01,12.27.01,24.53,0,36.8,0,1.83-.94,3.13-2.65,3.79-7.83,3.04-15.94,4.96-24.32,5.74-6.12.58-12.25.52-18.37-.15-7.92-.86-15.57-2.74-22.98-5.6-1.71-.66-2.65-1.96-2.65-3.79-.01-12.27-.01-24.53,0-36.8,0-1.84,1-3.15,2.76-3.8.96-.35,1.91-.73,2.89-1.01.85-.24,1.14-.68,1.13-1.56-.04-4.85-.01-2.85-.02-7.7,0-4.87.91-9.53,3.24-13.85,3.88-7.17,9.74-11.98,17.67-14.22,1.92-.54,3.93-.77,5.9-1.13ZM98.27,70.42c.03-.32.05-.47.05-.62,0-4.63.08-2.4-.04-7.03-.23-9.68-8.01-17.47-17.82-17.97-10.55-.53-19.49,7.55-19.75,17.95-.11,4.63-.03,2.4-.03,7.03,0,.18.05.36.1.62,12.49-2.6,24.95-2.6,37.5.01h0ZM79.54,112.54c2.23-.01,3.83-1.67,3.84-4.07.03-3.88.02-7.75,0-11.62,0-.64.21-1,.73-1.39,2.32-1.75,3.47-4.03,3.11-6.98-.41-3.35-3.1-6.19-6.37-6.64-3.78-.52-7.19,1.32-8.56,4.61-1.35,3.25-.38,6.84,2.51,8.93.63.45.82.91.81,1.63-.03,3.81-.04,7.62,0,11.44.02,2.45,1.65,4.1,3.93,4.08h0Z"/>
  </g>
</svg>